<svg width="18" height="18" viewBox="0 0 18 18" fill="none" xmlns="http://www.w3.org/2000/svg">
	<g id="business_center">
		<path id="Vector"
			  d="M9.75 12H8.25C7.8375 12 7.5 11.6625 7.5 11.25H2.2575V14.25C2.2575 15.075 2.9325 15.75 3.7575 15.75H14.25C15.075 15.75 15.75 15.075 15.75 14.25V11.25H10.5C10.5 11.6625 10.1625 12 9.75 12ZM15 5.25H12C12 3.5925 10.6575 2.25 9 2.25C7.3425 2.25 6 3.5925 6 5.25H3C2.175 5.25 1.5 5.925 1.5 6.75V9C1.5 9.8325 2.1675 10.5 3 10.5H7.5V9.75C7.5 9.3375 7.8375 9 8.25 9H9.75C10.1625 9 10.5 9.3375 10.5 9.75V10.5H15C15.825 10.5 16.5 9.825 16.5 9V6.75C16.5 5.925 15.825 5.25 15 5.25ZM7.5 5.25C7.5 4.425 8.175 3.75 9 3.75C9.825 3.75 10.5 4.425 10.5 5.25H7.4925H7.5Z"
			  fill="#FF7F00"/>
	</g>
</svg>
