<svg width="100%" height="100%" viewBox="0 0 219 150" fill="none" xmlns="http://www.w3.org/2000/svg">
<path d="M102.501 92.3918L102.517 92.3171V90.1435L108.507 87.5938V93.6868C108.507 93.9541 108.506 94.1305 108.499 94.2572C108.349 94.2674 108.14 94.2682 107.819 94.2682H104.97C104.504 94.2682 104.158 94.5182 103.935 94.7882C103.718 95.0497 103.571 95.3776 103.468 95.6987C103.259 96.3476 103.166 97.1663 103.166 97.9499C103.166 98.7334 103.259 99.5521 103.468 100.201C103.571 100.522 103.718 100.85 103.935 101.112C104.158 101.381 104.504 101.632 104.97 101.632H153.788C154.253 101.632 154.599 101.381 154.823 101.112C155.039 100.85 155.186 100.522 155.289 100.201C155.499 99.5521 155.592 98.7334 155.592 97.9499C155.592 97.1663 155.499 96.3476 155.289 95.6987C155.186 95.3776 155.039 95.0497 154.823 94.7882C154.599 94.5182 154.253 94.2682 153.788 94.2682H147.402V89.0512C147.56 88.9805 147.757 88.8929 147.983 88.7921C148.602 88.5163 149.442 88.1414 150.326 87.746C152.093 86.9564 154.045 86.0806 154.763 85.7476C155.643 85.3394 156.148 84.7544 156.395 84.0316C156.613 83.3951 156.613 82.6876 156.613 82.0765V77.5048H168.696C169.128 77.5048 169.468 77.2972 169.703 77.0437C169.929 76.8011 170.082 76.4957 170.189 76.1984C170.405 75.6007 170.5 74.8529 170.5 74.1431C170.5 73.4335 170.405 72.6857 170.189 72.0878C170.082 71.7905 169.929 71.4853 169.703 71.2427C169.468 70.9891 169.128 70.7815 168.696 70.7815H156.613V66.5779C156.613 65.965 156.613 65.2364 156.397 64.5904C156.15 63.854 155.639 63.2516 154.725 62.8889L147.402 59.9816V58.0199C147.402 57.6712 147.402 57.3525 147.375 57.099C147.347 56.8443 147.28 56.4937 147.011 56.2165C146.737 55.9341 146.384 55.8605 146.128 55.8311C145.878 55.8025 145.565 55.8025 145.229 55.8025H119.672C120.989 55.1717 121.898 53.8304 121.898 52.2776C121.898 50.2805 120.395 48.6343 118.454 48.3975C118.296 48.3783 118.135 48.3683 117.973 48.3683C117.726 48.3683 117.483 48.3912 117.248 48.435C117.211 48.4418 117.175 48.4491 117.139 48.4569C117.073 48.471 117.009 48.4866 116.945 48.5038C115.276 48.9535 114.047 50.4717 114.047 52.2776C114.047 53.8304 114.956 55.1717 116.273 55.8025L113.422 55.8025C113.268 55.8024 113.08 55.8023 112.92 55.826C112.727 55.8547 112.432 55.937 112.22 56.2214C112.042 56.4597 112.009 56.7339 111.996 56.891C111.982 57.0603 111.982 57.2713 111.982 57.4945V59.4927C111.982 59.5895 111.982 59.6723 111.982 59.7455L110.718 59.7455C110.372 59.7454 110.054 59.7454 109.801 59.7731C109.545 59.8011 109.192 59.8703 108.915 60.1428C108.636 60.4171 108.564 60.7685 108.535 61.0239C108.507 61.2746 108.507 61.5888 108.507 61.9281V65.6981L102.517 63.8476V61.9657C102.517 61.5406 102.412 61.1728 102.218 60.8704C102.026 60.5712 101.772 60.3781 101.537 60.2559C101.305 60.1356 101.081 60.0791 100.921 60.0514C100.84 60.0373 100.77 60.03 100.718 60.0261C100.691 60.0242 100.669 60.0231 100.652 60.0225C100.647 60.0223 100.643 60.0222 100.639 60.0221C100.636 60.022 100.632 60.0219 100.629 60.0219L100.62 60.0218L100.616 60.0217H100.613M102.501 92.3918L101.781 92.2409C102.501 92.3918 102.501 92.3915 102.501 92.3918ZM102.501 92.3918L102.5 92.3941L102.5 92.3968L102.498 92.4035L102.494 92.4224C102.49 92.4373 102.486 92.4566 102.48 92.48C102.467 92.5264 102.449 92.5892 102.424 92.6632C102.375 92.8084 102.296 93.0094 102.174 93.2167C101.941 93.613 101.454 94.1849 100.613 94.1849H98.2777C97.8507 94.1849 97.4821 94.0717 97.1828 93.8648C96.8899 93.6622 96.7063 93.3997 96.5926 93.1637C96.4797 92.93 96.4272 92.7055 96.4016 92.546C96.3885 92.4644 96.3815 92.395 96.3781 92.3432C96.3772 92.3315 96.3766 92.3209 96.3761 92.311C96.3754 92.2985 96.3749 92.2876 96.3746 92.278C96.3745 92.2694 96.3743 92.2619 96.3742 92.2558L96.374 92.2474V92.2424M96.374 92.2424C96.374 92.2421 96.374 92.2409 97.1101 92.2409L96.374 92.2424ZM96.374 92.2424V91.763H95.3341L95.5107 91.946V92.2409C95.5107 92.2619 95.5107 92.2832 95.5107 92.3047C95.511 92.8609 95.5114 93.5644 95.3298 94.1296C95.2293 94.442 95.0561 94.7737 94.7454 95.0245C94.4255 95.2825 94.0331 95.396 93.607 95.396H70.2538C69.867 95.396 69.5046 95.3026 69.2004 95.0836C68.899 94.8668 68.7202 94.5742 68.6134 94.2907C68.4179 93.7723 68.416 93.1394 68.4167 92.6749V92.6578L68.4169 92.5801L68.417 92.5451L68.4179 92.0921L68.7244 91.763H54.1098L54.0771 91.76M54.0771 91.76L54.1427 91.03C54.0771 91.76 54.0774 91.76 54.0771 91.76ZM54.0771 91.76L54.0741 91.7597L54.0695 91.7593L54.0555 91.7579C54.044 91.7567 54.0284 91.7551 54.0089 91.753C53.97 91.7485 53.9154 91.7417 53.8472 91.732C53.711 91.7125 53.5197 91.6808 53.2903 91.6318C52.8338 91.534 52.2133 91.364 51.5696 91.0735C50.2921 90.497 48.8033 89.3827 48.5074 87.32L48.5 87.2684V66.7556L48.508 66.7021C48.8077 64.6904 50.3133 63.6259 51.5838 63.0844C52.2268 62.8104 52.8463 62.6523 53.3017 62.5623C53.5307 62.5171 53.7215 62.4884 53.8572 62.4709C53.9252 62.4621 53.9796 62.456 54.0183 62.4521C54.0377 62.4502 54.0532 62.4487 54.0646 62.4477L54.0784 62.4465L54.083 62.4461L54.0854 62.446M54.0854 62.446C54.0857 62.4459 54.0859 62.4459 54.1427 63.1767L54.0854 62.446ZM54.0854 62.446L54.1142 62.4437H80.7606L80.0268 60.9215V57.7057C79.9656 57.6816 79.9027 57.6534 79.8391 57.6204C79.6035 57.4983 79.35 57.3052 79.1577 57.0059C78.9634 56.7036 78.8592 56.3357 78.8592 55.9106V54.6996M78.8592 54.6996L79.5951 54.6996C78.8592 54.6996 78.8592 54.7 78.8592 54.6996ZM78.8592 54.6996V54.6966V54.6931V54.6848C78.8593 54.6786 78.8595 54.6712 78.8598 54.6626C78.8604 54.6454 78.8613 54.6235 78.8631 54.5974C78.8667 54.5456 78.8735 54.4761 78.8866 54.3946C78.9122 54.235 78.9649 54.0106 79.0776 53.7769C79.1913 53.5409 79.3749 53.2784 79.668 53.0757C79.9673 52.8688 80.3358 52.7556 80.7628 52.7556H82.7844L83.9521 51.5446H91.5854L92.753 52.7556H94.7748C95.2018 52.7556 95.5703 52.8688 95.8694 53.0757C96.1625 53.2784 96.3461 53.5409 96.4599 53.7769C96.5725 54.0106 96.6252 54.2351 96.6508 54.3946C96.6639 54.4761 96.6707 54.5456 96.6743 54.5974C96.6761 54.6235 96.6772 54.6454 96.6777 54.6626C96.678 54.6712 96.6781 54.6786 96.6783 54.6848V54.6932L96.6784 54.6982M96.6784 54.6982C96.6784 54.6985 96.6784 54.6996 96.0226 54.6996L96.6784 54.6982ZM96.6784 54.6982V55.9106M96.6784 55.9106H96.0226C96.6784 55.9106 96.6784 55.9103 96.6784 55.9106ZM96.6784 55.9106L96.6783 55.9171V55.9254C96.6781 55.9316 96.678 55.9391 96.6777 55.9477C96.6772 55.9648 96.6761 55.9868 96.6743 56.0128C96.6707 56.0646 96.6639 56.1341 96.6508 56.2157C96.6252 56.3752 96.5725 56.5996 96.4599 56.8334C96.3461 57.0693 96.1625 57.3319 95.8694 57.5345C95.7592 57.6108 95.6394 57.6744 95.5107 57.7242V60.9215L94.7769 62.4437H96.374V61.9657M96.374 61.9657L97.1101 61.9657C96.374 61.9657 96.374 61.966 96.374 61.9657ZM96.374 61.9657V61.9592L96.3742 61.9509C96.3743 61.9447 96.3745 61.9372 96.3746 61.9286C96.3752 61.9115 96.3763 61.8895 96.3781 61.8635C96.3815 61.8117 96.3885 61.7422 96.4016 61.6606C96.4272 61.5011 96.4797 61.2767 96.5926 61.0429C96.7063 60.807 96.8899 60.5445 97.183 60.3418C97.4821 60.1349 97.8507 60.0217 98.2777 60.0217H100.613M100.613 60.0217V60.6731C100.613 60.0217 100.613 60.0217 100.613 60.0217ZM97.846 61.9733V92.2334C97.8461 92.2354 97.8463 92.2385 97.8466 92.2429C97.8475 92.2573 97.8499 92.2823 97.855 92.3143C97.8659 92.3819 97.8862 92.4602 97.9195 92.5292C97.9517 92.596 97.9871 92.6362 98.0224 92.6606C98.0516 92.6809 98.1209 92.719 98.2777 92.719H100.613C100.684 92.719 100.781 92.6854 100.904 92.4763C100.96 92.3809 101.001 92.279 101.029 92.1971C101.035 92.1785 101.04 92.1616 101.045 92.1469V61.9657C101.045 61.7853 101.003 61.699 100.978 61.6608C100.952 61.6194 100.913 61.5854 100.857 61.5562C100.797 61.5251 100.729 61.506 100.67 61.4958C100.642 61.491 100.62 61.4889 100.609 61.488C100.607 61.4879 100.605 61.4878 100.603 61.4877H98.2777C98.1209 61.4877 98.0516 61.5258 98.0224 61.546C97.987 61.5704 97.9517 61.6106 97.9195 61.6775C97.8862 61.7465 97.8659 61.8248 97.855 61.8923C97.8499 61.9243 97.8475 61.9494 97.8466 61.9638C97.8463 61.9678 97.8461 61.9713 97.846 61.9733ZM97.846 61.9733C97.846 61.9731 97.846 61.9734 97.846 61.9733ZM117.973 49.8343C117.817 49.8343 117.665 49.8487 117.518 49.876C117.495 49.8803 117.473 49.8848 117.45 49.8896C117.41 49.8984 117.37 49.9081 117.33 49.9189C116.286 50.2001 115.519 51.1506 115.519 52.2776C115.519 53.627 116.618 54.7208 117.973 54.7208C119.327 54.7208 120.426 53.627 120.426 52.2776C120.426 51.0303 119.487 50.0004 118.275 49.8526C118.176 49.8406 118.075 49.8343 117.973 49.8343ZM108.507 67.2329L102.517 65.3825V88.5493L108.507 85.9994V67.2329ZM96.374 63.9097H68.6546V90.2969H70.0892L72.7388 87.451L73.8183 88.4477L69.8887 92.6686C69.888 93.1904 69.9056 93.5477 69.9914 93.7756C70.0267 93.869 70.0568 93.8914 70.0622 93.8953C70.0661 93.898 70.1097 93.9301 70.2538 93.9301H93.607C93.7635 93.9301 93.8094 93.8929 93.8186 93.8855C93.8363 93.8713 93.8823 93.8242 93.9278 93.6827C94.0147 93.4123 94.0339 93.0332 94.0378 92.5349L93.0762 91.5377L91.7501 90.1624L90.157 88.447L91.2375 87.4516L92.8214 89.1568L93.9208 90.2969H96.374V63.9097ZM67.1826 90.2969V63.9097H54.176C54.1734 63.91 54.1705 63.9103 54.1675 63.9106C54.1414 63.9131 54.1004 63.9176 54.0466 63.9247C53.939 63.9385 53.7809 63.9622 53.5882 64.0003C53.2003 64.0769 52.6852 64.2095 52.1629 64.4321C51.1167 64.8781 50.18 65.6159 49.972 66.8668V87.1616C50.1827 88.4897 51.1366 89.2687 52.1771 89.7382C52.6987 89.9737 53.2128 90.1157 53.5997 90.1985C53.7919 90.2396 53.9495 90.2656 54.0567 90.2809C54.1102 90.2885 54.151 90.2936 54.1769 90.2965C54.1783 90.2966 54.1797 90.2968 54.181 90.2969H67.1826ZM93.144 62.4437L94.0387 60.5879V57.8546H81.4987V60.5879L82.3936 62.4437H93.144ZM80.7723 56.3887H94.7748C94.9315 56.3887 95.0008 56.3505 95.03 56.3303C95.0653 56.3059 95.1007 56.2657 95.1329 56.1989C95.1662 56.1299 95.1865 56.0516 95.1974 55.984C95.2025 55.9521 95.2048 55.9269 95.2058 55.9125C95.2061 55.9082 95.2063 55.905 95.2064 55.9031V54.7072C95.2063 54.7052 95.2061 54.702 95.2058 54.6977C95.2048 54.6833 95.2025 54.6582 95.1974 54.6262C95.1865 54.5587 95.1662 54.4804 95.1329 54.4114C95.1007 54.3445 95.0653 54.3043 95.03 54.2799C95.0008 54.2597 94.9315 54.2216 94.7748 54.2216H92.1257L90.9581 53.0106H84.5795L83.4117 54.2216H80.7628C80.6059 54.2216 80.5367 54.2597 80.5075 54.2799C80.4721 54.3043 80.4367 54.3445 80.4045 54.4114C80.3712 54.4804 80.351 54.5587 80.34 54.6262C80.3349 54.6582 80.3327 54.6833 80.3316 54.6977C80.3313 54.702 80.3312 54.7052 80.3312 54.7072V55.9106C80.3312 56.0911 80.3729 56.1773 80.3974 56.2156C80.4241 56.2569 80.4625 56.2909 80.5188 56.3201C80.5788 56.3512 80.647 56.3703 80.7062 56.3805C80.7341 56.3854 80.7556 56.3875 80.7672 56.3883C80.7693 56.3885 80.7711 56.3886 80.7723 56.3887ZM101.061 92.0854C101.062 92.0848 101.062 92.0839 101.061 92.0854ZM145.93 92.9539V89.9039H126.73V91.1255C126.73 91.7822 126.731 92.218 126.763 92.5324C126.785 92.7505 126.817 92.8391 126.83 92.8672C126.856 92.8784 126.924 92.9012 127.072 92.9192C127.347 92.9525 127.733 92.9539 128.339 92.9539H145.93ZM126.73 88.438H140.395V85.7504H126.73V88.438ZM126.73 84.2843H140.395V81.3524H126.73V84.2843ZM126.73 79.8865H145.93V76.9546H126.73V79.8865ZM145.93 75.4886H125.258V91.1648C125.258 91.7716 125.258 92.2828 125.298 92.6801C125.338 93.0752 125.43 93.5182 125.743 93.8605C126.069 94.2169 126.508 94.3274 126.894 94.3744C127.269 94.4198 127.746 94.4198 128.294 94.4198H145.93V95.7341H153.697C153.748 95.8001 153.818 95.9303 153.888 96.1465C154.035 96.6032 154.12 97.259 154.12 97.9499C154.12 98.6408 154.035 99.2965 153.888 99.7534C153.818 99.9695 153.748 100.1 153.697 100.166H105.06C105.01 100.1 104.939 99.9695 104.87 99.7534C104.723 99.2965 104.638 98.6408 104.638 97.9499C104.638 97.259 104.723 96.6032 104.87 96.1465C104.939 95.9303 105.01 95.8001 105.06 95.7341H107.854C108.18 95.7341 108.479 95.7341 108.717 95.7097C108.954 95.6854 109.293 95.6255 109.565 95.3744C109.849 95.1127 109.923 94.7729 109.951 94.534C109.956 94.4972 109.96 94.4591 109.963 94.4198H113.454V92.9539H109.979V61.9657C109.979 61.6068 109.98 61.3838 109.994 61.2271C110.155 61.2124 110.385 61.2114 110.756 61.2114L112.014 61.2115C112.169 61.2116 112.357 61.2117 112.517 61.188C112.709 61.1593 113.005 61.077 113.217 60.7926C113.395 60.5543 113.427 60.2801 113.44 60.123C113.454 59.9537 113.454 59.7427 113.454 59.5196V57.5213C113.454 57.4245 113.454 57.3417 113.455 57.2685H145.191C145.542 57.2685 145.76 57.2695 145.914 57.2829C145.929 57.447 145.93 57.6804 145.93 58.0565V75.4886ZM145.93 81.3524H141.867V88.438H145.93V81.3524ZM147.402 87.4451C148.018 87.1702 148.849 86.7995 149.724 86.4086C151.495 85.6169 153.435 84.7463 154.142 84.4187C154.686 84.1661 154.894 83.875 155.002 83.5583C155.133 83.176 155.141 82.7063 155.141 82.0163V66.6364C155.141 65.9468 155.133 65.4508 155.001 65.0542C154.891 64.727 154.691 64.4533 154.18 64.2506L147.402 61.5597V87.4451ZM156.613 76.0388H168.631C168.673 75.9895 168.738 75.8854 168.804 75.7022C168.945 75.3143 169.028 74.7478 169.028 74.1431C169.028 73.5386 168.945 72.9719 168.804 72.584C168.738 72.401 168.673 72.2969 168.631 72.2476H156.613V76.0388ZM121.796 59.7455H143.339V61.2114H123.268V95.0011H121.796V59.7455ZM94.7754 67.5427H69.154V66.0767H94.7754V67.5427ZM69.154 70.1134H94.7748V71.5793H69.154V70.1134ZM94.7748 74.0227V75.4886H69.0862V74.0227H94.7748ZM69.1526 77.9318H94.7748V79.3979H69.1526V77.9318ZM94.7748 83.2018H69.154V81.7358H94.7748V83.2018ZM74.9244 86.8115H69.154V85.3456H74.9244V86.8115ZM88.9364 85.3456H94.7748V86.8115H88.9364V85.3456Z" stroke="#343941" stroke-width="1.5"/>
</svg>
