<svg width="100%" height="100%" viewBox="0 0 219 150" fill="none" xmlns="http://www.w3.org/2000/svg">
<path d="M85.2829 62.4745C85.7411 62.169 86.0466 62.169 86.0466 61.4053C86.0466 60.6415 81.7696 59.8778 80.8531 59.725C80.3949 60.0305 80.0894 60.0305 80.0894 60.7942C80.0894 61.4052 84.5191 62.3217 85.2829 62.4745ZM84.6719 66.9042C85.2829 66.9042 85.4356 66.7515 85.4356 66.1405V65.3768H80.2421C79.6311 65.3768 79.4783 65.5295 79.4783 66.1405C79.4783 66.446 79.9366 66.9042 80.5476 66.9042H84.6719ZM86.0466 70.4175C86.0466 70.112 85.5884 69.8065 85.2829 69.6537C84.0609 69.9592 80.0894 70.5702 80.0894 71.945C80.0894 72.2505 80.3949 72.4032 80.8531 72.4032C82.0751 72.4032 86.0466 71.334 86.0466 70.4175ZM87.8796 74.6944C87.7268 74.3889 87.4213 73.9307 87.1158 73.9307C86.5048 73.9307 82.3807 76.222 82.3807 76.9857C82.3807 77.5967 82.5334 77.7495 83.1444 77.7495C84.0609 77.5967 87.4213 75.3054 87.8796 74.6944ZM101.78 82.3319C101.474 82.3319 101.016 82.7902 101.016 83.4012V87.6782C101.016 88.2892 101.169 88.4419 101.78 88.4419C102.391 88.4419 102.544 88.2892 102.544 87.6782V83.2484C102.544 82.6374 102.391 82.3319 101.78 82.3319ZM97.3501 81.8737C96.4336 81.8737 95.6698 86.1507 95.6698 87.5254H96.4336C97.3501 87.5254 98.1139 83.5539 98.1139 82.3319C98.1139 82.0264 97.6556 81.8737 97.3501 81.8737ZM93.0731 80.1934C92.7676 80.1934 90.3237 84.3177 90.3237 84.6232V84.9286C90.3237 85.5396 90.4764 85.6924 91.0874 85.6924C91.5456 85.6924 94.1424 81.4154 94.1424 80.9572C93.9896 80.6517 93.5314 80.1934 93.0731 80.1934ZM90.3237 78.2077C90.3237 77.5967 90.1709 77.4439 89.5599 77.4439C89.4072 77.4439 85.8939 80.8044 85.8939 81.4154C85.8939 81.8737 86.0466 82.1792 86.3521 82.1792C87.2686 82.1792 90.3237 79.1242 90.3237 78.5132V78.2077ZM106.21 50.2545C107.432 50.2545 107.89 46.5886 107.89 45.2138V44.45C106.057 44.45 105.446 47.8105 105.446 49.6435C105.446 50.1017 105.904 50.2545 106.21 50.2545ZM101.78 62.169H101.474C99.9468 62.169 97.9612 63.8493 97.9612 65.3768V66.5988C97.9612 68.4318 99.7941 69.8065 101.627 69.8065H102.085C103.918 69.8065 105.599 67.8208 105.599 65.835C105.751 64.1548 103.766 62.169 101.78 62.169ZM104.071 66.7515C104.071 67.668 102.849 68.4317 101.78 68.4317C100.558 68.4317 99.4886 67.3625 99.4886 66.1405V65.835C99.4886 64.613 100.558 63.5437 101.78 63.5437C102.696 63.5437 104.071 64.4602 104.071 65.224V66.7515ZM110.487 52.0875C111.098 52.0875 113.236 48.2688 113.236 46.894H112.014L109.57 51.3238C109.723 51.6293 109.876 52.0875 110.487 52.0875ZM113.694 54.8371C114.611 54.8371 117.666 51.782 117.666 51.171V50.8656C117.666 50.2546 117.513 50.1018 116.902 50.1018C116.749 50.1018 113.236 53.4623 113.236 54.0733C113.236 54.3788 113.389 54.8371 113.694 54.8371ZM86.8103 58.1975H87.1158C87.7268 58.1975 87.8796 58.0448 87.8796 57.4338C87.8796 56.8228 83.9082 54.837 83.1444 54.3787L82.3807 54.6843C82.3807 56.2118 85.5883 58.1975 86.8103 58.1975ZM101.78 49.7963C102.391 49.7963 102.544 49.6435 102.544 49.0325V44.6028C102.544 43.9918 102.391 43.839 101.78 43.839C101.169 43.839 101.016 43.9918 101.016 44.6028V48.8798C101.016 49.338 101.474 49.7963 101.78 49.7963ZM89.5599 54.8371C90.1709 54.8371 90.3236 54.5316 90.6291 54.0733C90.3236 53.6151 86.9631 50.1018 86.6576 50.1018C86.0466 50.1018 85.8939 50.2546 85.8939 50.8656C85.8939 51.3238 89.4072 54.8371 89.5599 54.8371ZM93.8369 51.9347L94.1424 51.171C93.6841 50.4072 92.0039 46.7413 91.0874 46.7413H90.3237V47.5051C90.3237 47.8106 91.3929 49.6435 91.6984 50.1018C92.4621 51.3238 92.1566 51.9347 93.8369 51.9347ZM98.1139 49.7963C98.1139 47.8105 97.1973 46.1303 96.8918 44.6028C96.2808 44.6028 95.6698 44.6028 95.6698 45.0611C95.6698 46.7413 96.5863 48.727 96.8918 50.2545C97.3501 50.2545 98.1139 50.4073 98.1139 49.7963ZM118.888 65.5295C118.277 65.5295 118.124 65.6823 118.124 66.2933C118.124 66.5988 118.582 67.057 119.193 67.057H123.165C123.776 67.057 124.234 66.5987 124.234 65.9877C124.234 65.6822 123.928 65.5295 123.47 65.5295H118.888ZM117.666 61.7107C117.666 63.2382 120.11 61.8635 120.721 61.7107C122.401 61.2525 123.317 61.7108 123.47 59.8778L122.706 59.5722C121.637 60.0305 117.666 60.6415 117.666 61.7107ZM117.666 70.4175V71.1812C119.04 71.4867 121.484 72.4032 122.859 72.4032C123.165 72.4032 123.317 72.0977 123.317 71.6395C123.47 70.8757 117.666 68.89 117.666 70.4175ZM115.986 57.4338C115.986 58.0448 116.138 58.1975 116.749 58.1975C117.208 58.1975 121.179 56.059 121.179 55.1426C121.179 54.6843 121.026 54.3787 120.721 54.3787C120.11 54.5315 115.986 56.8228 115.986 57.4338Z" stroke="#343941" stroke-width="1.5"/>
<path d="M125.15 113.951V115.937H73.3681V113.951H125.15ZM97.3501 111.507V103.56H104.989V111.507H97.3501ZM148.521 39.8676C148.368 65.9877 144.702 72.0978 137.523 83.0958C130.955 92.8717 118.124 101.578 101.78 101.578H99.7937C90.9342 101.578 81.311 95.9267 76.8813 91.497C72.4516 87.0673 66.4943 77.5967 66.4943 69.0428V63.6966C66.4943 54.0734 72.6043 45.0611 77.645 40.1731C81.0055 36.9654 83.4495 35.4379 88.032 33.2994C90.476 32.2302 98.5717 29.9389 102.39 30.5499L111.555 31.7719C111.861 31.9247 112.319 31.3137 112.319 30.8554V27.6477H148.368L148.521 39.8676Z" stroke="#343941" stroke-width="1.5"/>
<path d="M116.75 73.9308C116.139 73.9308 115.986 74.0835 115.986 74.6945C115.986 75.4583 120.11 77.7495 120.416 77.7495C121.027 77.7495 121.18 77.5967 121.18 76.9857C121.18 76.222 117.056 73.9308 116.75 73.9308Z" stroke="#343941" stroke-width="1.5"/>
<path d="M104.224 41.395H100.253C88.3385 41.395 76.8822 53.0041 76.8822 64.7658V67.8208C76.8822 79.888 88.7966 91.1914 101.322 91.1914H102.544C108.96 91.1914 115.833 87.5254 119.041 84.3177C122.249 81.1099 126.679 74.6945 126.679 68.5845V65.224C126.679 53.3095 115.528 41.395 104.224 41.395ZM125.151 66.2933C125.151 72.8615 122.402 78.666 119.041 82.0265C116.139 84.9287 110.182 89.3584 104.53 89.3584H100.558C89.1021 89.3584 78.4097 78.5132 78.4097 67.2097V65.224C78.4097 59.2667 81.923 52.8513 84.978 49.7963C87.8803 46.894 94.1429 42.7698 99.6419 42.7698H103.155C114.764 42.7698 125.304 53.615 125.304 65.224V66.2933H125.151Z" stroke="#343941" stroke-width="1.5"/>
<path d="M113.695 77.444C113.39 77.444 113.237 77.7495 113.237 78.2077C113.237 78.8187 116.597 82.1792 117.208 82.1792C117.514 82.1792 117.819 81.721 117.972 81.4155C117.514 80.6517 114.459 77.444 113.695 77.444ZM116.903 66.7515V65.9878C116.903 58.1976 110.029 51.0184 102.392 51.0184H100.712C93.685 51.0184 86.8112 58.0449 86.8112 65.5296V67.9735C86.8112 75 94.4488 81.11 102.239 81.11H103.308C110.029 81.11 116.903 73.6253 116.903 66.7515ZM101.781 79.5825H101.017C94.7543 79.5825 88.3387 73.3198 88.3387 67.2098V65.5296C88.3387 58.9614 94.6015 52.5458 100.712 52.5458H103.003C109.418 52.5458 115.375 59.4196 115.375 66.2934V66.5988C115.528 73.4726 109.113 79.5825 101.781 79.5825Z" stroke="#343941" stroke-width="1.5"/>
<path d="M101.475 55.2953C96.4344 55.2953 91.0881 60.1832 91.0881 65.224V66.9042C91.0881 72.0977 96.2816 76.833 101.781 76.833C107.127 76.833 112.473 72.2505 112.473 67.057V64.7658C112.473 59.8778 106.974 55.2953 101.475 55.2953ZM110.946 67.668C110.946 71.4867 105.905 75.4582 101.475 75.4582C96.5871 75.4582 92.4628 71.0285 92.4628 65.9877C92.4628 61.4052 96.4343 56.9755 100.864 56.9755H102.392C106.821 56.9755 110.793 61.0998 110.793 65.6822V67.668H110.946ZM106.21 81.8737C105.752 81.8737 105.447 82.0264 105.447 82.3319C105.447 83.7067 106.363 86.1507 106.669 87.5254H107.432C108.96 87.6782 107.127 81.8737 106.21 81.8737ZM110.182 80.1934C109.876 80.1934 109.571 80.6517 109.418 80.9572C109.876 81.8737 111.709 85.6924 112.626 85.6924C112.931 85.6924 113.084 85.3869 113.084 84.9286C113.237 84.0121 111.098 80.1934 110.182 80.1934Z" stroke="#343941" stroke-width="1.5"/>
</svg>
