<svg width="378" height="221" viewBox="0 0 378 221" fill="none" xmlns="http://www.w3.org/2000/svg">
	<g style="mix-blend-mode:hard-light" filter="url(#filter0_f_5081_6360)">
		<path
			d="M102.332 161C125.528 161 144.332 142.196 144.332 119C144.332 95.8042 125.528 77.0001 102.332 77.0001C79.1361 77.0001 60.332 95.8042 60.332 119C60.332 142.196 79.1361 161 102.332 161Z"
			fill="#6BBCFF"/>
	</g>
	<g filter="url(#filter1_f_5081_6360)">
		<path d="M133.207 40.7277H57.3984V108.113H133.207V40.7277Z" fill="#FF7F00"/>
	</g>
	<path
		d="M97.392 71.14C102.245 71.14 105.755 70.23 107.922 68.41C110.175 66.5033 111.302 64.1633 111.302 61.39V60.48C111.302 57.1867 110.219 54.5433 108.052 52.55C105.972 50.5567 102.982 49.56 99.082 49.56C95.442 49.56 92.0187 50.5133 88.812 52.42C85.6054 54.24 82.8754 56.8833 80.622 60.35L68.402 48.91C70.1354 46.6567 71.9987 44.62 73.992 42.8C75.9854 40.8933 78.2387 39.29 80.752 37.99C83.2654 36.6033 86.082 35.5633 89.202 34.87C92.322 34.09 95.832 33.7 99.732 33.7C104.585 33.7 108.962 34.2633 112.862 35.39C116.849 36.5167 120.229 38.1633 123.002 40.33C125.862 42.41 128.029 44.9233 129.502 47.87C131.062 50.8167 131.842 54.11 131.842 57.75C131.842 60.61 131.365 63.21 130.412 65.55C129.545 67.89 128.289 69.9267 126.642 71.66C125.082 73.3933 123.262 74.8233 121.182 75.95C119.102 76.99 116.892 77.7267 114.552 78.16V78.94C117.239 79.46 119.709 80.3267 121.962 81.54C124.302 82.6667 126.295 84.14 127.942 85.96C129.675 87.78 131.019 89.9467 131.972 92.46C132.925 94.8867 133.402 97.66 133.402 100.78C133.402 104.853 132.579 108.537 130.932 111.83C129.285 115.123 126.945 117.94 123.912 120.28C120.879 122.62 117.239 124.44 112.992 125.74C108.745 126.953 104.065 127.56 98.952 127.56C94.3587 127.56 90.2854 127.083 86.732 126.13C83.1787 125.177 80.0587 123.92 77.372 122.36C74.772 120.713 72.4754 118.85 70.482 116.77C68.5754 114.69 66.8854 112.48 65.412 110.14L79.842 98.96C81.8354 102.687 84.262 105.763 87.122 108.19C90.0687 110.53 94.012 111.7 98.952 111.7C103.372 111.7 106.795 110.617 109.222 108.45C111.735 106.197 112.992 103.163 112.992 99.35V98.57C112.992 94.8433 111.562 92.07 108.702 90.25C105.929 88.3433 102.072 87.39 97.132 87.39H88.942V71.14H97.392ZM206.411 126H182.491L155.971 64.51L174.041 55.93L183.401 79.98L194.061 109.88H194.581L205.761 79.98L226.561 29.28L245.151 36.69L206.411 126Z"
		fill="white"/>
	<defs>
		<filter id="filter0_f_5081_6360" x="0.332031" y="17.0001" width="204" height="204" filterUnits="userSpaceOnUse"
				color-interpolation-filters="sRGB">
			<feFlood flood-opacity="0" result="BackgroundImageFix"/>
			<feBlend mode="normal" in="SourceGraphic" in2="BackgroundImageFix" result="shape"/>
			<feGaussianBlur stdDeviation="30" result="effect1_foregroundBlur_5081_6360"/>
		</filter>
		<filter id="filter1_f_5081_6360" x="17.3984" y="0.727661" width="155.809" height="147.386"
				filterUnits="userSpaceOnUse" color-interpolation-filters="sRGB">
			<feFlood flood-opacity="0" result="BackgroundImageFix"/>
			<feBlend mode="normal" in="SourceGraphic" in2="BackgroundImageFix" result="shape"/>
			<feGaussianBlur stdDeviation="20" result="effect1_foregroundBlur_5081_6360"/>
		</filter>
	</defs>
</svg>
