<svg width="100%" height="100%" viewBox="0 0 219 150" fill="none" xmlns="http://www.w3.org/2000/svg">
<path d="M76.9391 118.667V53C76.9391 52.5 77.4358 52 77.7669 52H145.613C146.11 52 146.607 52.5 146.607 53V118.667M144.62 118.667V112.167H78.7601V115V118.667M144.62 118.667H149.599V27.8333H141.156C140.328 27.8333 139.831 27.3333 139.5 26.8333H84.0428C83.7118 27.5 83.0495 27.8333 82.3874 27.8333H73.9446V118.667H78.7601M144.62 118.667H78.7601M90.1692 49.8333C94.8045 49.8333 98.7776 46.3333 99.4398 41.8333C99.4398 41.5 99.4397 41.3333 99.2742 41C99.1086 40.8333 98.7776 40.6667 98.612 40.6667H81.892C81.5609 40.6667 81.3954 40.8333 81.2299 40.9999C81.0644 41.1666 80.8987 41.5 81.0643 41.8333C81.5609 46.3333 85.534 49.8333 90.1692 49.8333ZM97.4533 42.6667C96.46 45.8333 93.6457 48 90.3348 48C87.0239 48 84.0441 45.8333 83.2164 42.6667H97.4533ZM81.892 40H98.612C98.9431 40 99.1086 39.8334 99.2741 39.6667C99.4397 39.5001 99.6053 39.1667 99.4398 38.8333C98.7776 34.1667 94.8045 30.8333 90.1692 30.8333C85.534 30.8333 81.5609 34.1667 80.8988 38.8333C80.8988 39.1665 80.8988 39.3334 81.0643 39.6667C81.3953 39.8333 81.5609 40 81.892 40ZM90.1692 32.8333C93.4801 32.8333 96.46 35 97.2877 38.1667H83.0508C84.0441 35 86.8583 32.8333 90.1692 32.8333ZM78.7601 54H144.62V58H78.7601V54ZM78.7601 59.8333H144.62V63.8333H78.7601V59.8333ZM78.7601 65.6667H144.62V69.6667H78.7601V65.6667ZM78.7601 71.5H144.62V75.5H78.7601V71.5ZM78.7601 77.1667H144.62V81.1667H78.7601V77.1667ZM78.7601 83H144.62V87H78.7601V83ZM78.7601 88.8333H144.62V92.8333H78.7601V88.8333ZM78.7601 94.6667H144.62V98.6667H78.7601V94.6667ZM78.7601 100.5H144.62V104.5H78.7601V100.5ZM78.7601 106.333H144.62V110.333H78.7601V106.333ZM153.406 51V26C153.406 25 152.578 24.1667 151.585 24.1667H143.142V21.8333C143.142 20.8333 142.315 20 141.321 20H82.5529C81.5597 20 80.7319 20.8333 80.7319 21.8333V24.1667H72.2891C71.2959 24.1667 70.4681 25 70.4681 26V51C70.4681 54.6667 69.1438 63.8333 67.6539 74.3333C63.5153 103.333 61.0321 124.333 65.0052 128.833C65.6673 129.667 66.6606 130 67.6539 130C71.9581 130 73.4479 125 73.9446 122.333H150.095C150.592 125.167 152.082 130 156.386 130C157.379 130 158.207 129.5 159.035 128.833C163.008 124.167 160.359 103.333 156.386 74.3333C154.73 63.8333 153.406 54.6667 153.406 51ZM70.1371 120.333C69.9715 122.333 68.9783 126 67.4884 126.167C64.8396 123 67.8195 99 70.1371 81.8333V120.333ZM84.3739 23.5H139.335V25H84.3739V23.5ZM156.055 126.333C154.565 126 153.572 122.5 153.406 120.5V82C155.724 99.1667 158.704 123.167 156.055 126.333ZM105.232 40H121.952C122.283 40 122.449 39.8334 122.614 39.6667C122.78 39.5001 122.945 39.1667 122.78 38.8333C122.118 34.1667 118.145 30.8333 113.509 30.8333C108.874 30.8333 104.901 34.3333 104.239 38.8333C104.239 39.1664 104.239 39.3335 104.404 39.6667C104.735 39.8333 105.066 40 105.232 40ZM113.675 32.8333C116.986 32.8333 119.966 35 120.793 38.1667H106.391C107.384 35 110.364 32.8333 113.675 32.8333ZM113.509 49.8333C118.145 49.8333 122.118 46.5 122.78 41.8333C122.78 41.5 122.78 41.3333 122.614 41C122.449 40.8333 122.118 40.6667 121.952 40.6667H105.232C104.901 40.6667 104.735 40.8333 104.57 41C104.404 41.1667 104.239 41.5 104.404 41.8333C104.901 46.5 108.708 49.8333 113.509 49.8333ZM120.628 42.6667C119.634 45.8333 116.82 48 113.509 48C110.198 48 107.219 45.8333 106.391 42.6667H120.628Z" stroke="#343941" stroke-width="1.5"/>
</svg>
