<svg width="100%" height="100%" viewBox="0 0 219 150" fill="none" xmlns="http://www.w3.org/2000/svg">
<path d="M94.3077 109.44C96.1996 109.44 97.7381 107.9 97.7381 106.007C97.7381 104.114 96.1996 102.575 94.3077 102.575C92.4159 102.575 90.8774 104.114 90.8774 106.007C90.8774 107.9 92.4159 109.44 94.3077 109.44ZM94.3077 104.227C95.2883 104.227 96.0873 105.026 96.0873 106.007C96.0873 106.988 95.2883 107.788 94.3077 107.788C93.3272 107.788 92.5282 106.988 92.5282 106.007C92.5282 105.026 93.3264 104.227 94.3077 104.227ZM73.3361 36.6714C71.9255 36.6714 70.7773 37.8202 70.7773 39.2316C70.7773 40.643 71.9255 41.7918 73.3361 41.7918C74.7467 41.7918 75.8948 40.643 75.8948 39.2316C75.8948 37.8202 74.7467 36.6714 73.3361 36.6714ZM73.3361 40.1393C72.8359 40.1393 72.4281 39.7321 72.4281 39.2308C72.4281 38.7295 72.835 38.3223 73.3361 38.3223C73.8371 38.3223 74.244 38.7295 74.244 39.2308C74.244 39.7321 73.8363 40.1393 73.3361 40.1393ZM145.664 36.6714C144.253 36.6714 143.105 37.8202 143.105 39.2316C143.105 40.643 144.253 41.7918 145.664 41.7918C147.075 41.7918 148.223 40.643 148.223 39.2316C148.223 37.8202 147.075 36.6714 145.664 36.6714ZM145.664 40.1393C145.164 40.1393 144.756 39.7321 144.756 39.2308C144.756 38.7295 145.163 38.3223 145.664 38.3223C146.165 38.3223 146.572 38.7295 146.572 39.2308C146.572 39.7321 146.165 40.1393 145.664 40.1393ZM73.3361 65.6446C71.9255 65.6446 70.7773 66.7933 70.7773 68.2048C70.7773 69.6162 71.9255 70.7649 73.3361 70.7649C74.7467 70.7649 75.8948 69.6162 75.8948 68.2048C75.8948 66.7933 74.7467 65.6446 73.3361 65.6446ZM73.3361 69.1124C72.8359 69.1124 72.4281 68.7052 72.4281 68.2039C72.4281 67.7026 72.835 67.2955 73.3361 67.2955C73.8371 67.2955 74.244 67.7026 74.244 68.2039C74.244 68.7052 73.8363 69.1124 73.3361 69.1124ZM145.664 65.6446C144.253 65.6446 143.105 66.7933 143.105 68.2048C143.105 69.6162 144.253 70.7649 145.664 70.7649C147.075 70.7649 148.223 69.6162 148.223 68.2048C148.223 66.7933 147.075 65.6446 145.664 65.6446ZM145.664 69.1124C145.164 69.1124 144.756 68.7052 144.756 68.2039C144.756 67.7026 145.163 67.2955 145.664 67.2955C146.165 67.2955 146.572 67.7026 146.572 68.2039C146.572 68.7052 146.165 69.1124 145.664 69.1124ZM84.0695 25.3463C81.8806 25.3463 80.0994 27.1277 80.0994 29.3187C80.0994 31.5098 81.8797 33.2912 84.0695 33.2912C86.2593 33.2912 88.0397 31.5089 88.0397 29.3187C88.0397 27.1285 86.2593 25.3463 84.0695 25.3463ZM84.0695 31.6386C82.791 31.6386 81.7502 30.5972 81.7502 29.3179C81.7502 28.0386 82.791 26.9972 84.0695 26.9972C85.3481 26.9972 86.3889 28.0395 86.3889 29.3187C86.3889 30.598 85.3481 31.6386 84.0695 31.6386ZM135.092 25.3463C132.904 25.3463 131.123 27.1277 131.123 29.3187C131.123 31.5098 132.903 33.2912 135.092 33.2912C137.281 33.2912 139.062 31.5098 139.062 29.3187C139.062 27.1277 137.281 25.3463 135.092 25.3463ZM135.092 31.6386C133.814 31.6386 132.774 30.5972 132.774 29.3179C132.774 28.0386 133.814 26.9972 135.092 26.9972C136.371 26.9972 137.412 28.0386 137.412 29.3179C137.412 30.5972 136.371 31.6386 135.092 31.6386ZM160.675 42.3394H150.77V39.4348C150.77 36.4295 148.326 33.9841 145.322 33.9841H143.341V23.8259C143.341 23.3692 142.972 23 142.516 23H127.344C126.888 23 126.519 23.3692 126.519 23.8259V33.9849H92.4811V23.8259C92.4811 23.3692 92.1122 23 91.6557 23H76.4841C76.0277 23 75.6587 23.3692 75.6587 23.8259V33.9849H73.6778C70.6742 33.9849 68.2302 36.4303 68.2302 39.4356V42.3402H58.3254C57.869 42.3402 57.5 42.7094 57.5 43.1661V64.9186C57.5 65.3753 57.869 65.7445 58.3254 65.7445H68.2302V68.6491C68.2302 71.6544 70.6742 74.0998 73.6778 74.0998H78.5476V82.7409C78.5476 83.1976 78.9166 83.5667 79.373 83.5667H87.2143C87.6707 83.5667 88.0397 83.1976 88.0397 82.7409V80.3665H91.5476V99.9132H89.1746C88.7182 99.9132 88.3492 100.282 88.3492 100.739V107.24C88.3492 107.412 88.4029 107.58 88.5027 107.72L92.2946 113.037C92.4498 113.254 92.6999 113.383 92.9665 113.383H93.4824V115.134C90.586 115.537 88.3492 118.031 88.3492 121.038C88.3492 124.325 91.0218 127 94.3077 127C97.5937 127 100.266 124.326 100.266 121.038C100.266 120.581 99.8973 120.212 99.4409 120.212C98.9844 120.212 98.6155 120.581 98.6155 121.038C98.6155 123.415 96.6832 125.348 94.3077 125.348C91.9323 125.348 90 123.415 90 121.038C90 118.661 91.9323 116.728 94.3077 116.728C94.7642 116.728 95.1331 116.359 95.1331 115.902V113.382H95.649C95.9156 113.382 96.1657 113.253 96.3209 113.036L100.113 107.719C100.212 107.579 100.266 107.411 100.266 107.239V100.738C100.266 100.281 99.8973 99.9123 99.4409 99.9123H97.0679V80.3648H99.3724V83.9524C99.3724 85.4753 100.61 86.7141 102.133 86.7141C103.655 86.7141 104.893 85.4753 104.893 83.9524V80.3648H107.196V83.9524C107.196 85.4753 108.434 86.7141 109.956 86.7141C111.478 86.7141 112.717 85.4753 112.717 83.9524V80.3648H115.021V83.9524C115.021 85.4753 116.259 86.7141 117.781 86.7141C119.303 86.7141 120.541 85.4753 120.541 83.9524V80.3648H122.846V83.9524C122.846 85.4753 124.084 86.7141 125.606 86.7141C127.128 86.7141 128.366 85.4753 128.366 83.9524V80.3648H130.96V82.7392C130.96 83.1959 131.329 83.5651 131.786 83.5651H139.627C140.083 83.5651 140.452 83.1959 140.452 82.7392V74.0982H145.322C148.326 74.0982 150.77 71.6528 150.77 68.6474V65.7428H160.675C161.131 65.7428 161.5 65.3737 161.5 64.917V43.1652C161.5 42.7085 161.131 42.3394 160.675 42.3394ZM98.6155 106.974L95.2248 111.73H93.3916L90.0008 106.974V101.563H98.6163L98.6155 106.974ZM128.17 24.6517H141.69V33.9849H128.17V24.6517ZM77.3095 24.6517H90.8304V33.9849H77.3095V24.6517ZM59.1508 64.0919V43.9911H68.2302V64.0919H59.1508ZM139.627 56.3114H131.786C131.329 56.3114 130.96 56.6806 130.96 57.1373V59.5117H128.364V55.9241C128.364 54.4012 127.126 53.1624 125.603 53.1624C124.081 53.1624 122.843 54.4012 122.843 55.9241V59.5117H120.539V55.9241C120.539 54.4012 119.301 53.1624 117.779 53.1624C116.257 53.1624 115.019 54.4012 115.019 55.9241V59.5117H112.714V55.9241C112.714 54.4012 111.476 53.1624 109.954 53.1624C108.432 53.1624 107.194 54.4012 107.194 55.9241V59.5117H104.89V55.9241C104.89 54.4012 103.652 53.1624 102.13 53.1624C100.608 53.1624 99.3699 54.4012 99.3699 55.9241V59.5117H97.0654V55.9241C97.0654 54.4012 95.8273 53.1624 94.3053 53.1624C92.7832 53.1624 91.5451 54.4012 91.5451 55.9241V59.5117H88.0397V57.1373C88.0397 56.6806 87.6707 56.3114 87.2143 56.3114H79.373C78.9166 56.3114 78.5476 56.6806 78.5476 57.1373V65.0144H77.3095V43.0694H141.69V65.0144H140.452V57.1373C140.452 56.6806 140.083 56.3114 139.627 56.3114ZM93.1984 55.9241C93.1984 55.3121 93.6961 54.8141 94.3077 54.8141C94.9194 54.8141 95.4171 55.3121 95.4171 55.9241V99.7488H93.1984V55.9241ZM86.3889 81.9133H80.1984V57.9632H86.3889V81.9133ZM88.0397 78.7131V61.1634H91.5476V78.7131H88.0397ZM97.0679 78.7131V61.1634H99.3724V78.7131H97.0679ZM103.241 83.9524C103.241 84.5644 102.743 85.0624 102.132 85.0624C101.52 85.0624 101.022 84.5644 101.022 83.9524V55.9241C101.022 55.3121 101.52 54.8141 102.132 54.8141C102.743 54.8141 103.241 55.3121 103.241 55.9241V83.9524ZM104.892 78.7131V61.1634H107.195V78.7131H104.892ZM111.065 83.9524C111.065 84.5644 110.567 85.0624 109.956 85.0624C109.344 85.0624 108.846 84.5644 108.846 83.9524V55.9241C108.846 55.3121 109.344 54.8141 109.956 54.8141C110.567 54.8141 111.065 55.3121 111.065 55.9241V83.9524ZM112.716 78.7131V61.1634H115.02V78.7131H112.716ZM118.889 83.9524C118.889 84.5644 118.391 85.0624 117.78 85.0624C117.168 85.0624 116.67 84.5644 116.67 83.9524V55.9241C116.67 55.3121 117.168 54.8141 117.78 54.8141C118.391 54.8141 118.889 55.3121 118.889 55.9241V83.9524ZM120.54 78.7131V61.1634H122.844V78.7131H120.54ZM126.713 83.9524C126.713 84.5644 126.215 85.0624 125.603 85.0624C124.992 85.0624 124.494 84.5644 124.494 83.9524V55.9241C124.494 55.3121 124.992 54.8141 125.603 54.8141C126.215 54.8141 126.713 55.3121 126.713 55.9241V83.9524ZM128.364 78.7131V61.1634H130.96V78.7131H128.364ZM138.802 81.9133H132.611V57.9632H138.802V81.9133ZM149.119 68.6482C149.119 70.7427 147.416 72.4472 145.322 72.4472H140.452V66.6662H142.516C142.972 66.6662 143.341 66.297 143.341 65.8403V42.2436C143.341 41.7869 142.972 41.4177 142.516 41.4177H76.4841C76.0277 41.4177 75.6587 41.7869 75.6587 42.2436V65.8403C75.6587 66.297 76.0277 66.6662 76.4841 66.6662H78.5476V72.4464H73.6778C71.5846 72.4464 69.881 70.7426 69.881 68.6474V39.4356C69.881 37.3412 71.5837 35.6366 73.6778 35.6366H76.4841H142.516H145.322C147.415 35.6366 149.119 37.3404 149.119 39.4356V68.6482ZM159.849 64.0919H150.77V43.9911H159.849V64.0919ZM63.6905 50.5072C61.7434 50.5072 60.1586 52.0929 60.1586 54.0419C60.1586 55.9902 61.7434 57.5758 63.6905 57.5758C65.6376 57.5758 67.2223 55.9902 67.2223 54.0419C67.2223 52.0929 65.6376 50.5072 63.6905 50.5072ZM63.6905 55.9241C62.653 55.9241 61.8094 55.08 61.8094 54.0419C61.8094 53.003 62.653 52.159 63.6905 52.159C64.728 52.159 65.5716 53.003 65.5716 54.0419C65.5716 55.08 64.728 55.9241 63.6905 55.9241ZM155.31 57.6039C157.257 57.6039 158.841 56.0182 158.841 54.0692C158.841 52.121 157.257 50.5353 155.31 50.5353C153.362 50.5353 151.778 52.121 151.778 54.0692C151.778 56.0182 153.362 57.6039 155.31 57.6039ZM155.31 52.1862C156.347 52.1862 157.191 53.0302 157.191 54.0684C157.191 55.1073 156.347 55.9513 155.31 55.9513C154.272 55.9513 153.428 55.1073 153.428 54.0684C153.428 53.0302 154.272 52.1862 155.31 52.1862Z" stroke="#343941" stroke-width="1.5"/>
</svg>
