<svg width="100%" height="100%" viewBox="0 0 219 150" fill="none" xmlns="http://www.w3.org/2000/svg">
<path d="M173.843 51.875L173.24 51.2718H163.99V50.6685L163.387 50.0652H162.784V44.4348H165.8L166.403 44.2337L166.604 43.6304V38.4023L166.202 38H145.693L145.492 38.2011L145.291 38.8044V43.4294L145.492 44.0327L145.894 44.4348H149.111V54.6902H136.846L135.639 54.8913L135.438 55.0924L135.237 55.6956V62.5326L115.934 62.3316L115.532 61.9293L114.728 61.7283H90.3982L89.7949 61.125L89.5939 60.5218L87.7842 58.7119H86.3768L86.7788 56.0979L87.181 55.6956V52.4783L86.5778 51.875H70.4921L69.8889 52.0761L69.6877 52.2772L69.4867 52.8805V55.4946L69.6877 56.0979H70.2909V59.1142H41.7388L41.5376 59.3152L40.9343 59.5163L40.5323 59.9185L39.9291 60.1196L39.5269 60.5218L38.9236 60.7228L38.3204 61.3262L37.7174 61.5272L37.3152 61.9293L36.7119 62.1305L36.1087 62.7337L35.5055 62.9348L35.3044 63.538V80.6305L35.5055 81.2337L35.9077 81.6359L36.5107 81.837L37.1141 82.4402L37.7174 82.6414L38.1194 83.0435L38.7226 83.2445L39.1249 83.6468L39.7281 83.8478L40.3311 84.4511L40.9343 84.6522L41.3366 85.0544L41.9398 85.2554H52.5966V110.794L52.7978 111.598L52.9988 111.799L53.6018 112H175.25L175.854 111.397V96.5163L175.452 96.1141H174.647V95.9131H171.43V94.1032H175.25L175.854 93.9022L176.055 93.2989V90.8858H180.076L180.68 90.6848L180.881 90.4837L181.082 89.8804V76.4077H183.696L184.299 76.2066L184.5 76.0054V69.1685L184.098 68.7663H181.082V54.8913L180.479 54.2881L179.674 54.0869H176.055V51.875H173.843ZM34.5 78.4185L34.7012 63.9402L39.3259 60.5218V82.2391C38.3205 82.038 34.5 79.424 34.5 78.4185ZM178.267 71.7826H180.076V74.1957H178.267V71.7826ZM163.186 53.8859H171.028V55.2935H163.186V53.8859ZM147.704 41.2174V39.8098H163.789V41.2174H147.704ZM151.524 52.4783V43.0272H159.768V50.2664H156.551C155.948 50.2664 155.747 50.4674 155.747 51.0707V52.2772H151.524V52.4783ZM155.545 54.0869V91.6902H151.524V54.0869H155.545ZM157.355 52.0761H161.176V93.7011H157.355V52.0761ZM149.513 57.1033V68.7663H140.666V64.1413C140.666 63.5381 140.264 62.9348 139.46 62.9348H137.047V57.1033H149.513ZM140.867 75.2011V70.5761H149.715V75.2011H140.867ZM149.715 77.4131V88.875H137.449V83.2445H139.862C140.465 83.2445 141.068 82.8423 141.068 82.038V77.4131H149.715ZM114.326 64.7446H138.656V81.2337H114.326V64.7446ZM135.036 91.0869L135.237 91.2881V99.5326H115.532V84.0489H134.634V90.8858L135.036 91.0869ZM91.8056 63.9402H112.717V100.538H91.8056V63.9402ZM89.1917 69.9729H89.996V72.9891H89.1917V69.9729ZM85.3715 60.9239C85.9747 61.3261 87.3822 62.5327 87.3822 63.337V79.8261C87.3822 80.6305 85.9747 81.8369 85.3715 82.2391V60.9239ZM84.9693 86.462L85.5725 86.2608L87.7842 84.0489L87.9852 100.739H82.1541V87.4674H84.9693V86.462ZM70.6931 53.4838H81.3499V57.5055H70.6931V53.4838ZM47.7709 83.4457H41.3366V59.3152H47.7709V83.4457ZM49.7816 83.4457V59.3152H83.5618V83.4457H49.7816ZM80.3446 110.592H52.9988V85.6577H80.3446V110.592ZM151.725 110.592H82.3554V102.75H151.725V110.592ZM151.725 99.1305V100.337H137.851V93.9022H155.545V94.7066C155.545 95.3099 155.747 95.5109 156.35 95.5109H162.181C163.186 95.5109 162.985 94.9076 162.985 94.1032H166.001V97.9239H152.73C152.127 97.9239 151.725 98.3261 151.725 99.1305ZM171.229 99.7337V110.592H153.937V99.7337H171.229ZM171.229 92.2935H163.387V90.8858H171.229V92.2935ZM176.055 57.1033V88.875H163.186V57.1033H176.055Z" stroke="#343941" stroke-width="1.5"/>
</svg>
