<svg width="378" height="221" viewBox="0 0 378 221" fill="none" xmlns="http://www.w3.org/2000/svg">
	<g style="mix-blend-mode:hard-light" filter="url(#filter0_f_5081_6351)">
		<path
			d="M102.668 161C125.864 161 144.668 142.196 144.668 119C144.668 95.8042 125.864 77.0001 102.668 77.0001C79.472 77.0001 60.668 95.8042 60.668 119C60.668 142.196 79.472 161 102.668 161Z"
			fill="#6BBCFF"/>
	</g>
	<g filter="url(#filter1_f_5081_6351)">
		<path d="M133.543 40.7277H57.7344V108.113H133.543V40.7277Z" fill="#FF7F00"/>
	</g>
	<path
		d="M135.298 126H71.078V108.19L99.028 84.27C101.541 82.1033 103.665 80.1533 105.398 78.42C107.131 76.6 108.518 74.8667 109.558 73.22C110.685 71.4867 111.465 69.7967 111.898 68.15C112.418 66.5033 112.678 64.7267 112.678 62.82V61C112.678 59.2667 112.331 57.75 111.638 56.45C110.945 55.15 110.035 54.0667 108.908 53.2C107.781 52.3333 106.481 51.6833 105.008 51.25C103.621 50.8167 102.191 50.6 100.718 50.6C98.5513 50.6 96.6446 50.9467 94.998 51.64C93.438 52.3333 92.0513 53.2867 90.838 54.5C89.7113 55.6267 88.758 56.97 87.978 58.53C87.198 60.0033 86.5913 61.6067 86.158 63.34L69.128 56.84C70.168 53.72 71.598 50.7733 73.418 48C75.238 45.14 77.4913 42.67 80.178 40.59C82.9513 38.4233 86.2013 36.7333 89.928 35.52C93.6546 34.3067 97.858 33.7 102.538 33.7C107.478 33.7 111.855 34.3933 115.668 35.78C119.481 37.1667 122.688 39.0733 125.288 41.5C127.975 43.9267 130.011 46.83 131.398 50.21C132.785 53.5033 133.478 57.1 133.478 61C133.478 64.9 132.828 68.4533 131.528 71.66C130.228 74.8667 128.451 77.9 126.198 80.76C124.031 83.5333 121.475 86.1767 118.528 88.69C115.581 91.2033 112.505 93.76 109.298 96.36L92.398 109.62H135.298V126Z"
		fill="white"/>
	<path
		d="M215.197 111.7L204.797 101.3L212.597 93.5L218.317 88.56L218.187 88.04L207.787 88.56H153.967V72.7H207.787L218.187 73.22L218.317 72.7L212.597 67.76L204.797 59.96L215.197 49.56L246.267 80.63L215.197 111.7Z"
		fill="#454545"/>
	<defs>
		<filter id="filter0_f_5081_6351" x="0.667969" y="17.0001" width="204" height="204" filterUnits="userSpaceOnUse"
				color-interpolation-filters="sRGB">
			<feFlood flood-opacity="0" result="BackgroundImageFix"/>
			<feBlend mode="normal" in="SourceGraphic" in2="BackgroundImageFix" result="shape"/>
			<feGaussianBlur stdDeviation="30" result="effect1_foregroundBlur_5081_6351"/>
		</filter>
		<filter id="filter1_f_5081_6351" x="17.7344" y="0.727661" width="155.809" height="147.386"
				filterUnits="userSpaceOnUse" color-interpolation-filters="sRGB">
			<feFlood flood-opacity="0" result="BackgroundImageFix"/>
			<feBlend mode="normal" in="SourceGraphic" in2="BackgroundImageFix" result="shape"/>
			<feGaussianBlur stdDeviation="20" result="effect1_foregroundBlur_5081_6351"/>
		</filter>
	</defs>
</svg>
