<svg width="60" height="60" viewBox="0 0 60 60" fill="none" xmlns="http://www.w3.org/2000/svg">
<g clip-path="url(#clip0_4914_5380)">
<path d="M25.5 0.00274658L18 33.0027H31.2L28.35 60.0027L46.8 24.0027H31.65L39.75 0.00274658H25.5Z" fill="#FF7F00"/>
<path d="M38.4864 40.7022L46.2994 18.9028L54.5966 18.9028L42.8221 46.5028L37.562 46.5028L38.4864 40.7022ZM31.3466 18.9028L39.1816 40.7022L40.194 46.5028L34.8679 46.5028L23.0273 18.9028L31.3466 18.9028ZM30.1466 28.8028L30.1467 23.6657L46.587 23.6657V28.8028L30.1466 28.8028Z" fill="#7E7E7E"/>
<path d="M30.8984 18.9028V46.5028H24.5323L24.5323 24.7528H11.7465L11.7465 46.5028H5.39844V18.9028H30.8984Z" fill="#D8D8D8"/>
</g>
<defs>
<clipPath id="clip0_4914_5380">
<rect width="60" height="60" fill="white" transform="translate(0 0.00274658)"/>
</clipPath>
</defs>
</svg>
