<svg width="100" height="118" viewBox="0 0 100 118" fill="none" xmlns="http://www.w3.org/2000/svg">
	<g filter="url(#filter0_f_4276_3878)">
		<path
			d="M50.4995 102C66.7919 102 79.9995 88.7924 79.9995 72.5C79.9995 56.2076 66.7919 43 50.4995 43C34.2071 43 20.9995 56.2076 20.9995 72.5C20.9995 88.7924 34.2071 102 50.4995 102Z"
			fill="#6BBCFF"/>
	</g>
	<g filter="url(#filter1_f_4276_3878)">
		<path
			d="M78.6562 80H21.3428C20.6009 80 19.9995 79.3986 19.9995 78.6567V21.3433C19.9995 20.6014 20.6009 20 21.3428 20H78.6562C79.3981 20 79.9995 20.6014 79.9995 21.3433V78.6567C79.9995 79.3986 79.3981 80 78.6562 80Z"
			fill="#FF7F00"/>
	</g>
	<path
		d="M92.5386 38.9691C92.0041 38.9691 91.572 38.536 91.572 38.0025V8.43326H61.8133C61.2788 8.43326 60.8467 8.00021 60.8467 7.46663C60.8467 6.93305 61.2788 6.5 61.8133 6.5H92.5386C93.0732 6.5 93.5052 6.93305 93.5052 7.46663V38.0025C93.5052 38.537 93.0732 38.9691 92.5386 38.9691Z"
		fill="#071123"/>
	<path
		d="M47.7746 93.4967H7.46126C6.92768 93.4967 6.49463 93.0646 6.49463 92.5301V7.46663C6.49463 6.93305 6.92768 6.5 7.46126 6.5H28.5212C29.0548 6.5 29.4879 6.93305 29.4879 7.46663C29.4879 8.00021 29.0548 8.43326 28.5212 8.43326H8.42789V91.5635H47.7746C48.3082 91.5635 48.7412 91.9956 48.7412 92.5301C48.7412 93.0646 48.3082 93.4967 47.7746 93.4967Z"
		fill="#071123"/>
	<path
		d="M61.8104 32.0451C61.6065 32.0451 61.4044 31.9813 61.2343 31.8547L50.004 23.5166L38.7747 31.8547C38.4818 32.0741 38.0903 32.107 37.7645 31.9427C37.4378 31.7783 37.2319 31.4439 37.2319 31.0785V7.46663C37.2319 6.93305 37.665 6.5 38.1986 6.5H50.004C50.5376 6.5 50.9706 6.93305 50.9706 7.46663C50.9706 8.00021 50.5376 8.43326 50.004 8.43326H39.1652V29.1568L49.4279 21.5369C49.7701 21.2827 50.2379 21.2827 50.5801 21.5369L60.8438 29.1568V7.46663C60.8438 6.93305 61.2759 6.5 61.8104 6.5C62.345 6.5 62.7771 6.93305 62.7771 7.46663V31.0785C62.7771 31.4439 62.5712 31.7783 62.2444 31.9427C62.1072 32.0113 61.9583 32.0451 61.8104 32.0451Z"
		fill="#071123"/>
	<path
		d="M36.063 72.7692H20.0189C19.4853 72.7692 19.0522 72.3371 19.0522 71.8026C19.0522 71.268 19.4853 70.8359 20.0189 70.8359H36.063C36.5966 70.8359 37.0296 71.268 37.0296 71.8026C37.0296 72.3371 36.5966 72.7692 36.063 72.7692Z"
		fill="#071123"/>
	<path
		d="M36.063 81.5326H20.0189C19.4853 81.5326 19.0522 81.1005 19.0522 80.566C19.0522 80.0314 19.4853 79.5994 20.0189 79.5994H36.063C36.5966 79.5994 37.0296 80.0314 37.0296 80.566C37.0296 81.1005 36.5966 81.5326 36.063 81.5326Z"
		fill="#071123"/>
	<path
		d="M92.5269 93.5H57.7581C57.2236 93.5 56.7915 93.0679 56.7915 92.5334V46.7576C56.7915 46.2241 57.2236 45.791 57.7581 45.791H92.5269C93.0614 45.791 93.4935 46.2241 93.4935 46.7576V92.5334C93.4935 93.0679 93.0614 93.5 92.5269 93.5ZM58.7248 91.5667H91.5602V47.7243H58.7248V91.5667Z"
		fill="#071123"/>
	<path
		d="M86.1876 64.1264H64.0682C63.5336 64.1264 63.1016 63.6943 63.1016 63.1598V53.4229C63.1016 52.8884 63.5336 52.4563 64.0682 52.4563H86.1876C86.7221 52.4563 87.1542 52.8884 87.1542 53.4229V63.1598C87.1542 63.6943 86.7221 64.1264 86.1876 64.1264ZM65.0348 62.1932H85.221V54.3896H65.0348V62.1932Z"
		fill="#071123"/>
	<path
		d="M66.9765 71.6816H64.0902C63.5556 71.6816 63.1235 71.2495 63.1235 70.7149C63.1235 70.1804 63.5556 69.7483 64.0902 69.7483H66.9765C67.5111 69.7483 67.9432 70.1804 67.9432 70.7149C67.9432 71.2495 67.5101 71.6816 66.9765 71.6816Z"
		fill="#071123"/>
	<path
		d="M86.1982 71.6816H83.3118C82.7773 71.6816 82.3452 71.2495 82.3452 70.7149C82.3452 70.1804 82.7773 69.7483 83.3118 69.7483H86.1982C86.7327 69.7483 87.1648 70.1804 87.1648 70.7149C87.1648 71.2495 86.7327 71.6816 86.1982 71.6816Z"
		fill="#071123"/>
	<path
		d="M76.5849 71.6816H73.6986C73.164 71.6816 72.7319 71.2495 72.7319 70.7149C72.7319 70.1804 73.164 69.7483 73.6986 69.7483H76.5849C77.1195 69.7483 77.5515 70.1804 77.5515 70.7149C77.5515 71.2495 77.1195 71.6816 76.5849 71.6816Z"
		fill="#071123"/>
	<path
		d="M66.9765 78.7343H64.0902C63.5556 78.7343 63.1235 78.3022 63.1235 77.7677C63.1235 77.2331 63.5556 76.801 64.0902 76.801H66.9765C67.5111 76.801 67.9432 77.2331 67.9432 77.7677C67.9432 78.3022 67.5101 78.7343 66.9765 78.7343Z"
		fill="#071123"/>
	<path
		d="M86.1982 78.734H83.3118C82.7773 78.734 82.3452 78.302 82.3452 77.7674C82.3452 77.2329 82.7773 76.8008 83.3118 76.8008H86.1982C86.7327 76.8008 87.1648 77.2329 87.1648 77.7674C87.1648 78.302 86.7327 78.734 86.1982 78.734Z"
		fill="#071123"/>
	<path
		d="M76.5849 78.7343H73.6986C73.164 78.7343 72.7319 78.3022 72.7319 77.7677C72.7319 77.2331 73.164 76.801 73.6986 76.801H76.5849C77.1195 76.801 77.5515 77.2331 77.5515 77.7677C77.5515 78.3022 77.1195 78.7343 76.5849 78.7343Z"
		fill="#071123"/>
	<path
		d="M66.9765 85.786H64.0902C63.5556 85.786 63.1235 85.354 63.1235 84.8194C63.1235 84.2849 63.5556 83.8528 64.0902 83.8528H66.9765C67.5111 83.8528 67.9432 84.2849 67.9432 84.8194C67.9432 85.354 67.5101 85.786 66.9765 85.786Z"
		fill="#071123"/>
	<path
		d="M86.1982 85.7858H83.3118C82.7773 85.7858 82.3452 85.3537 82.3452 84.8192C82.3452 84.2846 82.7773 83.8525 83.3118 83.8525H86.1982C86.7327 83.8525 87.1648 84.2846 87.1648 84.8192C87.1648 85.3537 86.7327 85.7858 86.1982 85.7858Z"
		fill="#071123"/>
	<path
		d="M76.5849 85.786H73.6986C73.164 85.786 72.7319 85.354 72.7319 84.8194C72.7319 84.2849 73.164 83.8528 73.6986 83.8528H76.5849C77.1195 83.8528 77.5515 84.2849 77.5515 84.8194C77.5515 85.354 77.1195 85.786 76.5849 85.786Z"
		fill="#071123"/>
	<defs>
		<filter id="filter0_f_4276_3878" x="4.99951" y="27" width="91" height="91" filterUnits="userSpaceOnUse"
				color-interpolation-filters="sRGB">
			<feFlood flood-opacity="0" result="BackgroundImageFix"/>
			<feBlend mode="normal" in="SourceGraphic" in2="BackgroundImageFix" result="shape"/>
			<feGaussianBlur stdDeviation="8" result="effect1_foregroundBlur_4276_3878"/>
		</filter>
		<filter id="filter1_f_4276_3878" x="3.99951" y="4" width="92" height="92" filterUnits="userSpaceOnUse"
				color-interpolation-filters="sRGB">
			<feFlood flood-opacity="0" result="BackgroundImageFix"/>
			<feBlend mode="normal" in="SourceGraphic" in2="BackgroundImageFix" result="shape"/>
			<feGaussianBlur stdDeviation="8" result="effect1_foregroundBlur_4276_3878"/>
		</filter>
	</defs>
</svg>
