<svg width="116" height="120" viewBox="0 0 116 120" fill="none" xmlns="http://www.w3.org/2000/svg">
	<g filter="url(#filter0_f_4276_3837)">
		<path
			d="M55.9998 104C76.4343 104 92.9998 87.4345 92.9998 67C92.9998 46.5655 76.4343 30 55.9998 30C35.5652 30 18.9998 46.5655 18.9998 67C18.9998 87.4345 35.5652 104 55.9998 104Z"
			fill="#6BBCFF"/>
	</g>
	<g filter="url(#filter1_f_4276_3837)">
		<path d="M18.7949 23.8413L27.2871 70.1211H90.7893L99.2815 23.8413H41.2977H18.7949Z" fill="#FF7F00"/>
	</g>
	<path
		d="M90.7326 71.9931H27.8144C27.2924 71.9931 26.8397 71.6321 26.7245 71.1234L16.951 28.1972C15.9617 23.8499 12.1564 20.8148 7.69838 20.8148H1.81391C1.19685 20.8148 0.696045 20.314 0.696045 19.697C0.696045 19.0799 1.19685 18.5791 1.81391 18.5791H7.69838C13.2061 18.5791 17.9079 22.3296 19.1308 27.7009L28.7054 69.7585H89.8394L98.7846 30.4721H44.1946C43.5775 30.4721 43.0767 29.9713 43.0767 29.3542C43.0767 28.7372 43.5775 28.2364 44.1946 28.2364H100.186C100.527 28.2364 100.848 28.3918 101.059 28.6567C101.272 28.9227 101.352 29.2704 101.275 29.6024L91.8214 71.1234C91.7063 71.6321 91.2546 71.9931 90.7326 71.9931Z"
		fill="#071123"/>
	<path
		d="M22.4128 87.4111C17.5456 87.4111 13.585 83.4516 13.585 78.5844C13.585 73.7172 17.5445 69.7566 22.4128 69.7566H90.6497C91.2679 69.7566 91.7676 70.2563 91.7676 70.8745C91.7676 71.4926 91.2679 71.9923 90.6497 71.9923H22.4128C18.7786 71.9923 15.8207 74.9502 15.8207 78.5844C15.8207 82.2186 18.7786 85.1754 22.4128 85.1754C23.0298 85.1754 23.5306 85.6751 23.5306 86.2932C23.5306 86.9114 23.0298 87.4111 22.4128 87.4111Z"
		fill="#071123"/>
	<path
		d="M82.7753 94.4998C78.2501 94.4998 74.5679 90.8175 74.5679 86.2913C74.5679 81.765 78.2501 78.0828 82.7753 78.0828C87.3015 78.0828 90.9838 81.765 90.9838 86.2913C90.9838 90.8175 87.3015 94.4998 82.7753 94.4998ZM82.7753 80.3185C79.4831 80.3185 76.8036 82.9969 76.8036 86.2913C76.8036 89.5856 79.482 92.264 82.7753 92.264C86.0685 92.264 88.748 89.5856 88.748 86.2913C88.748 82.9969 86.0685 80.3185 82.7753 80.3185Z"
		fill="#071123"/>
	<path
		d="M38.6478 94.4991C34.1227 94.4991 30.4404 90.8168 30.4404 86.2905C30.4404 81.7643 34.1227 78.082 38.6478 78.082C43.1741 78.082 46.8563 81.7643 46.8563 86.2905C46.8563 90.8168 43.1741 94.4991 38.6478 94.4991ZM38.6478 80.3178C35.3546 80.3178 32.6762 82.9962 32.6762 86.2905C32.6762 89.5849 35.3546 92.2633 38.6478 92.2633C41.9411 92.2633 44.6206 89.5849 44.6206 86.2905C44.6206 82.9962 41.9411 80.3178 38.6478 80.3178Z"
		fill="#071123"/>
	<path
		d="M65.6151 87.4149H45.736C45.119 87.4149 44.6182 86.9152 44.6182 86.2971C44.6182 85.6789 45.119 85.1792 45.736 85.1792H65.6151C66.2333 85.1792 66.733 85.6789 66.733 86.2971C66.733 86.9152 66.2333 87.4149 65.6151 87.4149Z"
		fill="#071123"/>
	<path
		d="M90.6589 30.4664H61.0913C60.4731 30.4664 59.9734 29.9655 59.9734 29.3485V13.904C59.9734 13.2869 60.4731 12.7861 61.0913 12.7861H90.6589C91.2771 12.7861 91.7768 13.2869 91.7768 13.904V29.3485C91.7768 29.9667 91.2771 30.4664 90.6589 30.4664ZM62.2091 28.2306H89.541V15.0219H62.2091V28.2306Z"
		fill="#071123"/>
	<path
		d="M31.7915 30.4698C31.1744 30.4698 30.6736 29.969 30.6736 29.352V6.61787C30.6736 6.00081 31.1744 5.5 31.7915 5.5H70.5871C71.2053 5.5 71.705 6.00081 71.705 6.61787V13.9075C71.705 14.5246 71.2053 15.0254 70.5871 15.0254C69.9689 15.0254 69.4692 14.5246 69.4692 13.9075V7.73574H32.9093V29.352C32.9093 29.9702 32.4085 30.4698 31.7915 30.4698Z"
		fill="#071123"/>
	<g filter="url(#filter2_f_4276_3837)">
		<path d="M86.1813 18.3816H65.5566V24.8831H86.1813V18.3816Z" fill="#FF7F00"/>
	</g>
	<defs>
		<filter id="filter0_f_4276_3837" x="2.99976" y="14" width="106" height="106" filterUnits="userSpaceOnUse"
				color-interpolation-filters="sRGB">
			<feFlood flood-opacity="0" result="BackgroundImageFix"/>
			<feBlend mode="normal" in="SourceGraphic" in2="BackgroundImageFix" result="shape"/>
			<feGaussianBlur stdDeviation="8" result="effect1_foregroundBlur_4276_3837"/>
		</filter>
		<filter id="filter1_f_4276_3837" x="2.79492" y="7.84131" width="112.486" height="78.2798"
				filterUnits="userSpaceOnUse" color-interpolation-filters="sRGB">
			<feFlood flood-opacity="0" result="BackgroundImageFix"/>
			<feBlend mode="normal" in="SourceGraphic" in2="BackgroundImageFix" result="shape"/>
			<feGaussianBlur stdDeviation="8" result="effect1_foregroundBlur_4276_3837"/>
		</filter>
		<filter id="filter2_f_4276_3837" x="49.5566" y="2.38159" width="52.6245" height="38.5015"
				filterUnits="userSpaceOnUse" color-interpolation-filters="sRGB">
			<feFlood flood-opacity="0" result="BackgroundImageFix"/>
			<feBlend mode="normal" in="SourceGraphic" in2="BackgroundImageFix" result="shape"/>
			<feGaussianBlur stdDeviation="8" result="effect1_foregroundBlur_4276_3837"/>
		</filter>
	</defs>
</svg>
