<svg width="106" height="122" viewBox="0 0 106 122" fill="none" xmlns="http://www.w3.org/2000/svg">
	<g filter="url(#filter0_f_4276_3672)">
		<path
			d="M53.0005 106C73.435 106 90.0005 89.4345 90.0005 69C90.0005 48.5655 73.435 32 53.0005 32C32.566 32 16.0005 48.5655 16.0005 69C16.0005 89.4345 32.566 106 53.0005 106Z"
			fill="#6BBCFF"/>
	</g>
	<g filter="url(#filter1_f_4276_3672)">
		<path
			d="M51.0091 81.6016C69.5348 81.6016 84.5528 67.0253 84.5528 49.0445C84.5528 31.0636 69.5348 16.4873 51.0091 16.4873C32.4834 16.4873 17.4653 31.0636 17.4653 49.0445C17.4653 67.0253 32.4834 81.6016 51.0091 81.6016Z"
			fill="#FF7F00"/>
	</g>
	<path
		d="M65.6333 53.7025C65.471 53.7025 65.3086 53.6631 65.1593 53.5835C64.8306 53.409 64.6248 53.0661 64.6248 52.694V45.8634H59.1789C58.6212 45.8634 58.1704 45.4116 58.1704 44.8549V20.6457C58.1704 20.089 58.6212 19.6372 59.1789 19.6372H95.3762C95.9339 19.6372 96.3847 20.089 96.3847 20.6457V44.8549C96.3847 45.4116 95.9339 45.8634 95.3762 45.8634H77.5851L66.1961 53.531C66.0267 53.645 65.83 53.7015 65.6333 53.7025ZM60.1864 43.8464H65.6323C66.19 43.8464 66.6408 44.2982 66.6408 44.8549V50.8L76.7128 44.0188C76.8792 43.9069 77.0748 43.8474 77.2765 43.8474H94.3676V21.6542H60.1864V43.8464Z"
		fill="#071123"/>
	<path
		d="M70.2388 96.9998H32.0256C31.4689 96.9998 31.0171 96.549 31.0171 95.9913V70.4338C31.0171 69.8761 31.4689 69.4253 32.0256 69.4253H70.2388C70.7965 69.4253 71.2473 69.8761 71.2473 70.4338V95.9913C71.2473 96.549 70.7965 96.9998 70.2388 96.9998ZM33.0341 94.9828H69.2303V71.4423H33.0341V94.9828Z"
		fill="#071123"/>
	<path
		d="M51.1179 88.5876C50.8768 88.5876 50.6358 88.5019 50.4442 88.3295L37.616 76.8164C37.2015 76.4442 37.1672 75.8069 37.5394 75.3924C37.9095 74.9789 38.5479 74.9416 38.9634 75.3157L51.1179 86.2237L63.2724 75.3157C63.6859 74.9436 64.3242 74.9769 64.6964 75.3924C65.0685 75.8069 65.0342 76.4442 64.6197 76.8164L51.7916 88.3295C51.5999 88.5019 51.3589 88.5876 51.1179 88.5876Z"
		fill="#071123"/>
	<path
		d="M33.3713 53.7073C27.6062 53.7073 21.104 50.3516 15.0564 44.2589C8.91008 38.1577 5.55443 31.599 5.61657 25.7944C5.65047 22.4783 6.81703 19.5632 8.89595 17.5832C9.00611 17.473 9.1417 17.3516 9.2801 17.2386C9.41286 17.1256 9.55127 17.0239 9.6925 16.9251C9.88175 16.7923 10.0145 16.7132 10.1501 16.6341C10.1557 16.6313 10.2433 16.5776 10.2489 16.5776C10.3789 16.507 10.5088 16.4449 10.6387 16.3827L10.78 16.3178C10.9014 16.2669 11.0257 16.2189 11.1528 16.1737L11.311 16.12C11.4325 16.0805 11.5596 16.0466 11.6867 16.0127L11.8646 15.9675C11.9917 15.9449 12.1075 15.9251 12.2262 15.9054L12.4352 15.8771C12.5482 15.863 12.664 15.8517 12.7798 15.8432L13.1978 15.8291L13.3391 15.8319C13.4182 15.8319 13.5001 15.8348 13.582 15.8404C13.6893 15.8489 13.7938 15.8545 13.8984 15.8686C13.9859 15.8771 14.0678 15.8912 14.1526 15.9054C14.2486 15.9195 14.3475 15.9364 14.4492 15.959L14.6921 16.0184C14.8418 16.0579 14.9209 16.0777 15.0028 16.1031C15.0903 16.1313 15.1723 16.1596 15.2542 16.1907C15.3982 16.2415 15.4717 16.2697 15.5451 16.3008C15.6327 16.3375 15.7231 16.3799 15.8106 16.4223C15.9377 16.4788 15.9999 16.5098 16.062 16.5409C16.1496 16.5861 16.2315 16.6369 16.3162 16.6878L16.4094 16.7443L16.562 16.8375C16.6637 16.9053 16.754 16.9731 16.8416 17.0437C16.8501 17.0493 17.0337 17.1877 17.0422 17.1934C17.2003 17.3262 17.35 17.4589 17.4941 17.6001L20.7452 20.8513C20.8921 20.9982 21.0277 21.1507 21.1548 21.306C21.183 21.3399 21.2169 21.3851 21.2508 21.4303C21.3695 21.5885 21.4429 21.6845 21.5079 21.7834C21.5389 21.8286 21.5728 21.8879 21.6067 21.9444L21.6632 22.0404C21.7141 22.1224 21.7621 22.2043 21.8073 22.289C21.8384 22.3483 21.8723 22.4189 21.9062 22.4896C21.9796 22.6449 22.0191 22.7268 22.0559 22.8116C22.0841 22.8822 22.1095 22.9528 22.1349 23.0234L22.1717 23.1251C22.1999 23.1985 22.2253 23.2748 22.2479 23.3482C22.2733 23.4302 22.2959 23.5177 22.3185 23.6053C22.3553 23.7409 22.375 23.82 22.392 23.899C22.4118 23.9979 22.4287 24.0968 22.4457 24.1956C22.4598 24.2832 22.4711 24.3651 22.4824 24.4498C22.4937 24.5572 22.5021 24.6645 22.5106 24.769C22.5163 24.8481 22.5191 24.93 22.5219 25.0119C22.5219 25.1249 22.5219 25.2351 22.5191 25.3452L22.5078 25.5656C22.5021 25.6842 22.4908 25.8 22.4767 25.9158L22.4457 26.1248C22.4287 26.2435 22.4061 26.3621 22.3779 26.4836L22.3327 26.6728C22.3044 26.7886 22.2705 26.9129 22.231 27.0344C22.2282 27.0457 22.1914 27.1502 22.1858 27.1643C22.1293 27.3281 22.0813 27.4552 22.0276 27.5823C22.022 27.5908 21.9852 27.6727 21.9796 27.6812C21.9062 27.8422 21.844 27.9721 21.7734 28.0992C21.7677 28.1134 21.731 28.1755 21.7225 28.1868C21.635 28.3365 21.5559 28.4693 21.4683 28.5992C21.3215 28.8054 21.2198 28.941 21.1096 29.0737C20.9966 29.2093 20.8752 29.3449 20.7452 29.4748L18.751 31.469L27.852 40.5699L29.849 38.5729C29.9789 38.443 30.1145 38.3244 30.2501 38.2086C30.3828 38.0984 30.5212 37.9967 30.6596 37.8979C30.8489 37.7651 30.9845 37.6832 31.1172 37.6069C31.1229 37.6041 31.2161 37.5476 31.2246 37.5448C31.3489 37.477 31.4788 37.4148 31.6087 37.3555L31.733 37.2962C31.8686 37.2397 31.9957 37.1917 32.1228 37.1465L32.281 37.0928C32.4053 37.0533 32.5324 37.0194 32.6566 36.9855L32.8459 36.9403C32.9561 36.9149 33.0775 36.8951 33.1962 36.8753L33.3967 36.8471C33.521 36.833 33.6368 36.8217 33.7526 36.8132L34.1706 36.7991L34.5435 36.8132C34.6593 36.8217 34.7638 36.8302 34.8683 36.8414C34.9559 36.8499 35.0378 36.864 35.1225 36.8782C35.2214 36.8923 35.3203 36.9092 35.4191 36.929C35.5152 36.9488 35.5971 36.9714 35.6818 36.994C35.7976 37.0222 35.888 37.0476 35.9756 37.0759C36.0631 37.1041 36.1507 37.1352 36.2411 37.1691C36.3682 37.2143 36.4388 37.2397 36.5123 37.2708C36.6026 37.3075 36.6902 37.3499 36.7806 37.3922C36.9021 37.4487 36.9698 37.4826 37.032 37.5165C37.1167 37.5617 37.1986 37.6097 37.2806 37.6606L37.3766 37.7171L37.5348 37.8159C37.6308 37.8809 37.7268 37.9515 37.8201 38.025C37.8285 38.0334 38.0065 38.1662 38.015 38.1718C38.1675 38.299 38.3172 38.4317 38.4612 38.5758L41.7124 41.8269C41.8564 41.971 41.992 42.1235 42.1191 42.276C42.153 42.3184 42.1869 42.3636 42.218 42.406C42.3366 42.5613 42.4072 42.6573 42.4722 42.7534C42.5061 42.8014 42.54 42.8579 42.5739 42.9172L42.636 43.0217C42.684 43.1008 42.7292 43.1771 42.7716 43.259C42.8027 43.3183 42.8338 43.3804 42.862 43.4426C42.9411 43.6092 42.9835 43.694 43.0174 43.7815C43.0484 43.855 43.0767 43.9312 43.1021 44.0047C43.1558 44.1487 43.184 44.2307 43.2094 44.3126C43.2377 44.4058 43.2603 44.4962 43.2857 44.5866C43.3111 44.6911 43.3337 44.7758 43.3535 44.8605C43.3761 44.9679 43.393 45.0696 43.4072 45.1713L43.4439 45.4226C43.4552 45.53 43.4636 45.6373 43.4721 45.7446C43.4778 45.8209 43.4806 45.9028 43.4834 45.9847C43.4862 46.0949 43.4862 46.2051 43.4806 46.318L43.4693 46.5384C43.4608 46.657 43.4495 46.7728 43.4354 46.8886L43.4043 47.1005C43.3874 47.2135 43.3648 47.3321 43.3394 47.4535L43.3026 47.6117C43.2631 47.7671 43.2292 47.8914 43.1897 48.0128C43.1868 48.0213 43.1529 48.1202 43.1501 48.1286C43.0908 48.2981 43.0428 48.4252 42.9891 48.5523C42.9835 48.5636 42.9496 48.6371 42.9439 48.6484C42.8676 48.8178 42.8027 48.9478 42.7321 49.0749C42.7264 49.0862 42.6869 49.154 42.6812 49.1653C42.5937 49.315 42.5146 49.4449 42.427 49.5748C42.283 49.781 42.1813 49.9166 42.0711 50.0465C41.9581 50.185 41.8367 50.3205 41.7067 50.4476C39.7238 52.5435 36.7523 53.7073 33.3713 53.7073ZM41.2802 47.3914C41.3056 47.3095 41.3282 47.2248 41.3508 47.14L41.3819 47.0101C41.396 46.9395 41.413 46.8604 41.4243 46.7785L41.444 46.6429C41.4525 46.561 41.461 46.4847 41.4666 46.4056L41.4751 46.2616C41.4779 46.1768 41.4779 46.1034 41.4751 46.0299L41.4666 45.8718C41.461 45.7983 41.4582 45.7277 41.4497 45.6571L41.4243 45.4876C41.413 45.4113 41.4017 45.3464 41.3876 45.2814L41.091 44.4001C41.0881 44.3973 41.0458 44.3013 41.0429 44.2984L40.9977 44.2052L40.8396 43.9369C40.7577 43.8098 40.7125 43.7505 40.6673 43.694L40.5882 43.5895C40.478 43.4511 40.3876 43.3494 40.2916 43.2533L37.0405 40.0022C36.9444 39.9062 36.8427 39.8158 36.7382 39.731L36.6224 39.6435C36.5433 39.5813 36.484 39.5361 36.4247 39.4966C36.419 39.4938 36.2863 39.4147 36.2806 39.409L35.2101 38.9543L34.6339 38.8441C34.5633 38.8356 34.4898 38.83 34.4192 38.8272L34.261 38.8187L33.8825 38.8272C33.8063 38.8328 33.7272 38.8413 33.6481 38.8498L33.5125 38.8695C33.4306 38.8836 33.3515 38.8978 33.2696 38.9147L33.1736 38.9373C33.0662 38.9656 32.9843 38.9882 32.9024 39.0136L32.7979 39.0503C32.7103 39.0814 32.6228 39.1124 32.538 39.1492C32.3657 39.2283 32.2782 39.2706 32.1934 39.3186C32.0381 39.409 31.9505 39.4627 31.8629 39.522C31.7273 39.618 31.6341 39.6858 31.5466 39.7621C31.4534 39.8384 31.363 39.9175 31.2754 40.005L29.0779 42.2026C28.4197 42.8579 27.2842 42.8551 26.6317 42.2026L17.1212 32.6921C16.4462 32.017 16.4462 30.921 17.1212 30.246L19.3216 28.0456C19.4092 27.9608 19.4883 27.8676 19.5645 27.7772C19.6408 27.6869 19.7086 27.5936 19.7736 27.5004C19.8611 27.3733 19.9148 27.2858 19.9656 27.1982C20.0532 27.0457 20.0927 26.9581 20.1323 26.8734L20.1775 26.7802C20.2142 26.6982 20.2424 26.6135 20.2735 26.5316L20.3074 26.4242C20.3357 26.3395 20.3583 26.2576 20.378 26.1729L20.4091 26.0458C20.426 25.9667 20.4402 25.8876 20.4543 25.8085L20.4741 25.6644C20.4854 25.591 20.491 25.5147 20.4967 25.4356L20.5023 25.2888C20.5051 25.2068 20.5051 25.1306 20.5023 25.0571L20.4967 24.899C20.491 24.8255 20.4854 24.7549 20.4769 24.6871L20.2763 23.8115C20.2763 23.8115 20.2396 23.707 20.2368 23.707L20.1238 23.4415C20.1238 23.4358 20.0786 23.3426 20.0786 23.3369L19.8668 22.9669C19.7849 22.837 19.7397 22.7777 19.6945 22.7183L19.6182 22.6138C19.5052 22.4754 19.4177 22.3766 19.3216 22.2805L16.0705 19.0294C15.9744 18.9334 15.8728 18.843 15.7654 18.7554L15.6553 18.6735C15.5649 18.6057 15.5056 18.5605 15.4491 18.521C15.4434 18.5181 15.3135 18.4419 15.3107 18.4391C15.2146 18.3797 15.1666 18.3487 15.1158 18.3232L15.0169 18.2752C14.8813 18.2103 14.8248 18.182 14.7683 18.1594L14.0311 17.9306C13.9746 17.9193 13.9097 17.908 13.8419 17.8995L13.6639 17.8713C13.5933 17.8628 13.5199 17.86 13.4492 17.8544L13.2007 17.8459L12.9126 17.8544C12.8363 17.86 12.7572 17.8685 12.6809 17.877L12.5425 17.8967C12.4634 17.9108 12.3787 17.925 12.2968 17.9419C12.2968 17.9419 12.181 17.9702 12.1782 17.9702C12.0934 17.9899 12.0115 18.0125 11.9324 18.038L11.8251 18.0775C11.7375 18.1086 11.6528 18.1396 11.568 18.1764C11.3929 18.2583 11.3054 18.3006 11.2206 18.3458C11.0624 18.4362 10.9749 18.4899 10.8901 18.5492C10.7517 18.6452 10.6613 18.713 10.5738 18.7865C10.4806 18.8627 10.3902 18.9418 10.3026 19.0294C8.60502 20.6479 7.66159 23.0517 7.63335 25.817C7.57686 31.0707 10.7207 37.1154 16.4829 42.8325C22.1519 48.5467 28.1486 51.6876 33.3713 51.6876C36.1959 51.6876 38.6477 50.7442 40.2746 49.0353C40.3792 48.9308 40.4582 48.8404 40.5345 48.75C40.608 48.6597 40.6786 48.5664 40.7435 48.4732C40.8339 48.3461 40.8848 48.2557 40.9384 48.1653C41.026 48.0128 41.0655 47.9281 41.1051 47.8433M41.1475 47.753C41.1842 47.671 41.2152 47.5863 41.2435 47.5016L41.1475 47.753Z"
		fill="#071123"/>
	<path
		d="M27.9739 16.253C27.6542 16.253 27.3406 16.1018 27.1439 15.8194C26.8272 15.3615 26.9402 14.7332 27.398 14.4155C34.39 9.56463 42.6002 7 51.1413 7C58.3692 7 65.4913 8.87884 71.7359 12.4328C72.22 12.7081 72.3894 13.3243 72.1141 13.8084C71.8388 14.2925 71.2186 14.4609 70.7395 14.1866C64.7964 10.8051 58.0203 9.01802 51.1413 9.01802C43.0127 9.01802 35.1998 11.4576 28.5467 16.0735C28.3723 16.1945 28.1716 16.253 27.9739 16.253Z"
		fill="#071123"/>
	<path
		d="M23.9666 80.0185C23.7266 80.0185 23.4866 79.9338 23.294 79.7603C14.4766 71.8556 9.41895 60.5352 9.41895 48.7014C9.41895 48.1447 9.87076 47.6929 10.4274 47.6929C10.9841 47.6929 11.436 48.1447 11.436 48.7014C11.436 59.9633 16.2485 70.7372 24.6403 78.2606C25.0548 78.6318 25.0901 79.2691 24.718 79.6846C24.5193 79.9055 24.244 80.0185 23.9666 80.0185Z"
		fill="#071123"/>
	<path
		d="M78.2697 80.0205C77.9934 80.0205 77.7181 79.9075 77.5184 79.6846C77.1473 79.2701 77.1816 78.6328 77.5971 78.2606C84.5719 72.0109 89.1263 63.4881 90.4202 54.2612C90.4979 53.7096 91.0072 53.3223 91.5588 53.402C92.1105 53.4786 92.4957 53.9889 92.418 54.5406C91.0576 64.2374 86.2722 73.1949 78.9434 79.7633C78.7498 79.9358 78.5098 80.0205 78.2697 80.0205Z"
		fill="#071123"/>
	<path
		d="M70.7519 34.1156H69.219C68.6613 34.1156 68.2104 33.6638 68.2104 33.1071C68.2104 32.5504 68.6613 32.0986 69.219 32.0986H70.7519C71.3096 32.0986 71.7604 32.5504 71.7604 33.1071C71.7604 33.6638 71.3096 34.1156 70.7519 34.1156Z"
		fill="#071123"/>
	<path
		d="M78.828 34.1156H77.2951C76.7374 34.1156 76.2866 33.6638 76.2866 33.1071C76.2866 32.5504 76.7374 32.0986 77.2951 32.0986H78.828C79.3858 32.0986 79.8366 32.5504 79.8366 33.1071C79.8366 33.6638 79.3858 34.1156 78.828 34.1156Z"
		fill="#071123"/>
	<path
		d="M86.9013 34.1156H85.3684C84.8107 34.1156 84.3599 33.6638 84.3599 33.1071C84.3599 32.5504 84.8107 32.0986 85.3684 32.0986H86.9013C87.459 32.0986 87.9098 32.5504 87.9098 33.1071C87.9098 33.6638 87.459 34.1156 86.9013 34.1156Z"
		fill="#071123"/>
	<defs>
		<filter id="filter0_f_4276_3672" x="0.000488281" y="16" width="106" height="106" filterUnits="userSpaceOnUse"
				color-interpolation-filters="sRGB">
			<feFlood flood-opacity="0" result="BackgroundImageFix"/>
			<feBlend mode="normal" in="SourceGraphic" in2="BackgroundImageFix" result="shape"/>
			<feGaussianBlur stdDeviation="8" result="effect1_foregroundBlur_4276_3672"/>
		</filter>
		<filter id="filter1_f_4276_3672" x="1.46533" y="0.487305" width="99.0874" height="97.1143"
				filterUnits="userSpaceOnUse" color-interpolation-filters="sRGB">
			<feFlood flood-opacity="0" result="BackgroundImageFix"/>
			<feBlend mode="normal" in="SourceGraphic" in2="BackgroundImageFix" result="shape"/>
			<feGaussianBlur stdDeviation="8" result="effect1_foregroundBlur_4276_3672"/>
		</filter>
	</defs>
</svg>
