<svg width="100" height="120" viewBox="0 0 100 120" fill="none" xmlns="http://www.w3.org/2000/svg">
	<g filter="url(#filter0_f_4190_38538)">
		<path
			d="M50.0005 104C65.4645 104 78.0005 91.464 78.0005 76C78.0005 60.536 65.4645 48 50.0005 48C34.5365 48 22.0005 60.536 22.0005 76C22.0005 91.464 34.5365 104 50.0005 104Z"
			fill="#6BBCFF"/>
	</g>
	<g filter="url(#filter1_f_4190_38538)">
		<path d="M70.583 23.8184H20.0437V68.7422H70.583V23.8184Z" fill="#FF7F00"/>
	</g>
	<path
		d="M71.5851 69.9774H46.3852C45.7379 69.9774 45.2125 69.4532 45.2125 68.8048C45.2125 68.1563 45.7379 67.6321 46.3852 67.6321H70.4124V26.5079H17.8292V30.632C17.8292 31.2793 17.3038 31.8047 16.6565 31.8047C16.0092 31.8047 15.4839 31.2793 15.4839 30.632V25.3352C15.4839 24.6879 16.0092 24.1626 16.6565 24.1626H71.5851C72.2335 24.1626 72.7577 24.6879 72.7577 25.3352V68.8048C72.7577 69.4521 72.2335 69.9774 71.5851 69.9774Z"
		fill="#071123"/>
	<path
		d="M26.5301 69.9745H16.6565C16.0092 69.9745 15.4839 69.4503 15.4839 68.8018V62.8953C15.4839 62.2468 16.0092 61.7227 16.6565 61.7227C17.3038 61.7227 17.8292 62.2468 17.8292 62.8953V67.6292H26.5301C27.1774 67.6292 27.7027 68.1534 27.7027 68.8018C27.7027 69.4503 27.1774 69.9745 26.5301 69.9745Z"
		fill="#071123"/>
	<path
		d="M98.4283 69.974C97.7833 69.974 97.2604 69.4545 97.2557 68.8096L97.1443 52.2321L85.1224 39.6133H72.7535V67.6287H79.4199C80.0684 67.6287 80.5925 68.1529 80.5925 68.8014C80.5925 69.4498 80.0684 69.974 79.4199 69.974H71.5808C70.9324 69.974 70.4082 69.4498 70.4082 68.8014V38.4407C70.4082 37.7934 70.9324 37.2681 71.5808 37.2681H85.6255C85.9456 37.2681 86.2528 37.3994 86.4745 37.6316L99.1624 50.9504C99.3687 51.1673 99.4837 51.4534 99.486 51.7513L99.6009 68.7932C99.6056 69.4416 99.0838 69.9693 98.4365 69.974C98.4342 69.974 98.4306 69.974 98.4283 69.974Z"
		fill="#071123"/>
	<path
		d="M88.9212 52.9309H78.9949C78.3464 52.9309 77.8223 52.4068 77.8223 51.7583V38.4407C77.8223 37.7934 78.3464 37.2681 78.9949 37.2681C79.6434 37.2681 80.1675 37.7934 80.1675 38.4407V50.5868H88.9212C89.5697 50.5868 90.0939 51.1122 90.0939 51.7595C90.0939 52.4068 89.5685 52.9309 88.9212 52.9309Z"
		fill="#071123"/>
	<path
		d="M32.7334 76.1813C28.6656 76.1813 25.3552 72.8722 25.3552 68.8043C25.3552 64.7364 28.6644 61.4272 32.7334 61.4272C36.8013 61.4272 40.1105 64.7364 40.1105 68.8043C40.1105 72.8722 36.8001 76.1813 32.7334 76.1813ZM32.7334 63.7725C29.959 63.7725 27.7005 66.0298 27.7005 68.8043C27.7005 71.5787 29.9578 73.8361 32.7334 73.8361C35.5091 73.8361 37.7652 71.5787 37.7652 68.8043C37.7652 66.0298 35.5079 63.7725 32.7334 63.7725Z"
		fill="#071123"/>
	<path
		d="M85.638 76.1813C81.5689 76.1813 78.2598 72.8722 78.2598 68.8043C78.2598 64.7364 81.5689 61.4272 85.638 61.4272C89.7058 61.4272 93.015 64.7364 93.015 68.8043C93.015 72.8722 89.7058 76.1813 85.638 76.1813ZM85.638 63.7725C82.8635 63.7725 80.605 66.0298 80.605 68.8043C80.605 71.5787 82.8635 73.8361 85.638 73.8361C88.4124 73.8361 90.6698 71.5787 90.6698 68.8043C90.6698 66.0298 88.4124 63.7725 85.638 63.7725Z"
		fill="#071123"/>
	<path
		d="M50.4516 48.2413H1.57156C0.924266 48.2413 0.398926 47.7159 0.398926 47.0686C0.398926 46.4213 0.924266 45.896 1.57156 45.896H50.4516C51.0989 45.896 51.6243 46.4213 51.6243 47.0686C51.6243 47.7159 51.0989 48.2413 50.4516 48.2413Z"
		fill="#071123"/>
	<path
		d="M50.4599 38.3096H13.9898C13.3425 38.3096 12.8171 37.7843 12.8171 37.137C12.8171 36.4897 13.3425 35.9644 13.9898 35.9644H50.461C51.1083 35.9644 51.6337 36.4897 51.6337 37.137C51.6337 37.7843 51.1072 38.3096 50.4599 38.3096Z"
		fill="#071123"/>
	<path
		d="M50.4599 58.17H13.9898C13.3425 58.17 12.8171 57.6458 12.8171 56.9973C12.8171 56.3489 13.3425 55.8247 13.9898 55.8247H50.461C51.1083 55.8247 51.6337 56.3489 51.6337 56.9973C51.6337 57.6458 51.1072 58.17 50.4599 58.17Z"
		fill="#071123"/>
	<defs>
		<filter id="filter0_f_4190_38538" x="6.00049" y="32" width="88" height="88" filterUnits="userSpaceOnUse"
				color-interpolation-filters="sRGB">
			<feFlood flood-opacity="0" result="BackgroundImageFix"/>
			<feBlend mode="normal" in="SourceGraphic" in2="BackgroundImageFix" result="shape"/>
			<feGaussianBlur stdDeviation="8" result="effect1_foregroundBlur_4190_38538"/>
		</filter>
		<filter id="filter1_f_4190_38538" x="4.0437" y="7.81836" width="82.5393" height="76.9238"
				filterUnits="userSpaceOnUse" color-interpolation-filters="sRGB">
			<feFlood flood-opacity="0" result="BackgroundImageFix"/>
			<feBlend mode="normal" in="SourceGraphic" in2="BackgroundImageFix" result="shape"/>
			<feGaussianBlur stdDeviation="8" result="effect1_foregroundBlur_4190_38538"/>
		</filter>
	</defs>
</svg>
