<svg width="100" height="117" viewBox="0 0 100 117" fill="none" xmlns="http://www.w3.org/2000/svg">
	<g filter="url(#filter0_f_4276_3919)">
		<path
			d="M50.5 101C67.897 101 82 86.897 82 69.5C82 52.103 67.897 38 50.5 38C33.103 38 19 52.103 19 69.5C19 86.897 33.103 101 50.5 101Z"
			fill="#6BBCFF"/>
	</g>
	<g filter="url(#filter1_f_4276_3919)">
		<path
			d="M50.0088 79.0323C66.0439 79.0323 79.0429 66.0333 79.0429 49.9982C79.0429 33.9631 66.0439 20.9641 50.0088 20.9641C33.9736 20.9641 20.9746 33.9631 20.9746 49.9982C20.9746 66.0333 33.9736 79.0323 50.0088 79.0323Z"
			fill="#FF7F00"/>
	</g>
	<path
		d="M38.9284 71.9297C38.7616 71.9297 38.5927 71.8906 38.4354 71.8072C37.9203 71.5338 37.724 70.8952 37.9974 70.3791L60.1313 28.6266C60.4047 28.1115 61.0433 27.9151 61.5595 28.1885C62.0735 28.4609 62.2709 29.1005 61.9975 29.6156L39.8625 71.3692C39.6725 71.7249 39.3063 71.9297 38.9284 71.9297Z"
		fill="#071123"/>
	<path
		d="M38.8907 48.8531C35.1128 48.8531 32.0391 45.7793 32.0391 42.0004V34.9166C32.0391 31.1387 35.1128 28.0649 38.8907 28.0649C42.6685 28.0649 45.7434 31.1387 45.7434 34.9166V42.0004C45.7423 45.7782 42.6685 48.8531 38.8907 48.8531ZM38.8907 30.1761C36.2771 30.1761 34.1502 32.303 34.1502 34.9166V42.0004C34.1502 44.615 36.2771 46.7409 38.8907 46.7409C41.5053 46.7409 43.6312 44.6139 43.6312 42.0004V34.9166C43.6312 32.3019 41.5042 30.1761 38.8907 30.1761Z"
		fill="#071123"/>
	<path
		d="M61.1202 71.93C57.3423 71.93 54.2686 68.8563 54.2686 65.0774V57.9935C54.2686 54.2146 57.3423 51.1409 61.1202 51.1409C64.8991 51.1409 67.9729 54.2146 67.9729 57.9935V65.0774C67.9729 68.8563 64.8991 71.93 61.1202 71.93ZM61.1202 53.252C58.5066 53.252 56.3807 55.3789 56.3807 57.9925V65.0763C56.3807 67.6899 58.5066 69.8168 61.1202 69.8168C63.7337 69.8168 65.8607 67.6899 65.8607 65.0763V57.9925C65.8607 55.38 63.7337 53.252 61.1202 53.252Z"
		fill="#071123"/>
	<path
		d="M50 97.5C47.6735 97.5011 45.3471 96.6535 43.5347 94.9593C41.6041 93.1564 38.8385 92.5252 36.3178 93.3116C31.5826 94.7936 26.4642 92.3267 24.6677 87.7013C23.7113 85.2387 21.4936 83.4706 18.88 83.0864C13.9707 82.3633 10.4293 77.9226 10.8177 72.9773C11.0246 70.3427 9.79381 67.7882 7.60565 66.3073C3.49742 63.5269 2.23286 57.9884 4.7282 53.7008C6.05714 51.4176 6.05714 48.5813 4.7282 46.2982C2.23286 42.0105 3.49636 36.4731 7.60565 33.6917C9.79381 32.2107 11.0246 29.6552 10.8177 27.0216C10.4293 22.0753 13.9707 17.6346 18.88 16.9126C21.4936 16.5283 23.7103 14.7592 24.6677 12.2966C26.4653 7.67222 31.5826 5.20961 36.3178 6.68633C38.8375 7.47378 41.6041 6.84256 43.5347 5.03967C47.1605 1.65344 52.8426 1.65344 56.4652 5.03967C58.3969 6.84361 61.1635 7.47483 63.6821 6.68633C68.4194 5.20961 73.5357 7.67328 75.3333 12.2977C76.2886 14.7603 78.5074 16.5283 81.1209 16.9136C86.0293 17.6356 89.5707 22.0763 89.1833 27.0227C88.9764 29.6563 90.2072 32.2118 92.3953 33.6927C96.5036 36.4731 97.7681 42.0105 95.2717 46.2992C93.9438 48.5824 93.9438 51.4197 95.2717 53.7018C97.7681 57.9895 96.5036 63.528 92.3953 66.3083C90.2072 67.7893 88.9764 70.3437 89.1833 72.9784C89.5696 77.9258 86.0293 82.3665 81.1209 83.0874C78.5074 83.4717 76.2897 85.2408 75.3323 87.7023C73.5357 92.3267 68.4205 94.7936 63.6831 93.3126C61.1614 92.5273 58.3969 93.1574 56.4663 94.9603C54.6529 96.6535 52.3264 97.5 50 97.5ZM38.5028 90.868C40.8715 90.868 43.199 91.7557 44.9766 93.4171C47.7938 96.0486 52.2082 96.0486 55.0244 93.4171C57.5081 91.0949 61.0685 90.2832 64.3123 91.2976C67.9993 92.4449 71.9693 90.5312 73.3637 86.937C74.5955 83.7683 77.4497 81.4925 80.8127 80.9985C84.6264 80.438 87.3783 76.9863 87.0774 73.1431C86.8114 69.7526 88.3948 66.4635 91.211 64.5593C94.4041 62.3986 95.3857 58.0961 93.4467 54.7637C91.7377 51.8261 91.7377 48.1749 93.4467 45.2373C95.3857 41.9049 94.4041 37.6025 91.211 35.4418C88.3948 33.5365 86.8114 30.2474 87.0774 26.858C87.3783 23.0147 84.6264 19.5641 80.8127 19.0026C77.4497 18.5075 74.5944 16.2317 73.3637 13.0629C71.9682 9.46983 67.9993 7.55506 64.3123 8.7035C61.0685 9.71578 57.5081 8.90406 55.0244 6.58394C52.2071 3.95139 47.7928 3.95244 44.9766 6.58394C42.4918 8.90511 38.9346 9.71683 35.6887 8.7035C32.008 7.55294 28.0317 9.46983 26.6363 13.0629C25.4055 16.2317 22.5513 18.5075 19.1883 19.0026C15.3735 19.5641 12.6216 23.0147 12.9246 26.858C13.1906 30.2474 11.6062 33.5365 8.79104 35.4418C5.59798 37.6025 4.61631 41.9049 6.55537 45.2373C8.26537 48.176 8.26537 51.8272 6.55537 54.7637C4.61631 58.0961 5.59903 62.3986 8.79104 64.5593C11.6073 66.4635 13.1906 69.7526 12.9246 73.1431C12.6227 76.9863 15.3745 80.4369 19.1883 80.9985C22.5513 81.4925 25.4055 83.7693 26.6363 86.937C28.0328 90.5312 32.0101 92.4428 35.6887 91.2976C36.6113 91.0083 37.5602 90.868 38.5028 90.868Z"
		fill="#071123"/>
	<path
		d="M50.0145 85.3684C41.2439 85.3684 32.8311 82.1352 26.3257 76.2632C25.8929 75.8726 25.8592 75.2055 26.2497 74.7728C26.6403 74.34 27.3063 74.3051 27.7402 74.6968C33.8571 80.2173 41.7675 83.2573 50.0145 83.2573C68.3527 83.2573 83.2719 68.3381 83.2719 49.9999C83.2719 31.6618 68.3527 16.7425 50.0145 16.7425C31.6763 16.7425 16.7571 31.6618 16.7571 49.9999C16.7571 54.5399 17.6554 58.9405 19.4266 63.0772C19.6557 63.6134 19.4076 64.2341 18.8714 64.4631C18.3352 64.6954 17.7156 64.4431 17.4854 63.9079C15.6013 59.5062 14.646 54.827 14.646 49.9989C14.646 30.4964 30.5121 14.6304 50.0145 14.6304C69.517 14.6304 85.3831 30.4964 85.3831 49.9989C85.3841 69.5024 69.517 85.3684 50.0145 85.3684Z"
		fill="#071123"/>
	<defs>
		<filter id="filter0_f_4276_3919" x="3" y="22" width="95" height="95" filterUnits="userSpaceOnUse"
				color-interpolation-filters="sRGB">
			<feFlood flood-opacity="0" result="BackgroundImageFix"/>
			<feBlend mode="normal" in="SourceGraphic" in2="BackgroundImageFix" result="shape"/>
			<feGaussianBlur stdDeviation="8" result="effect1_foregroundBlur_4276_3919"/>
		</filter>
		<filter id="filter1_f_4276_3919" x="4.97461" y="4.96411" width="90.0684" height="90.0681"
				filterUnits="userSpaceOnUse" color-interpolation-filters="sRGB">
			<feFlood flood-opacity="0" result="BackgroundImageFix"/>
			<feBlend mode="normal" in="SourceGraphic" in2="BackgroundImageFix" result="shape"/>
			<feGaussianBlur stdDeviation="8" result="effect1_foregroundBlur_4276_3919"/>
		</filter>
	</defs>
</svg>
