<svg width="100" height="118" viewBox="0 0 100 118" fill="none" xmlns="http://www.w3.org/2000/svg">
	<g filter="url(#filter0_f_4276_3507)">
		<path
			d="M50 102C67.1208 102 81 88.1208 81 71C81 53.8792 67.1208 40 50 40C32.8792 40 19 53.8792 19 71C19 88.1208 32.8792 102 50 102Z"
			fill="#6BBCFF"/>
	</g>
	<g filter="url(#filter1_f_4276_3507)">
		<path
			d="M49.9941 79.6176C63.919 79.6176 75.2074 68.3292 75.2074 54.4043C75.2074 40.4793 63.919 29.1909 49.9941 29.1909C36.0691 29.1909 24.7808 40.4793 24.7808 54.4043C24.7808 68.3292 36.0691 79.6176 49.9941 79.6176Z"
			fill="#FF7F00"/>
	</g>
	<path
		d="M50.0117 82.5361C43.3291 82.5361 36.8317 80.1778 31.716 75.8935C31.2928 75.5394 31.2367 74.908 31.5909 74.4848C31.9451 74.0596 32.5754 74.0035 33.0007 74.3597C37.7572 78.3408 43.7984 80.535 50.0117 80.535C64.6314 80.535 76.5257 68.6407 76.5257 54.021C76.5257 39.4012 64.6314 27.5069 50.0117 27.5069C35.7261 27.5069 24.0429 38.8619 23.5166 53.0204H27.8619C28.4142 53.0204 28.8625 53.4677 28.8625 54.021C28.8625 54.5743 28.4142 55.0215 27.8619 55.0215H22.4971C21.9448 55.0215 21.4966 54.5743 21.4966 54.021C21.4966 38.2976 34.2883 25.5059 50.0117 25.5059C65.735 25.5059 78.5267 38.2976 78.5267 54.021C78.5267 69.7443 65.735 82.5361 50.0117 82.5361Z"
		fill="#071123"/>
	<path
		d="M50.0001 94.0242C27.9445 94.0242 10 76.0797 10 54.024C10 34.7498 23.5732 18.3712 42.3971 14.7563V11.9368H38.0478C37.4955 11.9368 37.0473 11.4885 37.0473 10.9362C37.0473 7.09821 40.1689 3.97656 44.007 3.97656H55.9933C59.8313 3.97656 62.953 7.09821 62.953 10.9362C62.953 11.4885 62.5058 11.9368 61.9525 11.9368H57.6022V14.7563C76.4281 18.3702 90.0003 34.7468 90.0003 54.024C90.0003 76.0797 72.0568 94.0242 50.0001 94.0242ZM44.3982 15.4746C44.3992 15.4846 44.4002 15.4957 44.4012 15.5047C44.4452 16.0229 44.091 16.4882 43.5788 16.5752C25.2811 19.6909 12.0011 35.4402 12.0011 54.024C12.0011 74.9771 29.0471 92.0231 50.0001 92.0231C70.9532 92.0231 87.9992 74.9771 87.9992 54.024C87.9992 35.4362 74.7152 19.6869 56.4115 16.5742C55.8993 16.4872 55.5391 16.0219 55.5831 15.5037C55.5861 15.4606 55.5931 15.4176 55.6021 15.3766V10.9362C55.6021 10.3839 56.0493 9.93571 56.6026 9.93571H60.8509C60.3866 7.67952 58.3856 5.97762 55.9933 5.97762H44.007C41.6157 5.97762 39.6137 7.67952 39.1504 9.93571H43.3987C43.951 9.93571 44.3992 10.3839 44.3992 10.9362V15.4746H44.3982Z"
		fill="#071123"/>
	<path
		d="M47.7684 65.9526H34.5534C34.1592 65.9526 33.802 65.7215 33.6409 65.3613C33.4788 65.0021 33.5439 64.5819 33.806 64.2877L45.4071 51.2418C47.3812 49.0227 47.1811 45.6119 44.9619 43.6378C42.7417 41.6648 39.3319 41.8639 37.3569 44.0831C36.9907 44.4953 36.3573 44.5333 35.9441 44.1661C35.5309 43.7989 35.4939 43.1666 35.8611 42.7533C38.5675 39.7097 43.246 39.4356 46.2906 42.143C49.3342 44.8505 49.6083 49.5289 46.9009 52.5725L36.7816 63.9516H47.7684C48.3207 63.9516 48.7689 64.3988 48.7689 64.9521C48.7689 65.5054 48.3207 65.9526 47.7684 65.9526Z"
		fill="#071123"/>
	<path
		d="M61.866 65.9548C61.3127 65.9548 60.8655 65.5076 60.8655 64.9543V60.9752H50.3119C49.9487 60.9752 49.6146 60.7791 49.4375 60.4619C49.2614 60.1447 49.2694 59.7575 49.4605 59.4484L61.0146 40.7515C61.2487 40.3713 61.707 40.1912 62.1392 40.3153C62.5694 40.4373 62.8666 40.8305 62.8666 41.2778V58.9741H66.3364C66.8897 58.9741 67.3369 59.4214 67.3369 59.9747C67.3369 60.5279 66.8897 60.9752 66.3364 60.9752H62.8666V64.9553C62.8666 65.5076 62.4193 65.9548 61.866 65.9548ZM52.1059 58.9741H60.8655V44.8006L52.1059 58.9741Z"
		fill="#071123"/>
	<path
		d="M73.0677 55.0245H72.1402C71.5869 55.0245 71.1396 54.5773 71.1396 54.024C71.1396 53.4707 71.5869 53.0234 72.1402 53.0234H73.0677C73.621 53.0234 74.0682 53.4707 74.0682 54.024C74.0682 54.5773 73.621 55.0245 73.0677 55.0245Z"
		fill="#071123"/>
	<path
		d="M49.9854 32.8714C49.4331 32.8714 48.9849 32.4232 48.9849 31.8709V30.9434C48.9849 30.3911 49.4331 29.9429 49.9854 29.9429C50.5377 29.9429 50.9859 30.3911 50.9859 30.9434V31.8709C50.9859 32.4242 50.5377 32.8714 49.9854 32.8714Z"
		fill="#071123"/>
	<path
		d="M49.9854 78.1053C49.4331 78.1053 48.9849 77.6581 48.9849 77.1048V76.1773C48.9849 75.624 49.4331 75.1768 49.9854 75.1768C50.5377 75.1768 50.9859 75.624 50.9859 76.1773V77.1048C50.9859 77.6581 50.5377 78.1053 49.9854 78.1053Z"
		fill="#071123"/>
	<defs>
		<filter id="filter0_f_4276_3507" x="3" y="24" width="94" height="94" filterUnits="userSpaceOnUse"
				color-interpolation-filters="sRGB">
			<feFlood flood-opacity="0" result="BackgroundImageFix"/>
			<feBlend mode="normal" in="SourceGraphic" in2="BackgroundImageFix" result="shape"/>
			<feGaussianBlur stdDeviation="8" result="effect1_foregroundBlur_4276_3507"/>
		</filter>
		<filter id="filter1_f_4276_3507" x="8.78076" y="13.1909" width="82.4268" height="82.4268"
				filterUnits="userSpaceOnUse" color-interpolation-filters="sRGB">
			<feFlood flood-opacity="0" result="BackgroundImageFix"/>
			<feBlend mode="normal" in="SourceGraphic" in2="BackgroundImageFix" result="shape"/>
			<feGaussianBlur stdDeviation="8" result="effect1_foregroundBlur_4276_3507"/>
		</filter>
	</defs>
</svg>
