<svg width="179" height="182" viewBox="0 0 179 182" fill="none" xmlns="http://www.w3.org/2000/svg">
	<g style="mix-blend-mode:hard-light" filter="url(#filter0_f_4276_3890)">
		<path
			d="M89.4995 122C105.792 122 119 108.792 119 92.5C119 76.2076 105.792 63 89.4995 63C73.2071 63 59.9995 76.2076 59.9995 92.5C59.9995 108.792 73.2071 122 89.4995 122Z"
			fill="#6BBCFF"/>
	</g>
	<g filter="url(#filter1_f_4276_3890)">
		<path
			d="M117.656 100H60.3428C59.6009 100 58.9995 99.3986 58.9995 98.6567V41.3433C58.9995 40.6014 59.6009 40 60.3428 40H117.656C118.398 40 119 40.6014 119 41.3433V98.6567C119 99.3986 118.398 100 117.656 100Z"
			fill="#FF7F00"/>
	</g>
	<path
		d="M131.539 58.9691C131.004 58.9691 130.572 58.536 130.572 58.0025V28.4333H100.813C100.279 28.4333 99.8467 28.0002 99.8467 27.4666C99.8467 26.9331 100.279 26.5 100.813 26.5H131.539C132.073 26.5 132.505 26.9331 132.505 27.4666V58.0025C132.505 58.537 132.073 58.9691 131.539 58.9691Z"
		fill="white"/>
	<path
		d="M86.7746 113.497H46.4613C45.9277 113.497 45.4946 113.065 45.4946 112.53V27.4666C45.4946 26.9331 45.9277 26.5 46.4613 26.5H67.5212C68.0548 26.5 68.4879 26.9331 68.4879 27.4666C68.4879 28.0002 68.0548 28.4333 67.5212 28.4333H47.4279V111.563H86.7746C87.3082 111.563 87.7412 111.996 87.7412 112.53C87.7412 113.065 87.3082 113.497 86.7746 113.497Z"
		fill="white"/>
	<path
		d="M100.81 52.0451C100.606 52.0451 100.404 51.9813 100.234 51.8547L89.004 43.5166L77.7747 51.8547C77.4818 52.0741 77.0903 52.107 76.7645 51.9427C76.4378 51.7783 76.2319 51.4439 76.2319 51.0785V27.4666C76.2319 26.9331 76.665 26.5 77.1986 26.5H89.004C89.5376 26.5 89.9706 26.9331 89.9706 27.4666C89.9706 28.0002 89.5376 28.4333 89.004 28.4333H78.1652V49.1568L88.4279 41.5369C88.7701 41.2827 89.2379 41.2827 89.5801 41.5369L99.8438 49.1568V27.4666C99.8438 26.9331 100.276 26.5 100.81 26.5C101.345 26.5 101.777 26.9331 101.777 27.4666V51.0785C101.777 51.4439 101.571 51.7783 101.244 51.9427C101.107 52.0113 100.958 52.0451 100.81 52.0451Z"
		fill="white"/>
	<path
		d="M75.063 92.7692H59.0189C58.4853 92.7692 58.0522 92.3371 58.0522 91.8026C58.0522 91.268 58.4853 90.8359 59.0189 90.8359H75.063C75.5966 90.8359 76.0296 91.268 76.0296 91.8026C76.0296 92.3371 75.5966 92.7692 75.063 92.7692Z"
		fill="white"/>
	<path
		d="M75.063 101.533H59.0189C58.4853 101.533 58.0522 101.101 58.0522 100.566C58.0522 100.031 58.4853 99.5994 59.0189 99.5994H75.063C75.5966 99.5994 76.0296 100.031 76.0296 100.566C76.0296 101.101 75.5966 101.533 75.063 101.533Z"
		fill="white"/>
	<path
		d="M131.527 113.5H96.7581C96.2236 113.5 95.7915 113.068 95.7915 112.533V66.7576C95.7915 66.2241 96.2236 65.791 96.7581 65.791H131.527C132.061 65.791 132.493 66.2241 132.493 66.7576V112.533C132.493 113.068 132.061 113.5 131.527 113.5ZM97.7248 111.567H130.56V67.7243H97.7248V111.567Z"
		fill="white"/>
	<path
		d="M125.188 84.1264H103.068C102.534 84.1264 102.102 83.6943 102.102 83.1598V73.4229C102.102 72.8884 102.534 72.4563 103.068 72.4563H125.188C125.722 72.4563 126.154 72.8884 126.154 73.4229V83.1598C126.154 83.6943 125.722 84.1264 125.188 84.1264ZM104.035 82.1932H124.221V74.3896H104.035V82.1932Z"
		fill="white"/>
	<path
		d="M105.977 91.6816H103.09C102.556 91.6816 102.124 91.2495 102.124 90.7149C102.124 90.1804 102.556 89.7483 103.09 89.7483H105.977C106.511 89.7483 106.943 90.1804 106.943 90.7149C106.943 91.2495 106.51 91.6816 105.977 91.6816Z"
		fill="white"/>
	<path
		d="M125.198 91.6816H122.312C121.777 91.6816 121.345 91.2495 121.345 90.7149C121.345 90.1804 121.777 89.7483 122.312 89.7483H125.198C125.733 89.7483 126.165 90.1804 126.165 90.7149C126.165 91.2495 125.733 91.6816 125.198 91.6816Z"
		fill="white"/>
	<path
		d="M115.585 91.6816H112.699C112.164 91.6816 111.732 91.2495 111.732 90.7149C111.732 90.1804 112.164 89.7483 112.699 89.7483H115.585C116.119 89.7483 116.552 90.1804 116.552 90.7149C116.552 91.2495 116.119 91.6816 115.585 91.6816Z"
		fill="white"/>
	<path
		d="M105.977 98.7343H103.09C102.556 98.7343 102.124 98.3022 102.124 97.7677C102.124 97.2331 102.556 96.801 103.09 96.801H105.977C106.511 96.801 106.943 97.2331 106.943 97.7677C106.943 98.3022 106.51 98.7343 105.977 98.7343Z"
		fill="white"/>
	<path
		d="M125.198 98.734H122.312C121.777 98.734 121.345 98.302 121.345 97.7674C121.345 97.2329 121.777 96.8008 122.312 96.8008H125.198C125.733 96.8008 126.165 97.2329 126.165 97.7674C126.165 98.302 125.733 98.734 125.198 98.734Z"
		fill="white"/>
	<path
		d="M115.585 98.7343H112.699C112.164 98.7343 111.732 98.3022 111.732 97.7677C111.732 97.2331 112.164 96.801 112.699 96.801H115.585C116.119 96.801 116.552 97.2331 116.552 97.7677C116.552 98.3022 116.119 98.7343 115.585 98.7343Z"
		fill="white"/>
	<path
		d="M105.977 105.786H103.09C102.556 105.786 102.124 105.354 102.124 104.819C102.124 104.285 102.556 103.853 103.09 103.853H105.977C106.511 103.853 106.943 104.285 106.943 104.819C106.943 105.354 106.51 105.786 105.977 105.786Z"
		fill="white"/>
	<path
		d="M125.198 105.786H122.312C121.777 105.786 121.345 105.354 121.345 104.819C121.345 104.285 121.777 103.853 122.312 103.853H125.198C125.733 103.853 126.165 104.285 126.165 104.819C126.165 105.354 125.733 105.786 125.198 105.786Z"
		fill="white"/>
	<path
		d="M115.585 105.786H112.699C112.164 105.786 111.732 105.354 111.732 104.819C111.732 104.285 112.164 103.853 112.699 103.853H115.585C116.119 103.853 116.552 104.285 116.552 104.819C116.552 105.354 116.119 105.786 115.585 105.786Z"
		fill="white"/>
	<defs>
		<filter id="filter0_f_4276_3890" x="-0.000488281" y="3" width="179" height="179" filterUnits="userSpaceOnUse"
				color-interpolation-filters="sRGB">
			<feFlood flood-opacity="0" result="BackgroundImageFix"/>
			<feBlend mode="normal" in="SourceGraphic" in2="BackgroundImageFix" result="shape"/>
			<feGaussianBlur stdDeviation="30" result="effect1_foregroundBlur_4276_3890"/>
		</filter>
		<filter id="filter1_f_4276_3890" x="18.9995" y="0" width="140" height="140" filterUnits="userSpaceOnUse"
				color-interpolation-filters="sRGB">
			<feFlood flood-opacity="0" result="BackgroundImageFix"/>
			<feBlend mode="normal" in="SourceGraphic" in2="BackgroundImageFix" result="shape"/>
			<feGaussianBlur stdDeviation="20" result="effect1_foregroundBlur_4276_3890"/>
		</filter>
	</defs>
</svg>
