<svg width="212" height="60" viewBox="0 0 212 60" fill="none" xmlns="http://www.w3.org/2000/svg">
<g clip-path="url(#clip0_4799_3939)">
<g clip-path="url(#clip1_4799_3939)">
<path d="M25.5 0.00274658L18 33.0027H31.2L28.35 60.0028L46.8 24.0027H31.65L39.75 0.00274658H25.5Z" fill="#FF7F00"/>
<path d="M38.4864 40.7022L46.2994 18.9027L54.5966 18.9027L42.8221 46.5027L37.562 46.5027L38.4864 40.7022ZM31.3466 18.9027L39.1816 40.7022L40.194 46.5027L34.8679 46.5027L23.0273 18.9027L31.3466 18.9027ZM30.1466 28.8027L30.1467 23.6657L46.587 23.6657V28.8027L30.1466 28.8027Z" fill="#7E7E7E"/>
<path d="M30.8984 18.9027V46.5027H24.5323L24.5323 24.7527H11.7465L11.7465 46.5027H5.39844V18.9027H30.8984Z" fill="#D8D8D8"/>
</g>
</g>
<path d="M67.2197 28.4538V17.1869H77.0697V28.4538H74.5841V18.716L75.1553 19.3115H69.1341L69.7054 18.716V28.4538H67.2197Z" fill="#D8D8D8"/>
<path d="M78.3593 28.4538V17.1869H83.0373C84.0048 17.1869 84.8385 17.3532 85.5384 17.6859C86.2383 18.0078 86.7787 18.4746 87.1595 19.0862C87.5403 19.6978 87.7307 20.4275 87.7307 21.2752C87.7307 22.1122 87.5403 22.8365 87.1595 23.4481C86.7787 24.0597 86.2383 24.5319 85.5384 24.8645C84.8385 25.1864 84.0048 25.3474 83.0373 25.3474H79.7488L80.8604 24.1724V28.4538H78.3593ZM80.8604 24.4621L79.7488 23.2228H82.8983C83.6703 23.2228 84.2467 23.0511 84.6275 22.7077C85.0083 22.3643 85.1987 21.8868 85.1987 21.2752C85.1987 20.6528 85.0083 20.17 84.6275 19.8266C84.2467 19.4832 83.6703 19.3115 82.8983 19.3115H79.7488L80.8604 18.0722V24.4621Z" fill="#D8D8D8"/>
<path d="M94.1631 28.647C93.3088 28.647 92.5163 28.5021 91.7855 28.2124C91.065 27.9227 90.4372 27.5149 89.9019 26.9891C89.377 26.4633 88.9653 25.8463 88.6668 25.1381C88.3786 24.4299 88.2345 23.6573 88.2345 22.8204C88.2345 21.9834 88.3786 21.2108 88.6668 20.5026C88.9653 19.7944 89.3822 19.1774 89.9174 18.6516C90.4526 18.1258 91.0805 17.7181 91.8009 17.4284C92.5214 17.1386 93.3037 16.9938 94.1477 16.9938C95.002 16.9938 95.7842 17.1386 96.4944 17.4284C97.2149 17.7181 97.8376 18.1258 98.3625 18.6516C98.8977 19.1774 99.3146 19.7944 99.6131 20.5026C99.9115 21.2001 100.061 21.9727 100.061 22.8204C100.061 23.6573 99.9115 24.4353 99.6131 25.1542C99.3146 25.8624 98.8977 26.4794 98.3625 27.0052C97.8376 27.5203 97.2149 27.9227 96.4944 28.2124C95.7842 28.5021 95.0071 28.647 94.1631 28.647ZM94.1477 26.4258C94.6314 26.4258 95.074 26.3399 95.4754 26.1682C95.8871 25.9966 96.2474 25.7498 96.5561 25.4279C96.8649 25.1059 97.1017 24.725 97.2663 24.2851C97.4413 23.8451 97.5288 23.3569 97.5288 22.8204C97.5288 22.2839 97.4413 21.7956 97.2663 21.3557C97.1017 20.9157 96.8649 20.5348 96.5561 20.2129C96.2577 19.891 95.9026 19.6442 95.4909 19.4725C95.0791 19.3008 94.6314 19.215 94.1477 19.215C93.6639 19.215 93.2162 19.3008 92.8045 19.4725C92.4031 19.6442 92.048 19.891 91.7392 20.2129C91.4304 20.5348 91.1885 20.9157 91.0136 21.3557C90.8489 21.7956 90.7665 22.2839 90.7665 22.8204C90.7665 23.3462 90.8489 23.8344 91.0136 24.2851C91.1885 24.725 91.4253 25.1059 91.7237 25.4279C92.0325 25.7498 92.3928 25.9966 92.8045 26.1682C93.2162 26.3399 93.6639 26.4258 94.1477 26.4258Z" fill="#D8D8D8"/>
<path d="M100.598 28.4538V17.1869H102.667L107.268 25.1381H106.171L110.695 17.1869H112.764L112.779 28.4538H110.433L110.417 20.9372H110.865L107.237 27.2627H106.125L102.42 20.9372H102.945V28.4538H100.598Z" fill="#D8D8D8"/>
<path d="M119.429 20.8889C120.736 20.8889 121.745 21.1947 122.455 21.8064C123.165 22.4073 123.52 23.314 123.52 24.5265C123.52 25.8141 123.124 26.7906 122.332 27.4559C121.549 28.1212 120.463 28.4538 119.074 28.4538H114.195V17.1869H116.681V20.8889H119.429ZM118.935 26.5224C119.573 26.5224 120.077 26.356 120.448 26.0234C120.818 25.6907 121.004 25.2079 121.004 24.5748C121.004 23.9524 120.818 23.5071 120.448 23.2389C120.088 22.9599 119.583 22.8204 118.935 22.8204H116.681V26.5224H118.935ZM124.774 28.4538V17.1869H127.259V28.4538H124.774Z" fill="#D8D8D8"/>
<path d="M135.015 26.3292L134.459 26.9247V17.1869H136.945V26.9247L136.358 26.3292H140.928L140.341 26.9247V17.1869H142.827V28.4538H128.561V17.1869H131.047V26.9247L130.476 26.3292H135.015Z" fill="#D8D8D8"/>
<path d="M144.844 28.6309C144.659 28.6309 144.463 28.6148 144.257 28.5826C144.062 28.5504 143.846 28.5075 143.609 28.4538L143.763 26.2487C143.907 26.2916 144.057 26.3131 144.211 26.3131C144.633 26.3131 144.962 26.1361 145.199 25.782C145.436 25.4171 145.606 24.8967 145.709 24.2207C145.812 23.5447 145.878 22.7238 145.909 21.7581L146.064 17.1869H154.37V28.4538H151.9V18.716L152.471 19.3115H147.7L148.21 18.6838L148.117 21.6615C148.086 22.7667 148.014 23.7485 147.901 24.607C147.788 25.4654 147.613 26.1951 147.376 26.796C147.139 27.3969 146.815 27.8529 146.403 28.1641C145.992 28.4753 145.472 28.6309 144.844 28.6309Z" fill="#D8D8D8"/>
<path d="M157.98 21.7259H163.907V23.7539H157.98V21.7259ZM158.165 26.3614H164.048V28.4538H155.68V17.1869H163.847V19.2793H158.165V26.3614Z" fill="#D8D8D8"/>
<path d="M172.475 17.1869H174.976V28.4538H172.475V17.1869ZM167.565 28.4538H165.064V17.1869H167.565V28.4538ZM172.66 23.8344H167.38V21.6293H172.66V23.8344Z" fill="#D8D8D8"/>
<path d="M183.705 17.1869H186.206V28.4538H183.705V17.1869ZM178.795 28.4538H176.294V17.1869H178.795V28.4538ZM183.89 23.8344H178.61V21.6293H183.89V23.8344Z" fill="#D8D8D8"/>
<path d="M192.879 20.8889C194.186 20.8889 195.195 21.1947 195.905 21.8064C196.615 22.4073 196.97 23.314 196.97 24.5265C196.97 25.8141 196.574 26.7906 195.781 27.4559C194.999 28.1212 193.913 28.4538 192.524 28.4538H187.645V17.1869H190.131V20.8889H192.879ZM192.385 26.5224C193.023 26.5224 193.527 26.356 193.898 26.0234C194.268 25.6907 194.453 25.2079 194.453 24.5748C194.453 23.9524 194.268 23.5071 193.898 23.2389C193.537 22.9599 193.033 22.8204 192.385 22.8204H190.131V26.5224H192.385ZM198.103 28.4538V17.1869H200.589V28.4538H198.103Z" fill="#D8D8D8"/>
<path d="M202.011 28.4538V17.1869H204.497V24.5265L209.653 17.1869H212V28.4538H209.53V21.1303L204.373 28.4538H202.011ZM206.998 16.4626C205.969 16.4626 205.212 16.248 204.728 15.8188C204.255 15.3896 204.013 14.7833 204.003 14H205.716C205.727 14.3863 205.835 14.6814 206.041 14.8853C206.257 15.0784 206.576 15.175 206.998 15.175C207.409 15.175 207.723 15.0784 207.94 14.8853C208.156 14.6814 208.269 14.3863 208.279 14H209.993C209.983 14.7833 209.736 15.3896 209.252 15.8188C208.768 16.248 208.017 16.4626 206.998 16.4626Z" fill="#D8D8D8"/>
<path d="M66 45.8069L70.817 34.54H73.2872L78.1196 45.8069H75.495L71.5426 35.8598H72.5307L68.5629 45.8069H66ZM68.4085 43.3925L69.0724 41.4128H74.6304L75.3097 43.3925H68.4085Z" fill="#D8D8D8"/>
<path d="M79.8924 45.9839C79.7072 45.9839 79.5116 45.9678 79.3057 45.9356C79.1102 45.9034 78.894 45.8605 78.6573 45.8069L78.8117 43.6018C78.9558 43.6447 79.105 43.6661 79.2594 43.6661C79.6814 43.6661 80.0108 43.4891 80.2475 43.135C80.4843 42.7702 80.6541 42.2497 80.757 41.5737C80.8599 40.8977 80.9268 40.0768 80.9577 39.1111L81.1121 34.54H89.4183V45.8069H86.948V36.069L87.5193 36.6646H82.7486L83.2581 36.0368L83.1655 39.0145C83.1346 40.1198 83.0626 41.1016 82.9493 41.96C82.8361 42.8184 82.6611 43.5481 82.4244 44.149C82.1877 44.7499 81.8635 45.2059 81.4518 45.5171C81.0401 45.8283 80.5203 45.9839 79.8924 45.9839Z" fill="#D8D8D8"/>
<path d="M95.9617 38.2419C97.2689 38.2419 98.2776 38.5478 98.9878 39.1594C99.698 39.7603 100.053 40.667 100.053 41.8795C100.053 43.1672 99.6568 44.1436 98.8643 44.8089C98.082 45.4742 96.9962 45.8069 95.6066 45.8069H90.7279V34.54H93.2136V38.2419H95.9617ZM95.4677 43.8754C96.1058 43.8754 96.6102 43.7091 96.9807 43.3764C97.3512 43.0438 97.5365 42.5609 97.5365 41.9278C97.5365 41.3055 97.3512 40.8601 96.9807 40.5919C96.6205 40.3129 96.1161 40.1734 95.4677 40.1734H93.2136V43.8754H95.4677Z" fill="#D8D8D8"/>
<path d="M107.089 45.8069V42.2497L107.706 42.8131H104.742C103.805 42.8131 102.997 42.6521 102.318 42.3302C101.639 42.0083 101.119 41.5415 100.759 40.9299C100.398 40.3183 100.218 39.5886 100.218 38.7409C100.218 37.861 100.409 37.1099 100.79 36.4875C101.181 35.8544 101.726 35.3716 102.426 35.0389C103.126 34.7063 103.949 34.54 104.896 34.54H109.559V45.8069H107.089ZM100.249 45.8069L102.936 41.7669H105.468L102.889 45.8069H100.249ZM107.089 41.4128V35.9886L107.706 36.6646H104.958C104.248 36.6646 103.702 36.8363 103.322 37.1796C102.951 37.523 102.766 38.0327 102.766 38.7087C102.766 39.3633 102.946 39.8676 103.306 40.2217C103.666 40.5758 104.196 40.7528 104.896 40.7528H107.706L107.089 41.4128Z" fill="#D8D8D8"/>
<path d="M118.288 34.54H120.789V45.8069H118.288V34.54ZM113.378 45.8069H110.877V34.54H113.378V45.8069ZM118.473 41.1874H113.193V38.9823H118.473V41.1874Z" fill="#D8D8D8"/>
<path d="M127.449 46C126.615 46 125.838 45.8605 125.118 45.5815C124.407 45.2918 123.79 44.884 123.265 44.3582C122.74 43.8325 122.328 43.2155 122.03 42.5073C121.742 41.7991 121.598 41.0211 121.598 40.1734C121.598 39.3257 121.742 38.5478 122.03 37.8395C122.328 37.1313 122.74 36.5143 123.265 35.9886C123.8 35.4628 124.423 35.0604 125.133 34.7814C125.843 34.4917 126.62 34.3468 127.464 34.3468C128.401 34.3468 129.245 34.5185 129.996 34.8619C130.758 35.1945 131.396 35.6881 131.911 36.3427L130.305 37.8878C129.935 37.4479 129.523 37.1206 129.07 36.906C128.617 36.6807 128.123 36.568 127.588 36.568C127.084 36.568 126.62 36.6538 126.198 36.8255C125.776 36.9972 125.411 37.244 125.102 37.5659C124.793 37.8878 124.552 38.2688 124.377 38.7087C124.212 39.1487 124.13 39.6369 124.13 40.1734C124.13 40.7099 124.212 41.1982 124.377 41.6381C124.552 42.078 124.793 42.459 125.102 42.7809C125.411 43.1028 125.776 43.3496 126.198 43.5213C126.62 43.693 127.084 43.7788 127.588 43.7788C128.123 43.7788 128.617 43.6715 129.07 43.4569C129.523 43.2316 129.935 42.8936 130.305 42.4429L131.911 43.9881C131.396 44.6426 130.758 45.1416 129.996 45.4849C129.245 45.8283 128.396 46 127.449 46Z" fill="#D8D8D8"/>
<defs>
<clipPath id="clip0_4799_3939">
<rect width="60" height="60" rx="2" fill="white"/>
</clipPath>
<clipPath id="clip1_4799_3939">
<rect width="60" height="60" fill="white" transform="translate(0 0.00274658)"/>
</clipPath>
</defs>
</svg>
