<svg width="146" height="60" viewBox="0 0 146 60" fill="none" xmlns="http://www.w3.org/2000/svg">
<path d="M1.21968 28.4538V17.1869H11.0697V28.4538H8.58407V18.716L9.15531 19.3115H3.13411L3.70535 18.716V28.4538H1.21968Z" fill="#D8D8D8"/>
<path d="M12.3593 28.4538V17.1869H17.0373C18.0048 17.1869 18.8385 17.3532 19.5384 17.6859C20.2383 18.0078 20.7786 18.4746 21.1595 19.0862C21.5403 19.6978 21.7307 20.4275 21.7307 21.2752C21.7307 22.1122 21.5403 22.8365 21.1595 23.4481C20.7786 24.0597 20.2383 24.5319 19.5384 24.8645C18.8385 25.1864 18.0048 25.3474 17.0373 25.3474H13.7488L14.8604 24.1724V28.4538H12.3593ZM14.8604 24.4621L13.7488 23.2228H16.8983C17.6703 23.2228 18.2467 23.0511 18.6275 22.7077C19.0083 22.3643 19.1987 21.8868 19.1987 21.2752C19.1987 20.6528 19.0083 20.17 18.6275 19.8266C18.2467 19.4832 17.6703 19.3115 16.8983 19.3115H13.7488L14.8604 18.0722V24.4621Z" fill="#D8D8D8"/>
<path d="M28.1631 28.647C27.3088 28.647 26.5163 28.5021 25.7855 28.2124C25.065 27.9227 24.4372 27.5149 23.9019 26.9891C23.377 26.4633 22.9653 25.8463 22.6668 25.1381C22.3786 24.4299 22.2345 23.6573 22.2345 22.8204C22.2345 21.9834 22.3786 21.2108 22.6668 20.5026C22.9653 19.7944 23.3822 19.1774 23.9174 18.6516C24.4526 18.1258 25.0805 17.7181 25.8009 17.4284C26.5214 17.1386 27.3037 16.9938 28.1477 16.9938C29.002 16.9938 29.7842 17.1386 30.4944 17.4284C31.2149 17.7181 31.8376 18.1258 32.3625 18.6516C32.8977 19.1774 33.3146 19.7944 33.6131 20.5026C33.9115 21.2001 34.0608 21.9727 34.0608 22.8204C34.0608 23.6573 33.9115 24.4353 33.6131 25.1542C33.3146 25.8624 32.8977 26.4794 32.3625 27.0052C31.8376 27.5203 31.2149 27.9227 30.4944 28.2124C29.7842 28.5021 29.0071 28.647 28.1631 28.647ZM28.1477 26.4258C28.6314 26.4258 29.074 26.3399 29.4754 26.1682C29.8871 25.9966 30.2474 25.7498 30.5561 25.4279C30.8649 25.1059 31.1017 24.725 31.2663 24.2851C31.4413 23.8451 31.5288 23.3569 31.5288 22.8204C31.5288 22.2839 31.4413 21.7956 31.2663 21.3557C31.1017 20.9157 30.8649 20.5348 30.5561 20.2129C30.2577 19.891 29.9026 19.6442 29.4909 19.4725C29.0791 19.3008 28.6314 19.215 28.1477 19.215C27.6639 19.215 27.2162 19.3008 26.8045 19.4725C26.4031 19.6442 26.048 19.891 25.7392 20.2129C25.4304 20.5348 25.1885 20.9157 25.0136 21.3557C24.8489 21.7956 24.7665 22.2839 24.7665 22.8204C24.7665 23.3462 24.8489 23.8344 25.0136 24.2851C25.1885 24.725 25.4253 25.1059 25.7237 25.4279C26.0325 25.7498 26.3928 25.9966 26.8045 26.1682C27.2162 26.3399 27.6639 26.4258 28.1477 26.4258Z" fill="#D8D8D8"/>
<path d="M34.598 28.4538V17.1869H36.6668L41.2677 25.1381H40.1715L44.6951 17.1869H46.7639L46.7794 28.4538H44.4326L44.4172 20.9372H44.8649L41.2368 27.2627H40.1252L36.4198 20.9372H36.9447V28.4538H34.598Z" fill="#D8D8D8"/>
<path d="M53.429 20.8889C54.7362 20.8889 55.7448 21.1947 56.455 21.8064C57.1652 22.4073 57.5203 23.314 57.5203 24.5265C57.5203 25.8141 57.124 26.7906 56.3315 27.4559C55.5493 28.1212 54.4634 28.4538 53.0739 28.4538H48.1952V17.1869H50.6808V20.8889H53.429ZM52.9349 26.5224C53.5731 26.5224 54.0774 26.356 54.448 26.0234C54.8185 25.6907 55.0038 25.2079 55.0038 24.5748C55.0038 23.9524 54.8185 23.5071 54.448 23.2389C54.0877 22.9599 53.5834 22.8204 52.9349 22.8204H50.6808V26.5224H52.9349ZM58.7738 28.4538V17.1869H61.2594V28.4538H58.7738Z" fill="#D8D8D8"/>
<path d="M69.0148 26.3292L68.4589 26.9247V17.1869H70.9446V26.9247L70.3579 26.3292H74.9279L74.3412 26.9247V17.1869H76.8269V28.4538H62.5613V17.1869H65.0469V26.9247L64.4757 26.3292H69.0148Z" fill="#D8D8D8"/>
<path d="M78.8441 28.6309C78.6588 28.6309 78.4632 28.6148 78.2574 28.5826C78.0618 28.5504 77.8457 28.5075 77.609 28.4538L77.7633 26.2487C77.9074 26.2916 78.0567 26.3131 78.2111 26.3131C78.6331 26.3131 78.9624 26.1361 79.1992 25.782C79.4359 25.4171 79.6057 24.8967 79.7087 24.2207C79.8116 23.5447 79.8785 22.7238 79.9094 21.7581L80.0637 17.1869H88.3699V28.4538H85.8997V18.716L86.4709 19.3115H81.7003L82.2098 18.6838L82.1171 21.6615C82.0863 22.7667 82.0142 23.7485 81.901 24.607C81.7878 25.4654 81.6128 26.1951 81.3761 26.796C81.1393 27.3969 80.8151 27.8529 80.4034 28.1641C79.9917 28.4753 79.4719 28.6309 78.8441 28.6309Z" fill="#D8D8D8"/>
<path d="M91.98 21.7259H97.9066V23.7539H91.98V21.7259ZM92.1653 26.3614H98.0475V28.4538H89.6796V17.1869H97.8468V19.2793H92.1653V26.3614Z" fill="#D8D8D8"/>
<path d="M106.475 17.1869H108.976V28.4538H106.475V17.1869ZM101.565 28.4538H99.0642V17.1869H101.565V28.4538ZM106.66 23.8344H101.38V21.6293H106.66V23.8344Z" fill="#D8D8D8"/>
<path d="M117.705 17.1869H120.206V28.4538H117.705V17.1869ZM112.795 28.4538H110.294V17.1869H112.795V28.4538ZM117.89 23.8344H112.61V21.6293H117.89V23.8344Z" fill="#D8D8D8"/>
<path d="M126.879 20.8889C128.186 20.8889 129.195 21.1947 129.905 21.8064C130.615 22.4073 130.97 23.314 130.97 24.5265C130.97 25.8141 130.574 26.7906 129.781 27.4559C128.999 28.1212 127.913 28.4538 126.524 28.4538H121.645V17.1869H124.131V20.8889H126.879ZM126.385 26.5224C127.023 26.5224 127.527 26.356 127.898 26.0234C128.268 25.6907 128.453 25.2079 128.453 24.5748C128.453 23.9524 128.268 23.5071 127.898 23.2389C127.537 22.9599 127.033 22.8204 126.385 22.8204H124.131V26.5224H126.385ZM132.103 28.4538V17.1869H134.589V28.4538H132.103Z" fill="#D8D8D8"/>
<path d="M136.011 28.4538V17.1869H138.497V24.5265L143.653 17.1869H146V28.4538H143.53V21.1303L138.373 28.4538H136.011ZM140.998 16.4626C139.969 16.4626 139.212 16.248 138.728 15.8188C138.255 15.3896 138.013 14.7833 138.003 14H139.716C139.727 14.3863 139.835 14.6814 140.041 14.8853C140.257 15.0784 140.576 15.175 140.998 15.175C141.409 15.175 141.723 15.0784 141.94 14.8853C142.156 14.6814 142.269 14.3863 142.279 14H143.993C143.983 14.7833 143.736 15.3896 143.252 15.8188C142.768 16.248 142.017 16.4626 140.998 16.4626Z" fill="#D8D8D8"/>
<path d="M0 45.8068L4.81696 34.54H7.2872L12.1196 45.8068H9.49497L5.54259 35.8598H6.53069L2.56287 45.8068H0ZM2.40848 43.3925L3.07236 41.4128H8.63039L9.3097 43.3925H2.40848Z" fill="#D8D8D8"/>
<path d="M13.8924 45.9839C13.7072 45.9839 13.5116 45.9678 13.3057 45.9356C13.1102 45.9034 12.894 45.8605 12.6573 45.8068L12.8117 43.6018C12.9558 43.6447 13.105 43.6661 13.2594 43.6661C13.6814 43.6661 14.0108 43.4891 14.2475 43.135C14.4843 42.7702 14.6541 42.2497 14.757 41.5737C14.8599 40.8977 14.9268 40.0768 14.9577 39.1111L15.1121 34.54H23.4183V45.8068H20.948V36.069L21.5193 36.6646H16.7486L17.2581 36.0368L17.1655 39.0145C17.1346 40.1198 17.0626 41.1016 16.9493 41.96C16.8361 42.8184 16.6611 43.5481 16.4244 44.149C16.1877 44.7499 15.8635 45.206 15.4518 45.5171C15.0401 45.8283 14.5203 45.9839 13.8924 45.9839Z" fill="#D8D8D8"/>
<path d="M29.9617 38.2419C31.2689 38.2419 32.2776 38.5477 32.9878 39.1594C33.698 39.7603 34.0531 40.667 34.0531 41.8795C34.0531 43.1672 33.6568 44.1436 32.8643 44.8089C32.082 45.4742 30.9962 45.8068 29.6066 45.8068H24.7279V34.54H27.2136V38.2419H29.9617ZM29.4677 43.8754C30.1058 43.8754 30.6102 43.7091 30.9807 43.3764C31.3513 43.0438 31.5365 42.5609 31.5365 41.9278C31.5365 41.3055 31.3513 40.8601 30.9807 40.5919C30.6205 40.3129 30.1161 40.1734 29.4677 40.1734H27.2136V43.8754H29.4677Z" fill="#D8D8D8"/>
<path d="M41.0887 45.8068V42.2497L41.7062 42.8131H38.7419C37.8053 42.8131 36.9973 42.6521 36.318 42.3302C35.6387 42.0083 35.1189 41.5415 34.7587 40.9299C34.3984 40.3183 34.2183 39.5886 34.2183 38.7409C34.2183 37.861 34.4087 37.1099 34.7896 36.4875C35.1807 35.8544 35.7262 35.3716 36.4261 35.0389C37.126 34.7063 37.9494 34.54 38.8963 34.54H43.5589V45.8068H41.0887ZM34.2492 45.8068L36.9356 41.7669H39.4676L36.8893 45.8068H34.2492ZM41.0887 41.4128V35.9886L41.7062 36.6646H38.9581C38.2479 36.6646 37.7024 36.8363 37.3216 37.1796C36.951 37.523 36.7657 38.0327 36.7657 38.7087C36.7657 39.3633 36.9459 39.8676 37.3061 40.2217C37.6664 40.5758 38.1964 40.7528 38.8963 40.7528H41.7062L41.0887 41.4128Z" fill="#D8D8D8"/>
<path d="M52.2877 34.54H54.7888V45.8068H52.2877V34.54ZM47.3781 45.8068H44.877V34.54H47.3781V45.8068ZM52.473 41.1874H47.1928V38.9823H52.473V41.1874Z" fill="#D8D8D8"/>
<path d="M61.4489 46C60.6152 46 59.8381 45.8605 59.1176 45.5815C58.4075 45.2918 57.7899 44.884 57.265 44.3583C56.74 43.8325 56.3283 43.2155 56.0299 42.5073C55.7417 41.7991 55.5976 41.0211 55.5976 40.1734C55.5976 39.3257 55.7417 38.5477 56.0299 37.8395C56.3283 37.1313 56.74 36.5143 57.265 35.9886C57.8002 35.4628 58.4229 35.0604 59.1331 34.7814C59.8433 34.4917 60.6204 34.3468 61.4644 34.3468C62.401 34.3468 63.245 34.5185 63.9964 34.8619C64.758 35.1945 65.3962 35.6881 65.9108 36.3427L64.3051 37.8878C63.9346 37.4479 63.5229 37.1206 63.07 36.906C62.6171 36.6807 62.1231 36.568 61.5879 36.568C61.0835 36.568 60.6204 36.6538 60.1984 36.8255C59.7764 36.9972 59.411 37.244 59.1022 37.5659C58.7934 37.8878 58.5516 38.2688 58.3766 38.7087C58.2119 39.1487 58.1296 39.6369 58.1296 40.1734C58.1296 40.7099 58.2119 41.1982 58.3766 41.6381C58.5516 42.078 58.7934 42.459 59.1022 42.7809C59.411 43.1028 59.7764 43.3496 60.1984 43.5213C60.6204 43.693 61.0835 43.7788 61.5879 43.7788C62.1231 43.7788 62.6171 43.6715 63.07 43.4569C63.5229 43.2316 63.9346 42.8936 64.3051 42.4429L65.9108 43.9881C65.3962 44.6426 64.758 45.1416 63.9964 45.4849C63.245 45.8283 62.3959 46 61.4489 46Z" fill="#D8D8D8"/>
</svg>
