<svg width="24" height="24" viewBox="0 0 24 24" fill="none" xmlns="http://www.w3.org/2000/svg">
<path d="M19.2232 15.2682L16.6832 14.9782C16.0732 14.9082 15.4732 15.1182 15.0432 15.5482L13.2032 17.3882C10.3732 15.9482 8.0532 13.6382 6.6132 10.7982L8.4632 8.94816C8.8932 8.51816 9.1032 7.91816 9.0332 7.30816L8.7432 4.78816C8.6232 3.77816 7.7732 3.01816 6.75321 3.01816H5.02321C3.89321 3.01816 2.9532 3.95816 3.0232 5.08816C3.5532 13.6282 10.3832 20.4482 18.9132 20.9782C20.0432 21.0482 20.9832 20.1082 20.9832 18.9782V17.2482C20.9932 16.2382 20.2332 15.3882 19.2232 15.2682Z" fill="white"/>
</svg>
