<svg width="100%" height="100%" viewBox="0 0 219 150" fill="none" xmlns="http://www.w3.org/2000/svg">
<path d="M150.906 51V26C150.906 25 150.078 24.1667 149.085 24.1667H140.642V21.8333C140.642 20.8333 139.815 20 138.821 20H80.0529C79.0597 20 78.2319 20.8333 78.2319 21.8333V24.1667H69.7891C68.7959 24.1667 67.9681 25 67.9681 26V51C67.9681 54.6667 66.6438 63.8333 65.1539 74.3333C61.0153 103.333 58.5321 124.333 62.5052 128.833C63.1673 129.667 64.1606 130 65.1539 130C69.4581 130 70.9479 125 71.4446 122.333H147.595C148.092 125.167 149.582 130 153.886 130C154.879 130 155.707 129.5 156.535 128.833C160.508 124.167 157.859 103.333 153.886 74.3333C152.23 63.8333 150.906 54.6667 150.906 51ZM67.6371 120.333C67.4715 122.333 66.4783 126 64.9884 126.167C62.3396 123 65.3195 99 67.6371 81.8333V120.333ZM81.8739 23.5H136.835V25H81.8739V23.5ZM147.099 118.667H71.4446V27.8333H79.8874C80.5495 27.8333 81.2118 27.5 81.5428 26.8333H137C137.331 27.3333 137.828 27.8333 138.656 27.8333H147.099V118.667ZM153.555 126.333C152.065 126 151.072 122.5 150.906 120.5V82C153.224 99.1667 156.204 123.167 153.555 126.333Z" stroke="#343941" stroke-width="1.5"/>
</svg>
