<svg width="100%" height="100%" viewBox="0 0 219 150" fill="none" xmlns="http://www.w3.org/2000/svg">
<path d="M96.1349 58.5479C97.1575 58.5479 98.034 57.6718 98.034 56.6497C98.034 55.6275 97.1575 54.7514 96.1349 54.7514C95.1123 54.7514 94.2358 55.6275 94.2358 56.6497C94.2358 57.6718 95.1123 58.5479 96.1349 58.5479ZM96.1349 55.7736C96.5731 55.7736 97.0113 56.2116 97.0113 56.6497C97.0113 57.0877 96.7192 57.5258 96.1349 57.5258C95.6967 57.5258 95.2584 57.0877 95.2584 56.6497C95.4045 56.0656 95.6967 55.7736 96.1349 55.7736ZM156.173 64.0967H161.286V61.1763H156.173V59.7161H153.69V57.5258H146.094V59.4241L108.258 51.685V48.1806H107.966L80.0644 31.5344C79.6262 31.2423 78.3114 30.8043 76.9966 31.0963C76.2662 31.2423 75.6819 31.6804 75.3898 32.4105C74.3672 34.3087 74.6593 35.915 76.7045 37.5212C77.4349 38.1052 80.6487 39.8575 83.8625 41.4637L74.9515 38.9814C74.5133 38.8353 73.0524 38.6893 71.8838 39.2734C71.2995 39.7115 70.8612 40.1495 70.5691 40.8796C69.9848 43.0699 70.8611 44.5301 73.0524 45.4062C73.9289 45.8443 77.7271 46.7204 81.5253 47.5965C75.682 47.4505 70.8612 47.4505 70.2769 47.4505C69.4004 47.4505 66.6248 47.5965 66.6248 50.6629V62.4905C63.2649 62.9285 60.9277 63.9507 60.3433 64.9728H58.7363V66.141H54.5L54.646 90.0882H55.6687V104.836L61.3658 111.261H65.164V118.854L106.067 119V117.54C114.54 117.54 134.115 117.832 145.071 117.832V118.708H164.5V116.518H154.858C155.297 115.934 155.735 115.057 155.735 113.597C155.881 109.947 153.982 109.217 153.69 109.071V65.7029H156.173V64.0967ZM156.173 62.1984H160.264V62.9285H156.173V62.1984ZM153.69 60.7383H155.151V64.3887H153.69V60.7383ZM147.847 59.2781H151.937V86.1456H151.791C151.06 82.6412 149.307 80.7429 147.847 79.7208V59.2781ZM151.937 90.8183V91.8404H146.094V87.3138H151.937V88.3359H148.139V90.9643H151.937V90.8183ZM151.937 93.0086V108.925H147.847V99.2874C147.993 99.2874 147.993 99.1414 148.139 99.1414C150.038 97.9732 151.206 95.9289 151.791 93.0086H151.937ZM150.622 86.1456H145.071V93.0086H150.622C150.184 95.4909 149.015 97.2431 147.554 98.1192C145.801 99.1414 143.756 98.9953 142.295 98.7033C143.902 95.9289 144.779 92.8625 144.779 89.5041C144.779 85.8536 143.756 82.4951 141.857 79.7208C143.61 79.2827 145.363 79.5748 146.824 80.4509C148.139 81.327 149.892 82.9332 150.622 86.1456ZM128.125 89.5041L140.542 80.7429C142.149 83.3713 143.172 86.4377 143.172 89.6501C143.172 92.7165 142.295 95.6369 140.835 98.1192L128.125 89.5041ZM140.104 98.9953C137.183 103.23 132.362 106.15 126.811 106.15C121.552 106.15 116.877 103.522 113.809 99.4334L126.957 90.0882L140.104 98.9953ZM127.103 88.774L113.955 79.7208C116.877 75.6322 121.552 73.0039 126.957 73.0039C132.216 73.0039 136.89 75.6322 139.812 79.7208L127.103 88.774ZM126.08 89.5041L113.225 98.5573C111.618 95.9289 110.596 92.8625 110.596 89.6501C110.596 86.4377 111.618 83.3713 113.225 80.7429L126.08 89.5041ZM126.957 107.903C133.092 107.903 138.497 104.69 141.711 99.8715C142.441 100.017 143.318 100.163 144.341 100.163C144.925 100.163 145.509 100.164 146.24 100.017V108.925H144.048L143.61 108.195H137.183L136.744 108.779L118.776 108.633L118.338 108.049H111.91L111.472 108.633H108.697V100.456C109.281 100.602 110.011 100.748 110.596 100.748C111.326 100.748 112.056 100.602 112.787 100.456C115.708 104.836 120.967 107.903 126.957 107.903ZM146.094 78.9907C144.487 78.4066 142.88 78.4066 141.127 78.8447C137.913 74.3181 132.654 71.3977 126.811 71.3977C120.967 71.3977 115.708 74.3181 112.495 78.8447C111.034 78.4066 109.573 78.4066 108.258 78.8447V55.9196L146.094 63.6586V78.9907ZM146.094 61.1763V62.0524L108.258 54.3134V53.4373L146.094 61.1763ZM111.91 79.8668C110.157 82.6412 109.135 85.9996 109.135 89.6501C109.135 93.1546 110.157 96.513 111.91 99.2874C110.157 99.5794 108.258 99.4334 106.797 98.4113C105.044 97.3891 103.876 95.4909 103.291 92.8625H108.989V85.9996H103.291C103.876 83.5173 105.191 81.619 106.944 80.4509C108.404 79.7208 110.157 79.4287 111.91 79.8668ZM101.685 88.1899V87.1678H107.82V91.8404H101.685V90.8183H105.775V88.1899H101.685ZM102.999 61.7604H106.359V79.4287H106.213C105.191 80.0128 103.876 81.181 102.853 83.0792L102.999 61.7604ZM106.651 108.487H103.145V96.075C103.876 97.5352 104.898 98.7033 106.067 99.4334C106.213 99.5794 106.359 99.5794 106.651 99.7254V108.487ZM106.505 60.1542H94.8187C94.0883 59.5701 92.4814 58.1099 92.3353 56.9417C92.0431 54.7515 91.1666 53.2913 89.8519 52.5612L89.7058 52.4151H84.4469V49.4948C86.0538 49.4948 87.8068 49.4948 89.5598 49.6408H89.7058C95.5491 49.7868 101.685 49.9328 106.359 49.9328L106.505 60.1542ZM86.7841 66.141H82.5477L82.4017 64.9728H81.0869C79.9183 63.6586 77.727 62.7825 74.3671 62.4905V54.0214L89.1215 54.1674C89.998 54.7515 90.2902 56.0656 90.4362 57.0878C90.7284 59.132 93.0658 61.0303 93.6501 61.4684V64.9728H89.2676V68.6233H91.4588V72.1278H93.0657V74.6101L91.4588 75.0482L91.751 76.0703L93.0657 75.7783V78.6986L91.4588 79.1367L91.751 80.1588L93.0657 79.8668V82.9332L91.4588 83.3713L91.751 84.3934L93.0657 84.1014V86.5837L91.4588 87.0218L91.751 88.0439L93.0657 87.7518V90.6722L91.4588 91.1103L91.751 92.1324L93.0657 91.6944V94.1767H89.998V98.1192H92.9197V100.31H93.9422V105.566H97.8864V100.31H99.0551V98.1192H101.246V108.341L86.6381 108.195L84.0085 110.239H80.0644L85.7616 105.128V89.6501H86.7841V66.141ZM100.954 66.141V67.6012H90.4362V66.141H100.954ZM94.9647 64.8268V61.9064H97.156V64.8268H94.9647ZM100.516 90.8183V93.0086H101.246V94.1767H98.3247V90.3802L100.078 89.9421L99.7856 88.92L98.3247 89.3581V86.4377L100.078 85.9996L99.7856 84.9775L98.3247 85.4155V82.9332L100.078 82.4952L99.7856 81.473L98.3247 81.9111V78.8447L100.078 78.4066L99.7856 77.3845L98.3247 77.8225V74.9021L100.078 74.4641L99.7856 73.4419L98.3247 73.88V72.8579H100.078V69.3534H101.246V86.7297H100.516V88.774H100.37L100.516 90.8183ZM91.4588 97.0971V95.3449H100.224V97.0971H91.4588ZM94.2343 99.2874V98.2653H98.0325V99.2874H94.2343ZM97.01 100.456V104.544H95.403V100.456H97.01ZM94.3805 86.2917V83.8093L97.3021 83.0792V85.5616L94.3805 86.2917ZM97.3021 86.5837V89.5041L94.3805 90.2342V87.3138L97.3021 86.5837ZM94.3805 82.6412V79.5748L97.3021 78.8447V81.9111L94.3805 82.6412ZM94.3805 78.4066V75.4862L97.3021 74.7561V77.6765L94.3805 78.4066ZM94.3805 74.3181V72.2738H97.3021V73.588L94.3805 74.3181ZM92.7735 71.1056V68.7693H99.0551V71.1056H92.7735ZM94.3805 91.5484L97.3021 90.8183V94.3227H94.3805V91.5484ZM98.1786 64.9728V61.7604H101.246V64.9728H98.1786ZM77.581 36.061C76.1202 34.8928 76.1202 34.1627 76.7045 33.1406C76.8506 32.8485 76.9967 32.7025 77.2889 32.7025C77.8732 32.5565 78.7496 32.8485 79.0418 32.9946L101.831 46.5744L92.0431 43.8C87.9528 41.6097 78.7497 36.9371 77.581 36.061ZM73.7828 43.8C72.1759 43.0699 72.0298 42.3398 72.322 41.1716C72.322 40.8796 72.4681 40.7336 72.7603 40.5876C73.3446 40.2955 74.221 40.2955 74.5132 40.4416L91.6049 45.2602C91.751 45.4062 91.897 45.4062 92.0431 45.4062L101.1 48.0346C98.0324 48.0346 94.0883 47.8885 89.998 47.8885C85.6155 46.8664 75.0975 44.5301 73.7828 43.8ZM78.7497 49.3487H83.2781V52.2691H78.7497V49.3487ZM70.2769 49.2027H77.581V52.2691L69.4003 52.1231C69.2543 52.1231 68.8161 51.9771 68.5239 51.685C68.2317 51.393 68.2317 51.101 68.2317 50.6629C68.2317 49.7868 68.5239 49.3487 70.2769 49.2027ZM68.2317 53.5833C68.6699 53.8753 69.1082 53.8753 69.4003 53.8753H72.7603V62.1984H70.8612C69.9847 62.1984 69.1082 62.1985 68.2317 62.3445V53.5833ZM70.7151 63.9507C74.5133 63.9507 76.8506 64.3887 78.1653 64.9728H63.411C64.8718 64.5348 67.2091 63.9507 70.7151 63.9507ZM56.253 67.7472H85.1773L85.3233 88.0439L56.3991 88.1899L56.253 67.7472ZM62.5345 99.7254H57.2755V95.7829H62.6806C62.3884 96.513 62.3884 97.3891 62.3884 98.1192C62.3884 98.7033 62.5345 99.2874 62.5345 99.7254ZM57.2755 94.7608V90.0882L69.4003 89.9421C66.6248 90.3802 64.2875 92.2784 63.1188 94.7608H57.2755ZM70.7151 90.8183C74.6593 90.8183 77.8731 94.1767 77.8731 98.2653C77.8731 102.354 74.6593 105.712 70.7151 105.712C66.7709 105.712 63.557 102.354 63.557 98.2653C63.557 94.1767 66.7709 90.8183 70.7151 90.8183ZM57.2755 104.106V100.894H62.8266C63.8492 104.252 67.0631 106.734 70.7151 106.734C75.2437 106.734 79.0418 102.938 79.0418 98.2653C79.0418 94.0307 75.9741 90.5262 71.8838 89.9421L84.1547 89.7961V104.544L81.0869 107.172H59.905L57.2755 104.106ZM62.0962 109.363L61.0737 108.195H80.0644L78.6036 109.509L62.0962 109.363ZM111.034 114.765H104.168V111.991H107.82V114.619L111.034 114.765ZM153.982 113.305C153.836 115.496 152.959 115.788 152.375 115.934C151.353 116.08 129.732 115.934 112.203 115.788V110.823H103.145V115.788H104.314V117.102L66.7709 116.956V111.845L84.5929 112.137L87.2224 110.093L153.252 110.677C153.544 110.823 154.128 111.553 153.982 113.305ZM68.2316 115.642H75.0975V112.283H68.2316V115.642ZM69.4003 113.305H73.9288V114.473H69.4003V113.305ZM142.734 115.788H151.791V110.823H142.734V115.788ZM143.756 113.013H145.801V113.451H143.756V113.013ZM143.756 114.619H146.97V111.991H150.622V114.766L143.756 114.619Z" stroke="#343941" stroke-width="1.5"/>
</svg>
