<svg width="100%" height="100%" viewBox="0 0 219 150" fill="none" xmlns="http://www.w3.org/2000/svg">
<path fill-rule="evenodd" clip-rule="evenodd" d="M110.063 44H120.371L121.993 45.7321H124.952C125.481 45.7321 125.922 45.8756 126.273 46.1257C126.619 46.3718 126.839 46.6929 126.978 46.9888C127.115 47.2827 127.181 47.5679 127.213 47.7735C127.229 47.878 127.238 47.9665 127.242 48.0315C127.244 48.0641 127.245 48.0911 127.246 48.1115C127.246 48.1218 127.246 48.1305 127.247 48.1374V48.1465L127.247 48.1501V48.1524C127.247 48.1527 127.247 48.153 126.595 48.153L127.247 48.1524V49.8851H126.594C127.247 49.8851 127.247 49.8848 127.247 49.8851V49.888L127.247 49.8916V49.9007C127.246 49.9077 127.246 49.9163 127.246 49.9266C127.245 49.9471 127.244 49.9741 127.242 50.0067C127.238 50.0716 127.229 50.1601 127.213 50.2646C127.181 50.4702 127.115 50.7554 126.978 51.0493C126.839 51.3453 126.619 51.6663 126.273 51.9124C126.083 52.0478 125.867 52.152 125.624 52.2191V56.9702L124.398 59.5886H127.525V58.5454H128.178C127.525 58.5454 127.525 58.5457 127.525 58.5454V58.5425V58.5389V58.5298C127.525 58.5228 127.526 58.5142 127.526 58.5039C127.527 58.4834 127.528 58.4564 127.53 58.4238C127.534 58.3589 127.543 58.2704 127.559 58.1659C127.591 57.9603 127.657 57.6751 127.794 57.3812C127.933 57.0853 128.153 56.7643 128.498 56.5181C128.85 56.268 129.291 56.1245 129.82 56.1245H133.065V56.7243C133.065 56.1245 133.065 56.1245 133.065 56.1245H133.068L133.072 56.1245L133.081 56.1246C133.088 56.1248 133.096 56.125 133.106 56.1253C133.127 56.1261 133.153 56.1274 133.185 56.1298C133.247 56.1346 133.333 56.1438 133.433 56.1617C133.631 56.1969 133.905 56.2687 134.187 56.4188C134.471 56.5707 134.772 56.8079 135 57.1726C135.23 57.5404 135.36 57.9974 135.36 58.5454V64.5384C137.299 65.4853 138.703 67.2842 138.703 69.3752V75.6633H155.844C156.323 75.6633 156.708 75.8986 156.986 76.2074C157.256 76.5058 157.449 76.8936 157.589 77.2937C157.871 78.0974 158 79.1224 158 80.1117C158 81.1011 157.871 82.126 157.589 82.9297C157.449 83.33 157.256 83.7176 156.986 84.0161C156.708 84.325 156.323 84.5602 155.844 84.5602H138.703V91.3725C138.703 93.4914 137.266 95.1611 135.36 96.1863V101.919L135.345 101.989L134.688 101.847C135.345 101.989 135.345 101.989 135.345 101.989L135.345 101.991L135.344 101.994L135.342 102.001L135.337 102.024C135.333 102.043 135.327 102.067 135.32 102.097C135.304 102.157 135.281 102.239 135.249 102.337C135.187 102.529 135.085 102.792 134.932 103.061C134.634 103.582 134.05 104.268 133.065 104.268H129.82C129.291 104.268 128.85 104.124 128.498 103.874C128.153 103.628 127.933 103.307 127.794 103.011C127.657 102.717 127.591 102.432 127.559 102.226C127.543 102.122 127.534 102.033 127.53 101.968C127.528 101.936 127.527 101.909 127.526 101.888C127.526 101.878 127.525 101.87 127.525 101.863V101.853V101.85V101.848C127.525 101.847 127.525 101.847 128.172 101.847L127.525 101.848V100.804H124.907L125.624 101.57V101.915C125.624 102.729 125.625 103.685 125.389 104.439C125.263 104.844 125.053 105.248 124.691 105.549C124.32 105.856 123.858 106 123.33 106H90.8782C90.4005 106 89.9751 105.882 89.6249 105.625C89.2772 105.37 89.0634 105.02 88.931 104.663C88.6813 103.99 88.6751 103.148 88.6759 102.469C88.6759 102.468 88.6759 102.467 88.6759 102.466C88.6759 102.466 88.6759 102.466 88.6759 102.466L88.6764 102.283L88.6774 101.775L89.5563 100.804H68.4603L68.4305 100.801L68.4903 100.115C68.4305 100.801 68.4308 100.801 68.4305 100.801L68.4273 100.801L68.422 100.8L68.4046 100.799C68.3902 100.797 68.37 100.795 68.3445 100.792C68.2934 100.786 68.2209 100.777 68.1296 100.763C67.9473 100.736 67.6895 100.693 67.3795 100.624C66.7618 100.488 65.9249 100.252 65.0595 99.8498C63.3378 99.0502 61.3938 97.5353 61.0068 94.7579L61 94.7094V65.4228L61.0073 65.3726C61.3979 62.6745 63.3572 61.2285 65.0725 60.476C65.9372 60.0967 66.7733 59.8767 67.39 59.7513C67.6996 59.6884 67.9569 59.6486 68.1388 59.6244C68.2298 59.6123 68.3022 59.6041 68.3531 59.5987C68.3785 59.5961 68.3986 59.5942 68.4129 59.5928L68.4301 59.5913L68.4354 59.5909L68.4379 59.5907C68.4382 59.5907 68.4385 59.5906 68.4903 60.2775L68.4379 59.5907L68.4644 59.5886H106.036L104.809 56.9702V52.1964C104.67 52.1542 104.516 52.095 104.36 52.0117C104.075 51.8598 103.774 51.6226 103.546 51.2579C103.317 50.8902 103.187 50.4331 103.187 49.8851V48.153H103.859C103.187 48.153 103.187 48.1534 103.187 48.153V48.1501L103.187 48.1465V48.1374C103.187 48.1304 103.187 48.1218 103.187 48.1115C103.188 48.091 103.189 48.0641 103.191 48.0315C103.196 47.9665 103.204 47.878 103.221 47.7735C103.253 47.5679 103.318 47.2827 103.456 46.9888C103.594 46.6929 103.814 46.3718 104.16 46.1257C104.512 45.8756 104.952 45.7321 105.481 45.7321H108.44L110.063 44ZM106.153 52.3061V56.6566L107.527 59.5886H122.907L124.28 56.6566V52.3061H106.153ZM105.487 50.9283H124.952C125.234 50.9283 125.402 50.8553 125.507 50.7807C125.617 50.702 125.702 50.59 125.766 50.453C125.831 50.3139 125.867 50.166 125.886 50.0469C125.895 49.989 125.899 49.9422 125.901 49.9124C125.902 49.8976 125.902 49.8874 125.903 49.8825C125.903 49.8818 125.903 49.8812 125.903 49.8807V48.1574C125.903 48.1569 125.903 48.1563 125.903 48.1556C125.902 48.1507 125.902 48.1405 125.901 48.1257C125.899 48.096 125.895 48.0491 125.886 47.9913C125.867 47.8721 125.831 47.7243 125.766 47.5851C125.702 47.4481 125.617 47.3361 125.507 47.2575C125.402 47.1828 125.234 47.1098 124.952 47.1098H121.421L119.798 45.3778H110.635L109.013 47.1098H105.481C105.199 47.1098 105.031 47.1828 104.927 47.2575C104.816 47.3361 104.732 47.4481 104.667 47.5852C104.602 47.7243 104.566 47.8721 104.548 47.9913C104.539 48.0492 104.534 48.096 104.532 48.1258C104.531 48.1405 104.531 48.1507 104.531 48.1556C104.531 48.1563 104.531 48.1569 104.531 48.1574V49.8851C104.531 50.2032 104.604 50.3956 104.678 50.515C104.755 50.6374 104.859 50.725 104.98 50.7896C105.105 50.8559 105.237 50.8925 105.343 50.9114C105.394 50.9205 105.436 50.9248 105.461 50.9268C105.469 50.9274 105.475 50.9277 105.48 50.928C105.483 50.9281 105.485 50.9282 105.487 50.9283ZM68.5198 60.9663C68.5116 60.9672 68.5015 60.9682 68.4893 60.9694C68.45 60.9735 68.3898 60.9804 68.3117 60.9907C68.1554 61.0116 67.928 61.0466 67.6516 61.1028C67.0965 61.2156 66.3558 61.4117 65.6012 61.7426C64.0902 62.4055 62.6515 63.5443 62.3441 65.5262V94.61C62.6538 96.6959 64.1085 97.8954 65.6142 98.5949C66.3682 98.9449 67.1079 99.1551 67.6621 99.2772C67.938 99.338 68.165 99.3764 68.3209 99.3994C68.3988 99.4109 68.4587 99.4184 68.4979 99.4231C68.5081 99.4243 68.5169 99.4253 68.5242 99.4261H86.961V60.9663H68.5198ZM88.3052 60.9663V99.4261H90.8026L94.5886 95.2405L95.5741 96.1772L90.0206 102.317L90.0201 102.467C90.0192 103.201 90.0408 103.779 90.1873 104.174C90.2532 104.351 90.3301 104.448 90.4081 104.505C90.4833 104.561 90.6183 104.622 90.8782 104.622H123.33C123.613 104.622 123.759 104.55 123.845 104.478C123.939 104.4 124.033 104.263 124.109 104.019C124.256 103.549 124.277 102.903 124.28 102.124L122.845 100.592L121.004 98.6275L118.793 96.1765L119.779 95.241L121.983 97.6824L123.616 99.4261H127.525V60.9663H88.3052ZM134.015 101.763V58.5454C134.015 58.2273 133.943 58.0349 133.868 57.9155C133.791 57.7931 133.687 57.7055 133.566 57.6409C133.442 57.5746 133.31 57.5381 133.204 57.5192C133.152 57.51 133.111 57.5057 133.085 57.5038C133.072 57.5028 133.063 57.5024 133.06 57.5023L129.82 57.5023C129.538 57.5023 129.37 57.5752 129.265 57.6499C129.155 57.7285 129.07 57.8405 129.006 57.9776C128.941 58.1167 128.905 58.2645 128.886 58.3836C128.877 58.4415 128.873 58.4884 128.871 58.5181C128.87 58.5329 128.87 58.5431 128.869 58.548C128.869 58.5487 128.869 58.5493 128.869 58.5498V101.843C128.869 101.842 128.869 101.843 128.869 101.843C128.87 101.848 128.87 101.859 128.871 101.874C128.873 101.904 128.877 101.951 128.886 102.009C128.905 102.128 128.941 102.276 129.006 102.415C129.07 102.552 129.155 102.664 129.265 102.742C129.37 102.817 129.538 102.89 129.82 102.89H133.065C133.347 102.89 133.574 102.71 133.771 102.365C133.865 102.201 133.932 102.031 133.975 101.899C133.993 101.843 134.006 101.797 134.015 101.763ZM135.36 94.5911C136.634 93.7307 137.358 92.5933 137.358 91.3725V69.3752C137.358 68.1345 136.614 66.9136 135.36 66.1063V94.5911ZM138.703 83.1826H155.844C155.859 83.1826 155.907 83.1829 156 83.0804C156.101 82.9678 156.218 82.768 156.324 82.4632C156.537 81.8571 156.656 81.0023 156.656 80.1117C156.656 79.2213 156.537 78.3664 156.324 77.7602C156.218 77.4556 156.101 77.2557 156 77.1431C155.907 77.0405 155.859 77.0411 155.844 77.0411H138.703V83.1826ZM124.953 66.1626H89.3499V64.7848H124.953V66.1626ZM89.3499 70.5582H124.952V71.936H89.3499V70.5582ZM124.952 77.5272H89.2556V76.1494H124.952V77.5272ZM89.3481 81.7408H124.952V83.1185H89.3481V81.7408ZM124.952 88.5591H89.3499V87.1814H124.952V88.5591ZM97.3685 93.722H89.3499V92.3442H97.3685V93.722ZM116.839 92.3442H124.952V93.722H116.839V92.3442Z" fill="#343941"/>
<path d="M127.247 48.1524V48.1501L127.247 48.1465V48.1374C127.246 48.1305 127.246 48.1218 127.246 48.1115C127.245 48.0911 127.244 48.0641 127.242 48.0315C127.238 47.9665 127.229 47.878 127.213 47.7735C127.181 47.5679 127.115 47.2827 126.978 46.9888C126.839 46.6929 126.619 46.3718 126.273 46.1257C125.922 45.8756 125.481 45.7321 124.952 45.7321H121.993L120.371 44H110.063L108.44 45.7321H105.481C104.952 45.7321 104.512 45.8756 104.16 46.1257C103.814 46.3718 103.594 46.6929 103.456 46.9888C103.318 47.2827 103.253 47.5679 103.221 47.7735C103.204 47.878 103.196 47.9665 103.191 48.0315C103.189 48.0641 103.188 48.091 103.187 48.1115C103.187 48.1218 103.187 48.1304 103.187 48.1374V48.1465L103.187 48.1501V48.153M127.247 48.1524C127.247 48.1527 127.247 48.153 126.595 48.153L127.247 48.1524ZM127.247 48.1524V49.8851M127.247 49.8851H126.594C127.247 49.8851 127.247 49.8848 127.247 49.8851ZM127.247 49.8851V49.888L127.247 49.8916V49.9007C127.246 49.9077 127.246 49.9163 127.246 49.9266C127.245 49.9471 127.244 49.9741 127.242 50.0067C127.238 50.0716 127.229 50.1601 127.213 50.2646C127.181 50.4702 127.115 50.7554 126.978 51.0493C126.839 51.3453 126.619 51.6663 126.273 51.9124C126.083 52.0478 125.867 52.152 125.624 52.2191V56.9702L124.398 59.5886H127.525V58.5454M127.525 58.5454H128.178C127.525 58.5454 127.525 58.5457 127.525 58.5454ZM127.525 58.5454V58.5425V58.5389V58.5298C127.525 58.5228 127.526 58.5142 127.526 58.5039C127.527 58.4834 127.528 58.4564 127.53 58.4238C127.534 58.3589 127.543 58.2704 127.559 58.1659C127.591 57.9603 127.657 57.6751 127.794 57.3812C127.933 57.0853 128.153 56.7643 128.498 56.5181C128.85 56.268 129.291 56.1245 129.82 56.1245H133.065M133.065 56.1245V56.7243C133.065 56.1245 133.065 56.1245 133.065 56.1245ZM133.065 56.1245H133.068L133.072 56.1245L133.081 56.1246C133.088 56.1248 133.096 56.125 133.106 56.1253C133.127 56.1261 133.153 56.1274 133.185 56.1298C133.247 56.1346 133.333 56.1438 133.433 56.1617C133.631 56.1969 133.905 56.2686 134.187 56.4188C134.471 56.5707 134.772 56.8079 135 57.1726C135.23 57.5404 135.36 57.9974 135.36 58.5454V64.5384C137.299 65.4853 138.703 67.2842 138.703 69.3752V75.6633H155.844C156.323 75.6633 156.708 75.8986 156.986 76.2074C157.256 76.5058 157.449 76.8936 157.589 77.2937C157.871 78.0974 158 79.1224 158 80.1117C158 81.1011 157.871 82.126 157.589 82.9297C157.449 83.33 157.256 83.7176 156.986 84.0161C156.708 84.325 156.323 84.5602 155.844 84.5602H138.703V91.3725C138.703 93.4914 137.266 95.1611 135.36 96.1863V101.919L135.345 101.989M135.345 101.989L134.688 101.847C135.345 101.989 135.345 101.989 135.345 101.989ZM135.345 101.989L135.345 101.991L135.344 101.994L135.342 102.001L135.337 102.024C135.333 102.043 135.327 102.067 135.32 102.097C135.304 102.157 135.281 102.239 135.249 102.337C135.187 102.529 135.085 102.792 134.932 103.061C134.634 103.582 134.05 104.268 133.065 104.268H129.82C129.291 104.268 128.85 104.124 128.498 103.874C128.153 103.628 127.933 103.307 127.794 103.011C127.657 102.717 127.591 102.432 127.559 102.226C127.543 102.122 127.534 102.033 127.53 101.968C127.528 101.936 127.527 101.909 127.526 101.888C127.526 101.878 127.525 101.87 127.525 101.863V101.853V101.85V101.848M127.525 101.848C127.525 101.847 127.525 101.847 128.172 101.847L127.525 101.848ZM127.525 101.848V100.804H124.907L125.624 101.57V101.915C125.624 102.729 125.625 103.685 125.389 104.439C125.263 104.844 125.053 105.248 124.691 105.549C124.32 105.856 123.858 106 123.33 106H90.8782C90.4005 106 89.9751 105.882 89.6249 105.625C89.2772 105.37 89.0634 105.02 88.931 104.663C88.6813 103.99 88.6751 103.148 88.6759 102.469C88.6759 102.468 88.6759 102.467 88.6759 102.466M88.6759 102.466C88.6759 102.466 88.6759 102.466 88.6759 102.466ZM88.6759 102.466L88.6764 102.283L88.6774 101.775L89.5563 100.804H68.4603L68.4305 100.801M68.4305 100.801L68.4903 100.115C68.4305 100.801 68.4308 100.801 68.4305 100.801ZM68.4305 100.801L68.4273 100.801L68.422 100.8L68.4046 100.799C68.3902 100.797 68.37 100.795 68.3445 100.792C68.2934 100.786 68.2209 100.777 68.1296 100.763C67.9473 100.736 67.6895 100.693 67.3795 100.624C66.7618 100.488 65.9249 100.252 65.0595 99.8498C63.3378 99.0502 61.3938 97.5353 61.0068 94.7579L61 94.7094V65.4228L61.0073 65.3726C61.3979 62.6745 63.3572 61.2285 65.0725 60.476C65.9372 60.0967 66.7733 59.8767 67.39 59.7513C67.6996 59.6884 67.9569 59.6486 68.1388 59.6244C68.2298 59.6123 68.3022 59.6041 68.3531 59.5987C68.3785 59.5961 68.3986 59.5942 68.4129 59.5928L68.4301 59.5913L68.4354 59.5909L68.4379 59.5907M68.4379 59.5907C68.4382 59.5907 68.4385 59.5906 68.4903 60.2775L68.4379 59.5907ZM68.4379 59.5907L68.4644 59.5886H106.036L104.809 56.9702V52.1964C104.67 52.1542 104.516 52.095 104.36 52.0117C104.075 51.8598 103.774 51.6226 103.546 51.2579C103.317 50.8902 103.187 50.4331 103.187 49.8851V48.153M103.187 48.153H103.859C103.187 48.153 103.187 48.1534 103.187 48.153ZM128.869 101.843V58.5498C128.869 58.5493 128.869 58.5487 128.869 58.548C128.87 58.5431 128.87 58.5329 128.871 58.5181C128.873 58.4884 128.877 58.4415 128.886 58.3836C128.905 58.2645 128.941 58.1167 129.006 57.9776C129.07 57.8405 129.155 57.7285 129.265 57.6499C129.37 57.5752 129.538 57.5023 129.82 57.5023L133.06 57.5023C133.063 57.5024 133.072 57.5028 133.085 57.5038C133.111 57.5057 133.152 57.51 133.204 57.5192C133.31 57.5381 133.442 57.5746 133.566 57.6409C133.687 57.7055 133.791 57.7931 133.868 57.9155C133.943 58.0349 134.015 58.2273 134.015 58.5454V101.763C134.006 101.797 133.993 101.843 133.975 101.899C133.932 102.031 133.865 102.201 133.771 102.365C133.574 102.71 133.347 102.89 133.065 102.89H129.82C129.538 102.89 129.37 102.817 129.265 102.742C129.155 102.664 129.07 102.552 129.006 102.415C128.941 102.276 128.905 102.128 128.886 102.009C128.877 101.951 128.873 101.904 128.871 101.874C128.87 101.859 128.87 101.848 128.869 101.843ZM128.869 101.843C128.869 101.843 128.869 101.842 128.869 101.843ZM106.153 52.3061V56.6566L107.527 59.5886H122.907L124.28 56.6566V52.3061H106.153ZM105.487 50.9283H124.952C125.234 50.9283 125.402 50.8553 125.507 50.7807C125.617 50.702 125.702 50.59 125.766 50.453C125.831 50.3139 125.867 50.166 125.886 50.0469C125.895 49.989 125.899 49.9422 125.901 49.9124C125.902 49.8976 125.902 49.8874 125.903 49.8825C125.903 49.8818 125.903 49.8812 125.903 49.8807V48.1574C125.903 48.1569 125.903 48.1563 125.903 48.1556C125.902 48.1507 125.902 48.1405 125.901 48.1257C125.899 48.096 125.895 48.0491 125.886 47.9913C125.867 47.8721 125.831 47.7243 125.766 47.5851C125.702 47.4481 125.617 47.3361 125.507 47.2575C125.402 47.1828 125.234 47.1098 124.952 47.1098H121.421L119.798 45.3778H110.635L109.013 47.1098H105.481C105.199 47.1098 105.031 47.1828 104.927 47.2575C104.816 47.3361 104.732 47.4481 104.667 47.5852C104.602 47.7243 104.566 47.8721 104.548 47.9913C104.539 48.0492 104.534 48.096 104.532 48.1258C104.531 48.1405 104.531 48.1507 104.531 48.1556C104.531 48.1563 104.531 48.1569 104.531 48.1574V49.8851C104.531 50.2032 104.604 50.3956 104.678 50.515C104.755 50.6374 104.859 50.725 104.98 50.7896C105.105 50.8559 105.237 50.8925 105.343 50.9114C105.394 50.9205 105.436 50.9248 105.461 50.9268C105.469 50.9274 105.475 50.9277 105.48 50.928C105.483 50.9281 105.485 50.9282 105.487 50.9283ZM68.5198 60.9663C68.5116 60.9672 68.5015 60.9682 68.4893 60.9694C68.45 60.9735 68.3898 60.9804 68.3117 60.9907C68.1554 61.0116 67.928 61.0466 67.6516 61.1028C67.0965 61.2156 66.3558 61.4117 65.6012 61.7426C64.0902 62.4055 62.6515 63.5443 62.3441 65.5262V94.61C62.6538 96.6959 64.1085 97.8954 65.6142 98.5949C66.3682 98.9449 67.1079 99.1551 67.6621 99.2772C67.938 99.338 68.165 99.3764 68.3209 99.3994C68.3988 99.4109 68.4587 99.4184 68.4979 99.4231C68.5081 99.4243 68.5169 99.4253 68.5242 99.4261H86.961V60.9663H68.5198ZM88.3052 60.9663V99.4261H90.8026L94.5886 95.2405L95.5741 96.1772L90.0206 102.317L90.0201 102.467C90.0192 103.201 90.0408 103.779 90.1873 104.174C90.2532 104.351 90.3301 104.448 90.4081 104.505C90.4833 104.561 90.6183 104.622 90.8782 104.622H123.33C123.613 104.622 123.759 104.55 123.845 104.478C123.939 104.4 124.033 104.263 124.109 104.019C124.256 103.549 124.277 102.903 124.28 102.124L122.845 100.592L121.004 98.6275L118.793 96.1765L119.779 95.241L121.983 97.6824L123.616 99.4261H127.525V60.9663H88.3052ZM135.36 94.5911C136.634 93.7307 137.358 92.5933 137.358 91.3725V69.3752C137.358 68.1345 136.614 66.9136 135.36 66.1063V94.5911ZM138.703 83.1826H155.844C155.859 83.1826 155.907 83.1829 156 83.0804C156.101 82.9678 156.218 82.768 156.324 82.4632C156.537 81.8571 156.656 81.0023 156.656 80.1117C156.656 79.2213 156.537 78.3664 156.324 77.7602C156.218 77.4556 156.101 77.2557 156 77.1431C155.907 77.0405 155.859 77.0411 155.844 77.0411H138.703V83.1826ZM124.953 66.1626H89.3499V64.7848H124.953V66.1626ZM89.3499 70.5582H124.952V71.936H89.3499V70.5582ZM124.952 77.5272H89.2556V76.1494H124.952V77.5272ZM89.3481 81.7408H124.952V83.1184H89.3481V81.7408ZM124.952 88.5591H89.3499V87.1814H124.952V88.5591ZM97.3685 93.722H89.3499V92.3442H97.3685V93.722ZM116.839 92.3442H124.952V93.722H116.839V92.3442Z" stroke="#343941" stroke-width="1.5"/>
</svg>
