<svg width="100%" height="100%" viewBox="0 0 219 150" fill="none" xmlns="http://www.w3.org/2000/svg">
<path d="M149.5 128.394C149.498 128.56 149.431 128.714 149.32 128.823C149.207 128.935 149.049 129 148.876 129H142.832C142.256 129 141.784 128.543 141.784 127.978V121.631C141.784 121.207 141.432 120.866 141 120.866H77.9998C77.5681 120.866 77.2156 121.21 77.2156 121.631V127.973C77.2156 128.541 76.7496 129 76.1732 129H70.1235C69.7795 129 69.5 128.726 69.5 128.389V74.3342C69.5 73.9969 69.7785 73.7233 70.1235 73.7233H76.1732C76.7491 73.7233 77.2156 74.1853 77.2156 74.75V85.4052C77.7014 86.0386 78.3293 86.5627 79.0616 86.9C79.5405 87.1191 80.0699 87.2393 80.596 87.2393H81.0344L81.0294 86.4851L81.0344 86.2079C81.0344 86.048 81.1069 85.9075 81.2097 85.7975C81.1032 85.6875 81.0294 85.5451 81.0294 85.3815V75.3138C81.0294 74.7491 81.5002 74.2868 82.0766 74.2868H82.5101V74.0965C82.5101 73.7591 82.7895 73.4855 83.1336 73.4855H83.3578V71.0546C83.3578 70.8364 83.4745 70.6322 83.6695 70.524L84.3466 70.1376C84.4418 70.0822 84.5481 70.0544 84.6583 70.0544H87.8147C87.8344 70.0544 87.853 70.0544 87.873 70.0544H88.5306L91.2973 67.3417V67.1801C91.2973 66.2315 91.6501 65.3173 92.2861 64.601L100.313 55.6076C100.43 55.4708 100.602 55.3969 100.781 55.3969H101.502V55.2483H101.063C100.719 55.2483 100.44 54.9747 100.44 54.6374V54.1125L89.422 49.7901H80.8102C79.8452 49.7901 79.0615 49.0216 79.0615 48.0752V44.7609C79.0615 43.8143 79.8454 43.0511 80.8102 43.0511H102.627V40.2382C102.627 39.9009 102.906 39.6273 103.25 39.6273H103.328V27.0711C103.328 23.731 106.096 21.0149 109.505 21.0149L109.504 21C112.913 21 115.686 23.7161 115.686 27.0561V39.6124H115.763C116.108 39.6124 116.382 39.886 116.382 40.2233V43.0362H138.189C139.154 43.0362 139.938 43.7999 139.938 44.7462V48.0606C139.938 49.0072 139.154 49.7754 138.189 49.7754H129.582L118.554 54.0975L118.564 54.6224C118.564 54.9579 118.278 55.2309 117.936 55.2333H117.498V55.3823H118.219C118.398 55.3823 118.569 55.4608 118.686 55.593L126.713 64.5861C127.352 65.3026 127.702 66.2166 127.702 67.1651V67.3242L130.469 70.0369H134.346C134.455 70.0369 134.563 70.0647 134.658 70.1201L135.34 70.5029C135.532 70.611 135.652 70.8162 135.652 71.0334V73.4692H135.871C136.215 73.4692 136.494 73.7425 136.494 74.0798V74.2705H136.923C137.067 74.2705 137.207 74.2979 137.332 74.3534C137.58 74.4578 137.782 74.6528 137.887 74.8978C137.94 75.0198 137.97 75.1577 137.97 75.2991V85.3668C137.97 85.5323 137.903 85.6774 137.795 85.7874C137.896 85.8955 137.969 86.037 137.97 86.1932V87.2298H138.413C138.947 87.2298 139.461 87.1198 139.948 86.8952C140.676 86.56 141.297 86.0384 141.784 85.41V74.7452C141.784 74.1805 142.255 73.723 142.831 73.723H148.866C148.871 73.723 148.871 73.723 148.876 73.723C149.048 73.723 149.207 73.7941 149.32 73.9041C149.433 74.0141 149.5 74.1693 149.5 74.3385V128.394ZM149.5 128.394C149.5 128.392 149.5 128.396 149.5 128.394ZM109.505 22.2376C112.225 22.2376 114.434 24.408 114.434 27.0756V40.2433C114.434 40.5807 114.713 40.8542 115.057 40.8542H115.135V43.0511H103.874V40.8542H103.947C104.291 40.8542 104.57 40.5807 104.57 40.2433V27.0756C104.57 24.408 106.784 22.2376 109.505 22.2376ZM80.8101 44.2741H83.5767C83.6965 44.2741 83.796 44.3722 83.796 44.4896V48.3485C83.796 48.4687 83.6992 48.5685 83.5767 48.5685H80.8101C80.533 48.5685 80.3084 48.3486 80.3084 48.0769V44.7626C80.3084 44.4909 80.5331 44.2741 80.8101 44.2741ZM84.999 44.2741H86.0901C86.0777 44.348 86.0462 44.4138 86.0462 44.4896V48.3485C86.0462 48.4225 86.0779 48.4928 86.0901 48.5685H84.999C85.0115 48.4946 85.043 48.4271 85.043 48.3485V44.4896C85.043 44.4156 85.0108 44.3471 84.999 44.2741ZM87.5124 44.2741H94.0735C94.1933 44.2741 94.2928 44.3722 94.2928 44.4896V48.3485C94.2928 48.4687 94.1962 48.5685 94.0735 48.5685H87.5124C87.3927 48.5685 87.2932 48.4678 87.2932 48.3485V44.4896C87.2932 44.3722 87.39 44.2741 87.5124 44.2741ZM95.4959 44.2741H96.587C96.5745 44.348 96.543 44.4138 96.543 44.4896V48.3485C96.543 48.4225 96.5747 48.4928 96.587 48.5685H95.4959C95.5083 48.4946 95.5398 48.4271 95.5398 48.3485V44.4896C95.5398 44.4156 95.5077 44.3471 95.4959 44.2741ZM98.0093 44.2741H103.138C103.256 44.3018 103.378 44.311 103.489 44.2741C103.609 44.2741 103.708 44.3722 103.708 44.4896V48.3485C103.708 48.4687 103.612 48.5685 103.489 48.5685H98.0093C97.8895 48.5685 97.79 48.4678 97.79 48.3485V44.4896C97.79 44.3722 97.8865 44.2741 98.0093 44.2741ZM104.916 44.2741H105.998C105.985 44.348 105.954 44.4138 105.954 44.4896V48.3485C105.954 48.4225 105.99 48.4928 106.002 48.5685H104.911C104.924 48.4946 104.955 48.4271 104.955 48.3485V44.4896C104.955 44.4156 104.928 44.3471 104.916 44.2741ZM107.42 44.2741H111.584C111.704 44.2741 111.804 44.3722 111.804 44.4896V48.3485C111.804 48.4687 111.704 48.5685 111.584 48.5685H107.42C107.3 48.5685 107.201 48.4678 107.201 48.3485V44.4896C107.201 44.3722 107.297 44.2741 107.42 44.2741ZM113.007 44.2741H114.083C114.071 44.348 114.054 44.4156 114.054 44.4896V48.3485C114.054 48.4225 114.086 48.4928 114.098 48.5685H113.007C113.019 48.4946 113.051 48.4271 113.051 48.3485V44.4896C113.051 44.4156 113.019 44.3471 113.007 44.2741ZM115.924 44.2741H120.995C121.115 44.2741 121.214 44.3722 121.214 44.4896V48.3485C121.214 48.4687 121.118 48.5685 120.995 48.5685H115.53C115.41 48.5685 115.311 48.4735 115.311 48.3533V44.4272C115.338 44.332 115.484 44.2609 115.583 44.2831C115.699 44.3108 115.814 44.3018 115.924 44.2741ZM122.417 44.2741H123.508C123.496 44.348 123.465 44.4138 123.465 44.4896V48.3485C123.465 48.4225 123.496 48.4928 123.508 48.5685H122.417C122.43 48.4946 122.461 48.4271 122.461 48.3485V44.4896C122.461 44.4156 122.429 44.3471 122.417 44.2741ZM124.931 44.2741H131.492C131.612 44.2741 131.711 44.3722 131.711 44.4896V48.3485C131.711 48.4687 131.614 48.5685 131.492 48.5685H124.931C124.811 48.5685 124.712 48.4678 124.712 48.3485V44.4896C124.712 44.3722 124.808 44.2741 124.931 44.2741ZM132.914 44.2741H134.005C133.993 44.348 133.961 44.4138 133.961 44.4896V48.3485C133.961 48.4225 133.993 48.4928 134.005 48.5685H132.914C132.927 48.4946 132.958 48.4271 132.958 48.3485V44.4896C132.958 44.4156 132.926 44.3471 132.914 44.2741ZM135.428 44.2741H138.189C138.467 44.2741 138.691 44.4894 138.691 44.7612V48.0755C138.691 48.3472 138.466 48.5671 138.189 48.5671H135.428C135.308 48.5671 135.208 48.4664 135.208 48.3471V44.4879C135.208 44.3705 135.305 44.2741 135.428 44.2741ZM92.7682 49.7904H96.2752L100.44 51.338V52.7995L92.7682 49.7904ZM100.971 49.7904H104.453V53.7021C104.453 53.8296 104.527 53.9294 104.595 54.0265H101.687V50.8599C101.687 50.3812 101.391 49.9693 100.971 49.7904ZM106.636 49.7904H112.374V53.7021C112.374 53.8296 112.442 53.9294 112.51 54.0265H106.494C106.563 53.9285 106.635 53.8287 106.636 53.7021L106.636 49.7904ZM114.551 49.7904H118.038C117.616 49.9687 117.318 50.3818 117.318 50.8602V54.0267H114.41C114.478 53.9288 114.55 53.829 114.551 53.7024L114.551 49.7904ZM122.724 49.7904H126.231L118.535 52.8089L118.51 51.3569L122.724 49.7904ZM102.749 55.2494H104.619H116.251V55.3983H102.749L102.749 55.2494ZM101.063 56.6202H107.546C106.872 57.1756 106.416 57.9788 106.416 58.9079V61.3152C106.416 61.6525 106.696 61.9261 107.04 61.9261H111.964C112.308 61.9261 112.588 61.6525 112.588 61.3152V58.9079C112.588 57.9788 112.132 57.1755 111.458 56.6202H117.941L125.778 65.4034C126.217 65.897 126.455 66.5271 126.455 67.1798V73.4844H126.44C126.096 73.4844 125.817 73.758 125.817 74.0953V74.2857H123.557V74.0953C123.557 73.758 123.277 73.4844 122.933 73.4844H122.714V71.0486C122.714 70.8287 122.595 70.6281 122.402 70.5181L121.72 70.1309C121.625 70.0754 121.519 70.057 121.409 70.057H121.082C121.065 70.0574 121.05 70.0562 121.034 70.057H118.252C118.232 70.057 118.214 70.057 118.194 70.057H115.033C114.923 70.057 114.816 70.0847 114.721 70.1402L114.044 70.5274C113.852 70.6346 113.727 70.8398 113.727 71.0579V73.4889H113.504C113.159 73.4889 112.88 73.7625 112.88 74.0998V74.2902H106.119V74.0998C106.119 73.7625 105.84 73.4889 105.496 73.4889H105.272V71.0532C105.272 70.835 105.152 70.6308 104.96 70.5226L104.283 70.141C104.188 70.0856 104.076 70.0578 103.966 70.0578H97.5952C97.485 70.0578 97.3787 70.0856 97.2835 70.141L96.6016 70.5226C96.4093 70.6308 96.2898 70.835 96.2898 71.0532V73.4889H96.0656C95.7216 73.4889 95.447 73.7625 95.447 74.0998V74.2902H93.182V74.0998C93.182 73.7625 92.9026 73.4889 92.5586 73.4889H92.5436V67.1846C92.5436 66.5321 92.7862 65.9019 93.2255 65.408L101.063 56.6202ZM109.47 58.8551C109.509 58.8551 109.538 58.9014 109.578 58.9014C109.578 58.9291 109.551 58.9384 109.534 58.9476C109.495 58.9476 109.467 58.9014 109.427 58.9014C109.427 58.8737 109.452 58.8644 109.47 58.8551ZM111.341 59.7204V60.704H110.338C110.781 60.5034 111.138 60.1552 111.341 59.7204ZM107.663 59.7204C107.866 60.153 108.22 60.5004 108.662 60.6994H107.663V59.7204ZM127.702 69.0622L128.706 70.0462H127.97C127.876 70.0462 127.787 70.0739 127.702 70.1201V69.0622ZM91.2971 69.0622V70.108C91.2138 70.071 91.126 70.0434 91.0341 70.0434H90.698C90.6806 70.044 90.6659 70.0427 90.6494 70.0434H90.2938L91.2971 69.0622ZM87.8485 71.2686C88.3022 71.2686 88.7458 71.4053 89.1539 71.6271V73.4757H86.5334V71.6322C86.9441 71.4076 87.3913 71.2686 87.8485 71.2686ZM100.63 71.2686C101.13 71.2409 101.637 71.3518 102.091 71.593V73.4748H99.4705V71.6266C99.8353 71.426 100.224 71.2908 100.63 71.2686ZM118.185 71.2686H118.262C118.701 71.2686 119.138 71.3786 119.534 71.593V73.4748H116.908V71.593C117.304 71.3804 117.746 71.2742 118.185 71.2686ZM131.161 71.2686C131.616 71.2686 132.061 71.4083 132.471 71.6319V73.4754H129.846V71.6319C130.256 71.4073 130.704 71.2686 131.161 71.2686ZM85.0965 71.2963C85.1737 71.324 85.2394 71.3704 85.2865 71.4314V73.4802H84.6046V71.4695C84.6465 71.414 84.6868 71.3547 84.7554 71.3205C84.8629 71.2651 84.9815 71.2593 85.0965 71.2963ZM90.8977 71.2963C90.9835 71.324 91.0364 71.397 91.0878 71.4672V73.4779H90.401V71.4336C90.4434 71.3874 90.4955 71.3413 90.5518 71.3191C90.6593 71.2637 90.7856 71.2593 90.8977 71.2963ZM98.0336 71.2963C98.1109 71.324 98.1765 71.3704 98.2236 71.4314V73.4802H97.5368V71.474C97.5802 71.4185 97.6241 71.3521 97.6927 71.3225C97.7992 71.2578 97.9243 71.2593 98.0336 71.2963ZM103.835 71.2963C103.918 71.324 103.974 71.397 104.025 71.4672V73.4779H103.343V71.4624C103.385 71.407 103.427 71.3497 103.494 71.3183C103.603 71.2628 103.723 71.2593 103.835 71.2963ZM115.467 71.2963C115.553 71.324 115.615 71.399 115.666 71.472V73.4782H114.975V71.4672C115.018 71.4117 115.057 71.3528 115.126 71.3186C115.235 71.2631 115.354 71.2593 115.467 71.2963ZM121.273 71.2963C121.353 71.324 121.41 71.3943 121.463 71.4627V73.4782H120.776V71.4627C120.819 71.4072 120.862 71.3427 120.932 71.3112C121.043 71.2558 121.165 71.2556 121.273 71.2833L121.273 71.2963ZM128.409 71.2963C128.486 71.324 128.556 71.3704 128.603 71.4314V73.4802H127.912V71.479C127.956 71.4144 127.997 71.3514 128.068 71.3228C128.177 71.2581 128.296 71.2593 128.409 71.2963ZM134.205 71.2963C134.291 71.324 134.349 71.397 134.4 71.4672V73.4779H133.708V71.4336C133.75 71.3782 133.807 71.3413 133.864 71.3191C133.974 71.2544 134.096 71.2593 134.205 71.2963ZM70.7468 74.9547H75.9684V127.787H70.7468V74.9547ZM143.031 74.9547H148.253V127.787H143.031V74.9547ZM82.2762 75.4991H136.723V84.7599H112.515V84.2682C112.515 83.9309 112.235 83.6573 111.891 83.6573H109.5H107.108C106.764 83.6573 106.485 83.9309 106.485 84.2682V84.7599H82.2761L82.2762 75.4991ZM107.732 84.8792H109.495H111.268V85.3711C111.268 85.4542 111.328 85.515 111.361 85.5908H107.639C107.672 85.5168 107.732 85.457 107.732 85.3711L107.732 84.8792ZM82.2811 86.8135H136.723V87.74C135.033 92.0631 133.836 96.5809 133.172 101.17H122.943C122.938 101.17 122.938 101.17 122.933 101.17C122.928 101.17 122.928 101.17 122.923 101.17H113.513C113.508 101.17 113.508 101.17 113.503 101.17C113.498 101.17 113.498 101.17 113.493 101.17H105.505C105.5 101.17 105.5 101.17 105.495 101.17C105.49 101.17 105.49 101.17 105.485 101.17H96.0741C96.0691 101.17 96.0691 101.17 96.0641 101.17C96.0592 101.17 96.0591 101.17 96.0541 101.17H85.8252C85.1626 96.5826 83.9698 92.0691 82.2792 87.7448L82.2811 86.8135ZM141.784 87.1858V117.069C141.382 116.742 140.945 116.459 140.469 116.238C139.821 115.938 139.122 115.785 138.399 115.785H133.81H133.635C127.511 115.785 121.7 113.506 117.264 109.356C117.149 109.248 116.995 109.189 116.835 109.189H102.15C101.99 109.189 101.836 109.244 101.721 109.356C97.2821 113.506 91.4744 115.785 85.3449 115.785H85.1646H80.586C79.8728 115.785 79.1588 115.943 78.5207 116.238C78.0492 116.457 77.6143 116.737 77.2153 117.06V87.1908C77.6155 87.5143 78.054 87.7953 78.5256 88.0124C79.169 88.311 79.8829 88.4663 80.5908 88.4663H81.2289C82.8498 92.6695 83.9885 97.0572 84.6191 101.51C84.6914 102.013 85.1381 102.388 85.6566 102.388H95.4471V102.584C95.4471 102.922 95.7217 103.195 96.0657 103.195H96.2899V106.132C96.2899 106.35 96.4094 106.55 96.6016 106.658L97.0303 106.903L97.2837 107.043C97.3789 107.098 97.4862 107.126 97.5954 107.126H97.99V107.866C97.99 108.03 98.0533 108.181 98.1703 108.296L98.594 108.712C98.711 108.827 98.8675 108.889 99.0324 108.889H102.53C102.697 108.889 102.856 108.824 102.973 108.712L103.397 108.302C103.513 108.187 103.577 108.028 103.577 107.867V107.127H103.967C104.077 107.127 104.183 107.099 104.279 107.044L104.961 106.656C105.153 106.549 105.272 106.349 105.272 106.131V103.193H105.496C105.84 103.193 106.12 102.922 106.12 102.582V102.387H112.881V102.582C112.881 102.92 113.16 103.193 113.504 103.193H113.728V106.131C113.728 106.349 113.847 106.548 114.04 106.656L114.468 106.902C114.473 106.902 114.483 106.904 114.488 106.902L114.722 107.035C114.817 107.091 114.925 107.119 115.034 107.119H115.428V107.859C115.428 108.022 115.492 108.174 115.609 108.289L116.032 108.705C116.149 108.819 116.306 108.881 116.471 108.881H119.973C120.137 108.881 120.292 108.816 120.411 108.705L120.835 108.294C120.951 108.18 121.015 108.021 121.015 107.86V107.12H121.405C121.515 107.12 121.622 107.092 121.717 107.046L122.399 106.658C122.591 106.548 122.71 106.346 122.71 106.128V103.191H122.934C123.28 103.191 123.558 102.919 123.558 102.58V102.384H133.348C133.862 102.381 134.306 102.005 134.381 101.505C135.01 97.049 136.16 92.6632 137.781 88.457H138.409C139.126 88.4562 139.822 88.3054 140.48 88.0031C140.95 87.7878 141.385 87.5092 141.784 87.1858ZM100.776 103.195C101.235 103.195 101.684 103.337 102.096 103.563V105.545C101.695 105.763 101.261 105.898 100.815 105.904H100.757C100.309 105.904 99.8735 105.76 99.4706 105.541V103.559C99.8795 103.336 100.321 103.196 100.776 103.195ZM118.063 103.195C118.564 103.167 119.07 103.278 119.524 103.519V105.578C118.707 106.014 117.723 105.988 116.908 105.55V103.549C117.271 103.353 117.66 103.217 118.063 103.195ZM121.005 103.195C121.113 103.167 121.241 103.167 121.346 103.241L121.463 103.306V105.761L121.302 105.853C121.109 105.937 120.895 105.854 120.776 105.692V103.371C120.836 103.287 120.911 103.219 121.005 103.195ZM98.0336 103.195C98.1219 103.223 98.177 103.303 98.2284 103.376V105.726C98.0919 105.888 97.8494 105.934 97.6633 105.827L97.5367 105.753V103.298L97.6681 103.224C97.6756 103.224 97.6855 103.224 97.6931 103.224C97.7975 103.159 97.9243 103.149 98.0336 103.195ZM103.567 103.195C103.676 103.167 103.796 103.167 103.903 103.241C103.908 103.241 103.913 103.239 103.918 103.241L104.025 103.306V105.761L103.864 105.853C103.679 105.937 103.464 105.881 103.338 105.733V103.374C103.399 103.291 103.473 103.219 103.567 103.195ZM115.467 103.195C115.553 103.223 115.61 103.298 115.661 103.371V105.687C115.532 105.861 115.308 105.925 115.111 105.822L114.975 105.748V103.294L115.096 103.219C115.106 103.219 115.116 103.219 115.125 103.219C115.23 103.164 115.354 103.158 115.467 103.195ZM99.266 107.102H102.33V107.589L99.2903 107.644L99.266 107.102ZM116.704 107.102H118.219C118.231 107.102 118.241 107.102 118.253 107.102H119.768V107.589L116.728 107.644L116.704 107.102ZM102.403 110.383H116.592C121.285 114.684 127.371 116.979 133.825 116.979H138.409C138.947 116.979 139.461 117.091 139.943 117.313C140.673 117.652 141.298 118.177 141.784 118.808V119.778C141.542 119.678 141.278 119.62 141 119.62H77.9995C77.7214 119.62 77.457 119.676 77.2153 119.773V118.804C77.7005 118.173 78.3256 117.651 79.0565 117.314C79.5304 117.091 80.0572 116.979 80.586 116.979H85.1647H85.3547C91.7185 116.979 97.7546 114.643 102.403 110.383Z" stroke="#343941" stroke-width="1.5"/>
</svg>
