<svg width="100%" height="100%" viewBox="0 0 219 150" fill="none" xmlns="http://www.w3.org/2000/svg">
<path d="M112.499 72.5001L107.499 72.5L109.5 65L101 76.5H107L105.5 85L112.499 72.5001Z" stroke="#343941" stroke-width="1.5"/>
<path fill-rule="evenodd" clip-rule="evenodd" d="M107.5 54L88.4474 88.5H126.553L107.5 54ZM107.5 59.1714L92.684 86H122.316L107.5 59.1714Z" stroke="#343941" stroke-width="1.5"/>
<path d="M109.5 47C109.5 48.1046 108.605 49 107.5 49C106.395 49 105.5 48.1046 105.5 47C105.5 45.8954 106.395 45 107.5 45C108.605 45 109.5 45.8954 109.5 47Z" stroke="#343941" stroke-width="1.5"/>
<path d="M114.5 49C115.605 49 116.5 48.1046 116.5 47C116.5 45.8954 115.605 45 114.5 45C113.395 45 112.5 45.8954 112.5 47C112.5 48.1046 113.395 49 114.5 49Z" stroke="#343941" stroke-width="1.5"/>
<path d="M102.5 47C102.5 48.1046 101.605 49 100.5 49C99.3954 49 98.5 48.1046 98.5 47C98.5 45.8954 99.3954 45 100.5 45C101.605 45 102.5 45.8954 102.5 47Z" stroke="#343941" stroke-width="1.5"/>
<path d="M93.25 95.5C93.25 94.8096 93.8096 94.25 94.5 94.25H120.5C121.19 94.25 121.75 94.8096 121.75 95.5C121.75 96.1904 121.19 96.75 120.5 96.75H94.5C93.8096 96.75 93.25 96.1904 93.25 95.5Z" stroke="#343941" stroke-width="1.5"/>
<path d="M94.5 103.75C93.8096 103.75 93.25 104.31 93.25 105C93.25 105.69 93.8096 106.25 94.5 106.25H120.5C121.19 106.25 121.75 105.69 121.75 105C121.75 104.31 121.19 103.75 120.5 103.75H94.5Z" stroke="#343941" stroke-width="1.5"/>
<path d="M93.25 100C93.25 99.3096 93.8096 98.75 94.5 98.75H120.5C121.19 98.75 121.75 99.3096 121.75 100C121.75 100.69 121.19 101.25 120.5 101.25H94.5C93.8096 101.25 93.25 100.69 93.25 100Z" stroke="#343941" stroke-width="1.5"/>
<path fill-rule="evenodd" clip-rule="evenodd" d="M77.5 39C77.5 36.7909 79.2909 35 81.5 35H133.5C135.709 35 137.5 36.7909 137.5 39V43.75C138.19 43.75 138.75 44.3096 138.75 45V56C138.75 56.6904 138.19 57.25 137.5 57.25V90.75C138.19 90.75 138.75 91.3096 138.75 92V103C138.75 103.69 138.19 104.25 137.5 104.25V111C137.5 113.209 135.709 115 133.5 115H81.5C79.2909 115 77.5 113.209 77.5 111V39ZM81.5 37.5H133.5C134.328 37.5 135 38.1716 135 39V111C135 111.828 134.328 112.5 133.5 112.5H81.5C80.6716 112.5 80 111.828 80 111V39C80 38.1716 80.6716 37.5 81.5 37.5Z" stroke="#343941" stroke-width="1.5"/>
<path fill-rule="evenodd" clip-rule="evenodd" d="M73.5 35C73.5 32.7909 75.2909 31 77.5 31H141.5C143.709 31 145.5 32.7909 145.5 35V115C145.5 117.209 143.709 119 141.5 119H77.5C75.2909 119 73.5 117.209 73.5 115V35ZM77.5 33.5H141.5C142.328 33.5 143 34.1716 143 35V115C143 115.828 142.328 116.5 141.5 116.5H77.5C76.6716 116.5 76 115.828 76 115V35C76 34.1716 76.6716 33.5 77.5 33.5Z" stroke="#343941" stroke-width="1.5"/>
</svg>
