<svg width="100%" height="100%" viewBox="0 0 219 150" fill="none" xmlns="http://www.w3.org/2000/svg">
<path d="M136.759 115.073V82.4556H137.691V57.0602H137.575L136.41 54.8468V37.9554L134.779 34.9266H84.1044L82.59 37.9554V55.0798L81.4251 57.1767H81.3086V82.572H82.0075V115.073H136.759ZM134.196 112.511H84.5704V95.9687V103.424H133.963V95.9687H134.08V112.511H134.196ZM84.5704 94.4543V82.6885H85.6188V93.7553H84.5704V94.4543ZM96.4526 91.542V93.7553H87.1332V91.542H96.4526ZM87.2497 90.0276V83.737H96.4526V90.0276H87.2497ZM132.565 95.2697V102.026H86.2013V95.2697H132.565ZM97.967 92.9399V82.6885H99.4814V92.9399H97.967ZM103.442 91.542V93.0564H101.811V82.805H103.326L103.442 91.542ZM114.16 91.542V93.7553H104.957V91.542H114.16ZM104.957 90.0276V83.737H114.16V90.0276H104.957ZM115.674 92.9399V82.6885H117.188V92.9399H115.674ZM119.518 92.9399V82.6885H121.149V92.9399H119.518ZM131.75 91.4255V93.6388H122.663V91.4255H131.75ZM122.663 90.0276V83.737H131.75V90.0276H122.663ZM134.196 93.7553H133.148V82.805H134.196V93.7553ZM85.6188 37.3729H133.148L133.497 37.9554H85.3858L85.6188 37.3729ZM85.0364 40.4017H133.73V54.0314H85.0364V40.4017ZM84.5704 56.4777H134.313L134.662 57.0602H84.2209L84.5704 56.4777ZM83.8714 59.5065H135.128V80.0092H83.8714V59.5065ZM120.217 71.9712H126.508V68.2434H120.217V71.9712ZM121.732 69.7578H124.993V70.4568H121.732V69.7578ZM84.9199 71.9712H91.2105V68.2434H84.9199V71.9712ZM86.3178 69.7578H89.5796V70.4568H86.3178V69.7578ZM102.51 71.9712H108.801V68.2434H102.51V71.9712ZM104.025 69.7578H107.286V70.4568H104.025V69.7578ZM125.925 103.657C123.828 103.657 122.198 105.405 122.198 107.385C122.198 109.482 123.945 111.113 125.925 111.113C128.022 111.113 129.653 109.365 129.653 107.385C129.653 105.405 127.906 103.657 125.925 103.657ZM125.925 109.715C124.644 109.715 123.595 108.666 123.595 107.385C123.595 106.103 124.644 105.055 125.925 105.055C127.207 105.055 128.255 106.103 128.255 107.385C128.139 108.666 127.09 109.715 125.925 109.715ZM108.917 103.657C106.821 103.657 105.19 105.405 105.19 107.385C105.19 109.482 106.937 111.113 108.917 111.113C111.014 111.113 112.645 109.365 112.645 107.385C112.762 105.405 111.014 103.657 108.917 103.657ZM108.917 109.715C107.636 109.715 106.588 108.666 106.588 107.385C106.588 106.103 107.636 105.055 108.917 105.055C110.199 105.055 111.247 106.103 111.247 107.385C111.247 108.666 110.199 109.715 108.917 109.715ZM92.026 103.657C89.9291 103.657 88.2982 105.405 88.2982 107.385C88.2982 109.482 89.9291 111.113 92.026 111.113C94.1228 111.113 95.7537 109.365 95.7537 107.385C95.8702 105.405 94.1228 103.657 92.026 103.657ZM92.026 109.715C90.7446 109.715 89.6961 108.666 89.6961 107.385C89.6961 106.103 90.7446 105.055 92.026 105.055C93.3074 105.055 94.3558 106.103 94.3558 107.385C94.3558 108.666 93.3074 109.715 92.026 109.715ZM92.026 41.4501C89.9291 41.4501 88.2982 43.081 88.2982 45.1779C88.2982 47.2747 89.9291 48.9056 92.026 48.9056C94.1228 48.9056 95.7537 47.2747 95.7537 45.1779C95.7537 43.081 94.1228 41.4501 92.026 41.4501ZM92.026 47.5077C90.7446 47.5077 89.6961 46.4593 89.6961 45.1779C89.6961 43.8964 90.7446 42.848 92.026 42.848C93.3074 42.848 94.3558 43.8964 94.3558 45.1779C94.3558 46.4593 93.3074 47.5077 92.026 47.5077ZM108.801 41.4501C106.704 41.4501 105.073 43.081 105.073 45.1779C105.073 47.2747 106.821 48.9056 108.801 48.9056C110.898 48.9056 112.529 47.2747 112.529 45.1779C112.529 43.081 110.781 41.4501 108.801 41.4501ZM108.801 47.5077C107.519 47.5077 106.471 46.4593 106.471 45.1779C106.471 43.8964 107.519 42.848 108.801 42.848C110.082 42.848 111.131 43.8964 111.131 45.1779C111.014 46.4593 109.966 47.5077 108.801 47.5077ZM126.042 41.4501C123.945 41.4501 122.314 43.081 122.314 45.1779C122.314 47.2747 124.061 48.9056 126.042 48.9056C128.139 48.9056 129.77 47.2747 129.77 45.1779C129.77 43.081 128.139 41.4501 126.042 41.4501ZM126.042 47.5077C124.76 47.5077 123.712 46.4593 123.712 45.1779C123.712 43.8964 124.76 42.848 126.042 42.848C127.323 42.848 128.372 43.8964 128.372 45.1779C128.372 46.4593 127.323 47.5077 126.042 47.5077Z" stroke="#343941" stroke-width="1.5"/>
</svg>
