<svg width="20" height="20" viewBox="0 0 20 20" fill="none" xmlns="http://www.w3.org/2000/svg">
	<g id="account_circle">
		<path id="Vector"
			  d="M10.0013 1.66667C5.4013 1.66667 1.66797 5.4 1.66797 10C1.66797 14.6 5.4013 18.3333 10.0013 18.3333C14.6013 18.3333 18.3346 14.6 18.3346 10C18.3346 5.4 14.6013 1.66667 10.0013 1.66667ZM5.89297 15.2333C6.2513 14.4833 8.43464 13.75 10.0013 13.75C11.568 13.75 13.7596 14.4833 14.1096 15.2333C12.9763 16.1333 11.5513 16.6667 10.0013 16.6667C8.4513 16.6667 7.0263 16.1333 5.89297 15.2333ZM15.3013 14.025C14.1096 12.575 11.218 12.0833 10.0013 12.0833C8.78464 12.0833 5.89297 12.575 4.7013 14.025C3.8513 12.9083 3.33464 11.5167 3.33464 10C3.33464 6.325 6.3263 3.33333 10.0013 3.33333C13.6763 3.33333 16.668 6.325 16.668 10C16.668 11.5167 16.1513 12.9083 15.3013 14.025ZM10.0013 5C8.38464 5 7.08464 6.3 7.08464 7.91667C7.08464 9.53334 8.38464 10.8333 10.0013 10.8333C11.618 10.8333 12.918 9.53334 12.918 7.91667C12.918 6.3 11.618 5 10.0013 5ZM10.0013 9.16667C9.30964 9.16667 8.7513 8.60833 8.7513 7.91667C8.7513 7.225 9.30964 6.66667 10.0013 6.66667C10.693 6.66667 11.2513 7.225 11.2513 7.91667C11.2513 8.60833 10.693 9.16667 10.0013 9.16667Z"
			  fill="#111111"/>
	</g>
</svg>
