<svg width="18" height="18" viewBox="0 0 18 18" fill="none" xmlns="http://www.w3.org/2000/svg">
	<g id="shopping_cart">
		<path id="Vector"
			  d="M5.99609 13.5C5.17109 13.5 4.50359 14.175 4.50359 15C4.50359 15.825 5.17109 16.5 5.99609 16.5C6.82109 16.5 7.49609 15.825 7.49609 15C7.49609 14.175 6.82109 13.5 5.99609 13.5ZM1.49609 2.25C1.49609 2.6625 1.83359 3 2.24609 3H2.99609L5.69609 8.6925L4.68359 10.5225C4.13609 11.5275 4.85609 12.75 5.99609 12.75H14.2461C14.6586 12.75 14.9961 12.4125 14.9961 12C14.9961 11.5875 14.6586 11.25 14.2461 11.25H5.99609L6.82109 9.75H12.4086C12.9711 9.75 13.4661 9.4425 13.7211 8.9775L16.4061 4.11C16.6836 3.615 16.3236 3 15.7536 3H4.65359L4.15109 1.9275C4.03109 1.665 3.76109 1.5 3.47609 1.5H2.24609C1.83359 1.5 1.49609 1.8375 1.49609 2.25ZM13.4961 13.5C12.6711 13.5 12.0036 14.175 12.0036 15C12.0036 15.825 12.6711 16.5 13.4961 16.5C14.3211 16.5 14.9961 15.825 14.9961 15C14.9961 14.175 14.3211 13.5 13.4961 13.5Z"
			  fill="#FF7F00"/>
	</g>
</svg>
